# Wavefront Obj file
# 
# verts: 140 uv-s: 198
mtllib ax.mtl

g Group23328
#pivot 0.000000 0.000000 0.000000

v 0.081368 0.656446 0.026651
v 0.010225 0.656448 0.070854
v 0.034471 -0.507765 -0.077395
v -0.007328 0.656450 -0.077079
v -0.051468 -0.507765 -0.038102
v -0.074435 0.656448 -0.038877
v 0.058966 -0.507765 -0.014339
v -0.037800 -0.507763 0.083480
v 0.073449 0.656450 0.000578
v 0.039901 0.656452 0.015892
v 0.058654 0.656449 0.041669
v -0.012529 0.656451 0.057780
v 0.033185 0.656450 0.055613
v 0.013357 0.656452 0.032877
v 0.043387 -0.507765 -0.056865
v 0.018613 -0.507765 -0.045269
v 0.010518 -0.507765 -0.072178
v 0.048347 -0.507759 -0.105949
v 0.078038 -0.507758 -0.082953
v 0.009689 -0.507759 -0.115959
v -0.028801 0.656451 -0.062317
v -0.012724 0.656452 -0.038827
v 0.013709 0.656451 -0.063218
v -0.046276 -0.507765 -0.013165
v -0.097097 -0.507761 -0.013106
v -0.088370 -0.507761 -0.054463
v -0.064658 -0.507762 -0.087159
v -0.032389 -0.507765 -0.050021
v -0.021284 -0.507765 -0.022477
v -0.052275 0.656451 -0.051189
v -0.068442 0.656450 -0.011678
v -0.036934 0.656452 -0.024018
v 0.099767 -0.507761 -0.010332
v 0.088402 -0.507762 0.026108
v 0.041561 -0.507765 0.000765
v 0.050276 -0.507765 -0.034530
v 0.095956 -0.507762 -0.049505
v 0.027343 -0.507765 -0.021721
v -0.056208 -0.507713 0.131657
v -0.105899 -0.507723 0.100079
v -0.060729 -0.507764 0.059105
v -0.023424 -0.507765 0.037604
v -0.004892 -0.507764 0.078248
v 0.000604 -0.507706 0.142525
v 0.056948 -0.507704 0.130700
v 0.082757 -0.507520 0.190641
v 0.001332 -0.507533 0.206436
v -0.080993 -0.507544 0.190755
v 0.030765 -0.507764 0.074523
v 0.064081 -0.507763 0.056055
v 0.106008 -0.507713 0.098151
v 0.003339 -0.507765 0.028147
v 0.025827 -0.507765 0.016306
v -0.011888 -0.507765 0.001830
v 0.008634 -0.507765 -0.009505
v -0.001773 -0.507765 -0.033745
v -0.013648 -0.507765 -0.064400
v -0.030207 -0.507761 -0.109995
v -0.100074 -0.507716 -0.124717
v -0.047453 -0.507702 -0.157805
v 0.012237 -0.507693 -0.166122
v -0.068483 -0.507576 -0.210485
v 0.013704 -0.507538 -0.222006
v 0.092516 -0.507531 -0.202119
v 0.069081 -0.507695 -0.150889
v 0.157965 -0.507526 -0.154482
v 0.115889 -0.507699 -0.115649
v 0.200348 -0.507561 -0.084972
v 0.145265 -0.507708 -0.065595
v 0.215474 -0.507546 -0.004546
v 0.154528 -0.507700 -0.006890
v 0.198520 -0.507522 0.076107
v 0.141065 -0.507695 0.050354
v 0.150931 -0.507575 0.143582
v 0.198819 -0.423771 0.076370
v 0.150834 -0.423665 0.143752
v 0.082663 -0.423768 0.191243
v 0.125140 -0.420702 0.117410
v 0.068851 -0.420695 0.156687
v 0.000952 -0.420377 0.168405
v 0.000689 -0.423740 0.206504
v -0.067167 -0.420511 0.155513
v -0.081867 -0.423765 0.190108
v -0.125139 -0.420439 0.115947
v -0.152485 -0.423679 0.142723
v -0.151599 -0.507546 0.142973
v -0.197863 -0.423674 0.070252
v -0.197977 -0.507582 0.069810
v -0.140831 -0.507715 0.047733
v -0.213239 -0.507537 -0.015476
v -0.153021 -0.507695 -0.014739
v -0.087023 -0.507764 0.028162
v -0.039012 -0.507765 0.012448
v -0.192284 -0.507549 -0.099241
v -0.137903 -0.507703 -0.075631
v -0.142028 -0.507588 -0.168432
v -0.193570 -0.423740 -0.097375
v -0.144190 -0.423685 -0.166764
v -0.071376 -0.423727 -0.209594
v -0.118578 -0.420433 -0.137924
v -0.059093 -0.420520 -0.173882
v 0.008444 -0.420371 -0.184386
v 0.010781 -0.424108 -0.222099
v 0.074903 -0.420424 -0.169061
v 0.090435 -0.423655 -0.202495
v 0.129259 -0.420703 -0.129139
v 0.156466 -0.423666 -0.154070
v 0.166478 -0.420629 -0.072660
v 0.200927 -0.423705 -0.085338
v 0.177387 -0.420377 -0.005525
v 0.215472 -0.423766 -0.004564
v 0.164748 -0.420667 0.061467
v -0.163097 -0.420471 0.056637
v -0.175278 -0.420376 -0.012693
v -0.213207 -0.423812 -0.014095
v -0.160080 -0.420559 -0.081342
v -0.158023 0.656111 0.066751
v -0.174985 0.656036 -0.002170
v -0.163127 0.656071 -0.070936
v -0.126465 0.656139 -0.127755
v -0.071691 0.656097 -0.167543
v -0.005785 0.656035 -0.183810
v 0.062184 0.656077 -0.172351
v 0.120546 0.656107 -0.135076
v 0.161546 0.656017 -0.078758
v 0.177286 0.656037 -0.011101
v 0.165106 0.656016 0.055390
v 0.130036 0.656119 0.110803
v 0.078218 0.656039 0.150514
v 0.013844 0.656034 0.167589
v -0.053933 0.656053 0.158883
v -0.114765 0.656111 0.123344
v -0.038253 0.656451 0.044485
v -0.059333 0.656451 0.019196
v -0.005529 0.656452 0.016205
v -0.022888 0.656452 -0.002300
v 0.023389 0.656452 -0.004023
v 0.005043 0.656452 -0.021327
v 0.061402 0.656451 -0.028265
v 0.039367 0.656451 -0.051137
# 140 positions

vt 0.857936 0.553781
vt 0.843920 0.559021
vt 0.839413 0.539277
vt 0.856913 0.538863
vt 0.898400 0.580731
vt 0.873452 0.608218
vt 0.910880 0.546951
vt 0.853496 0.508001
vt 0.840204 0.502434
vt 0.870507 0.450654
vt 0.896907 0.477321
vt 0.854503 0.523101
vt 0.837972 0.522032
vt 0.910925 0.511101
vt 0.814620 0.828794
vt 0.804033 0.822550
vt 0.811298 0.809403
vt 0.823579 0.818746
vt 0.817670 0.845959
vt 0.797057 0.845323
vt 0.838076 0.837931
vt 0.783102 0.549676
vt 0.782382 0.535385
vt 0.797991 0.534566
vt 0.796165 0.554232
vt 0.764717 0.611775
vt 0.737051 0.585943
vt 0.722170 0.551764
vt 0.840123 0.783602
vt 0.829768 0.774198
vt 0.852329 0.757771
vt 0.861799 0.778962
vt 0.861814 0.801142
vt 0.835492 0.795055
vt 0.821669 0.786401
vt 0.777390 0.507659
vt 0.779408 0.521432
vt 0.721263 0.514598
vt 0.733826 0.479655
vt 0.759873 0.451549
vt 0.791255 0.501203
vt 0.796378 0.519065
vt 0.783388 0.808683
vt 0.763966 0.820069
vt 0.757256 0.800211
vt 0.786246 0.796355
vt 0.793764 0.814850
vt 0.778301 0.836245
vt 0.799820 0.801757
vt 0.794814 0.733994
vt 0.787445 0.706647
vt 0.819714 0.704642
vt 0.812867 0.737424
vt 0.803231 0.759016
vt 0.781881 0.746938
vt 0.758696 0.720153
vt 0.737478 0.743590
vt 0.706666 0.725287
vt 0.737747 0.691992
vt 0.779385 0.672391
vt 0.767241 0.760100
vt 0.758398 0.779057
vt 0.726184 0.773884
vt 0.794392 0.771854
vt 0.788222 0.784373
vt 0.809650 0.778633
vt 0.804190 0.790293
vt 0.816637 0.797704
vt 0.831806 0.807492
vt 0.853877 0.822406
vt 0.889671 0.806400
vt 0.876969 0.838083
vt 0.853132 0.861040
vt 0.903314 0.854702
vt 0.870515 0.886343
vt 0.829081 0.902942
vt 0.822960 0.872617
vt 0.784628 0.902898
vt 0.790791 0.872065
vt 0.743365 0.885692
vt 0.761585 0.859307
vt 0.710690 0.854840
vt 0.738525 0.836212
vt 0.692195 0.813533
vt 0.726033 0.806434
vt 0.691563 0.768196
vt 0.205748 0.970068
vt 0.160406 0.970044
vt 0.160425 0.924053
vt 0.205851 0.923990
vt 0.251475 0.924052
vt 0.251238 0.970044
vt 0.627875 0.713669
vt 0.627875 0.751900
vt 0.607751 0.751900
vt 0.607751 0.713669
vt 0.607751 0.675150
vt 0.627875 0.675150
vt 0.297263 0.924160
vt 0.296786 0.970172
vt 0.607751 0.636180
vt 0.627875 0.636180
vt 0.343483 0.924311
vt 0.342806 0.970316
vt 0.607751 0.596580
vt 0.627875 0.596580
vt 0.390183 0.924345
vt 0.389622 0.970399
vt 0.437137 0.924531
vt 0.437191 0.970608
vt 0.826176 0.670835
vt 0.870393 0.688375
vt 0.852127 0.716626
vt 0.904697 0.721343
vt 0.877704 0.740449
vt 0.834536 0.742686
vt 0.818275 0.765163
vt 0.922419 0.765323
vt 0.890638 0.772382
vt 0.922419 0.812284
vt 0.593775 0.970212
vt 0.546814 0.970186
vt 0.545572 0.924164
vt 0.592339 0.924135
vt 0.638728 0.924211
vt 0.640297 0.970259
vt 0.633352 0.382748
vt 0.633352 0.421730
vt 0.613141 0.421730
vt 0.613141 0.382748
vt 0.613141 0.344235
vt 0.633352 0.344235
vt 0.684363 0.924495
vt 0.685870 0.970313
vt 0.613141 0.305766
vt 0.633352 0.305766
vt 0.729409 0.924310
vt 0.730505 0.970371
vt 0.613141 0.267477
vt 0.633352 0.267477
vt 0.774375 0.924264
vt 0.774958 0.970320
vt 0.627875 0.905329
vt 0.607751 0.905329
vt 0.607751 0.866943
vt 0.627875 0.866943
vt 0.025030 0.924380
vt 0.069981 0.924190
vt 0.070210 0.970240
vt 0.025503 0.970437
vt 0.607751 0.828454
vt 0.627875 0.828454
vt 0.115050 0.924138
vt 0.115148 0.970145
vt 0.607751 0.790098
vt 0.627875 0.790098
vt 0.031333 0.828454
vt 0.031333 0.790097
vt 0.031333 0.751900
vt 0.795599 0.435966
vt 0.834715 0.435966
vt 0.825825 0.495645
vt 0.807763 0.494881
vt 0.031333 0.713669
vt 0.810538 0.517950
vt 0.811551 0.536481
vt 0.031333 0.675150
vt 0.031333 0.636180
vt 0.031333 0.596580
vt 0.825218 0.538715
vt 0.827319 0.563383
vt 0.809992 0.561397
vt 0.031333 0.556752
vt 0.607751 0.556752
vt 0.613141 0.540417
vt 0.036637 0.540416
vt 0.036637 0.500592
vt 0.613141 0.500592
vt 0.633352 0.500592
vt 0.633352 0.540417
vt 0.627875 0.556752
vt 0.613141 0.460970
vt 0.633352 0.460970
vt 0.498586 0.924284
vt 0.499398 0.970259
vt 0.451820 0.970349
vt 0.451507 0.924272
vt 0.036637 0.460970
vt 0.036637 0.421730
vt 0.824400 0.519352
vt 0.036637 0.382748
vt 0.036637 0.344235
vt 0.838686 0.623914
vt 0.036637 0.305766
vt 0.036637 0.267477
vt 0.031333 0.905329
vt 0.031333 0.866943
vt 0.800442 0.624807
# 198 texture coordinates

vn 0.002814 0.999996 0.000729
vn 0.000231 0.999996 0.002674
vn 0.000047 -1.000000 -0.000089
vn -0.000004 0.999997 -0.002375
vn -0.000050 -1.000000 -0.000017
vn -0.002433 0.999997 -0.000530
vn 0.000052 -1.000000 0.000010
vn -0.000137 -1.000000 0.000576
vn 0.002098 0.999998 -0.000189
vn 0.000056 1.000000 0.000028
vn 0.001363 0.999998 0.001323
vn -0.000479 0.999998 0.001851
vn 0.000721 0.999998 0.001906
vn 0.000015 1.000000 0.000046
vn 0.000049 -1.000000 -0.000050
vn 0.000001 -1.000000 -0.000002
vn 0.000006 -1.000000 -0.000068
vn 0.000301 -1.000000 -0.000648
vn 0.000468 -1.000000 -0.000478
vn 0.000069 -1.000000 -0.000707
vn -0.000466 0.999999 -0.001611
vn -0.000004 1.000000 -0.000031
vn 0.000459 0.999999 -0.001616
vn -0.000034 -1.000000 -0.000008
vn -0.000580 -1.000000 -0.000052
vn -0.000541 -1.000000 -0.000181
vn -0.000353 -1.000000 -0.000386
vn -0.000024 -1.000000 -0.000025
vn -0.000001 -1.000000 -0.000000
vn -0.001144 0.999999 -0.001134
vn -0.001958 0.999998 0.000066
vn -0.000044 1.000000 -0.000014
vn 0.000590 -1.000000 0.000077
vn 0.000535 -1.000000 0.000205
vn 0.000031 -1.000000 0.000011
vn 0.000037 -1.000000 -0.000022
vn 0.000545 -1.000000 -0.000205
vn 0.000000 -1.000000 0.000000
vn -0.000564 -0.999999 0.001693
vn -0.001147 -0.999999 0.001260
vn -0.000278 -1.000000 0.000292
vn -0.000007 -1.000000 0.000017
vn 0.000045 -1.000000 0.000489
vn 0.000114 -0.999998 0.001835
vn 0.000575 -0.999998 0.001714
vn 0.270239 -0.714994 0.644790
vn -0.001418 -0.712778 0.701389
vn -0.268076 -0.713211 0.647661
vn 0.000155 -1.000000 0.000449
vn 0.000350 -1.000000 0.000326
vn 0.001174 -0.999999 0.001169
vn 0.000008 -1.000000 0.000008
vn 0.000019 -1.000000 0.000008
vn 0.000000 -1.000000 0.000000
vn 0.000000 -1.000000 0.000000
vn 0.000000 -1.000000 0.000000
vn -0.000004 -1.000000 -0.000044
vn -0.000130 -1.000000 -0.000599
vn -0.001109 -0.999999 -0.001148
vn -0.000379 -0.999999 -0.001700
vn 0.000247 -0.999998 -0.001986
vn -0.230549 -0.713070 -0.662102
vn 0.034924 -0.712114 -0.701194
vn 0.298592 -0.709656 -0.638146
vn 0.000905 -0.999998 -0.001888
vn 0.515506 -0.709344 -0.480713
vn 0.001431 -0.999998 -0.001464
vn 0.653932 -0.712361 -0.254782
vn 0.001707 -0.999998 -0.000682
vn 0.700256 -0.713845 0.008222
vn 0.001832 -0.999998 0.000194
vn 0.641504 -0.714461 0.279319
vn 0.001727 -0.999998 0.000650
vn 0.493549 -0.712595 0.498616
vn 0.669539 0.683152 0.291582
vn 0.514728 0.681654 0.520003
vn 0.282414 0.683301 0.673306
vn 0.525723 0.683115 0.506921
vn 0.297673 0.684723 0.665240
vn 0.018945 0.682152 0.730965
vn -0.001580 0.681820 0.731519
vn -0.259369 0.683281 0.682536
vn -0.279463 0.682697 0.675148
vn -0.505142 0.683557 0.526860
vn -0.524405 0.682619 0.508951
vn -0.501913 -0.714854 0.486896
vn -0.682769 0.680984 0.264739
vn -0.652934 -0.713749 0.253454
vn -0.001557 -0.999999 0.000492
vn -0.699268 -0.714549 -0.021062
vn -0.001817 -0.999998 -0.000166
vn -0.000448 -1.000000 0.000097
vn -0.000018 -1.000000 -0.000003
vn -0.636212 -0.714014 -0.292263
vn -0.001690 -0.999998 -0.000584
vn -0.469449 -0.715298 -0.517654
vn -0.665849 0.680767 -0.305289
vn -0.490931 0.683013 -0.540814
vn -0.240350 0.680960 -0.691756
vn -0.510296 0.683247 -0.522275
vn -0.275422 0.681993 -0.677516
vn 0.001863 0.680473 -0.732771
vn 0.035442 0.680703 -0.731702
vn 0.284707 0.682812 -0.672837
vn 0.307823 0.684797 -0.660529
vn 0.516253 0.683416 -0.516164
vn 0.531998 0.686322 -0.495923
vn 0.671740 0.684531 -0.283167
vn 0.680443 0.683031 -0.265454
vn 0.730884 0.682496 -0.002858
vn 0.731955 0.681297 0.008713
vn 0.674778 0.684214 0.276633
vn -0.671088 0.682998 0.288364
vn -0.731028 0.682342 0.002706
vn -0.731073 0.681948 -0.021868
vn -0.672408 0.683223 -0.284735
vn -0.642840 0.713454 0.278820
vn -0.701064 0.713083 0.004763
vn -0.645776 0.713549 -0.271699
vn -0.491412 0.712854 -0.500353
vn -0.267477 0.712900 -0.648251
vn -0.000461 0.713075 -0.701088
vn 0.271585 0.713727 -0.645628
vn 0.494708 0.712580 -0.497487
vn 0.644874 0.713821 -0.273125
vn 0.701794 0.712367 -0.004255
vn 0.649120 0.713289 0.264316
vn 0.506715 0.711556 0.486752
vn 0.287162 0.713693 0.638889
vn 0.020068 0.712112 0.701779
vn -0.247016 0.713483 0.655687
vn -0.483356 0.713407 0.507363
vn -0.000931 0.999999 0.001325
vn -0.001542 0.999999 0.000542
vn -0.000012 1.000000 0.000011
vn -0.000018 1.000000 0.000009
vn 0.000018 1.000000 -0.000005
vn 0.000010 1.000000 -0.000009
vn 0.001766 0.999998 -0.000682
vn 0.001144 0.999999 -0.001075
# 140 normals

usemtl defaultMat
f 1/1/1 9/2/9 10/3/10 11/4/11
f 1/1/1 127/5/127 126/6/126 9/2/9
f 1/1/1 11/4/11 128/7/128 127/5/127
f 2/8/2 12/9/12 131/10/131 130/11/130
f 2/8/2 13/12/13 14/13/14 12/9/12
f 2/8/2 130/11/130 129/14/129 13/12/13
f 3/15/3 15/16/15 16/17/16 17/18/17
f 3/15/3 18/19/18 19/20/19 15/16/15
f 3/15/3 17/18/17 20/21/20 18/19/18
f 4/22/4 21/23/21 22/24/22 23/25/23
f 4/22/4 23/25/23 123/26/123 122/27/122
f 4/22/4 122/27/122 121/28/121 21/23/21
f 5/29/5 24/30/24 25/31/25 26/32/26
f 5/29/5 26/32/26 27/33/27 28/34/28
f 5/29/5 28/34/28 29/35/29 24/30/24
f 6/36/6 30/37/30 120/38/120 119/39/119
f 6/36/6 119/39/119 118/40/118 31/41/31
f 6/36/6 31/41/31 32/42/32 30/37/30
f 7/43/7 33/44/33 34/45/34 35/46/35
f 7/43/7 36/47/36 37/48/37 33/44/33
f 7/43/7 35/46/35 38/49/38 36/47/36
f 8/50/8 39/51/39 40/52/40 41/53/41
f 8/50/8 41/53/41 42/54/42 43/55/43
f 8/50/8 43/55/43 44/56/44 39/51/39
f 44/56/44 45/57/45 46/58/46 47/59/47
f 44/56/44 47/59/47 48/60/48 39/51/39
f 44/56/44 43/55/43 49/61/49 45/57/45
f 49/61/49 50/62/50 51/63/51 45/57/45
f 49/61/49 43/55/43 42/54/42 52/64/52
f 49/61/49 52/64/52 53/65/53 50/62/50
f 53/65/53 35/46/35 34/45/34 50/62/50
f 53/65/53 52/64/52 54/66/54 55/67/55
f 53/65/53 55/67/55 38/49/38 35/46/35
f 55/67/55 54/66/54 29/35/29 56/68/56
f 55/67/55 56/68/56 16/17/16 38/49/38
f 56/68/56 29/35/29 28/34/28 57/69/57
f 56/68/56 57/69/57 17/18/17 16/17/16
f 57/69/57 28/34/28 27/33/27 58/70/58
f 57/69/57 58/70/58 20/21/20 17/18/17
f 58/70/58 27/33/27 59/71/59 60/72/60
f 58/70/58 60/72/60 61/73/61 20/21/20
f 61/73/61 60/72/60 62/74/62 63/75/63
f 61/73/61 63/75/63 64/76/64 65/77/65
f 61/73/61 65/77/65 18/19/18 20/21/20
f 65/77/65 64/76/64 66/78/66 67/79/67
f 65/77/65 67/79/67 19/20/19 18/19/18
f 67/79/67 66/78/66 68/80/68 69/81/69
f 67/79/67 69/81/69 37/48/37 19/20/19
f 69/81/69 68/80/68 70/82/70 71/83/71
f 69/81/69 71/83/71 33/44/33 37/48/37
f 71/83/71 70/82/70 72/84/72 73/85/73
f 71/83/71 73/85/73 34/45/34 33/44/33
f 73/85/73 72/84/72 74/86/74 51/63/51
f 73/85/73 51/63/51 50/62/50 34/45/34
f 74/87/74 72/88/72 75/89/75 76/90/76
f 74/87/74 76/90/76 77/91/77 46/92/46
f 74/86/74 46/58/46 45/57/45 51/63/51
f 77/93/77 76/94/76 78/95/78 79/96/79
f 77/93/77 79/96/79 80/97/80 81/98/81
f 77/91/77 81/99/81 47/100/47 46/92/46
f 81/98/81 80/97/80 82/101/82 83/102/83
f 81/99/81 83/103/83 48/104/48 47/100/47
f 83/102/83 82/101/82 84/105/84 85/106/85
f 83/103/83 85/107/85 86/108/86 48/104/48
f 86/108/86 85/107/85 87/109/87 88/110/88
f 86/111/86 88/112/88 89/113/89 40/52/40
f 86/111/86 40/52/40 39/51/39 48/60/48
f 89/113/89 88/112/88 90/114/90 91/115/91
f 89/113/89 91/115/91 25/31/25 92/116/92
f 89/113/89 92/116/92 41/53/41 40/52/40
f 92/116/92 25/31/25 24/30/24 93/117/93
f 92/116/92 93/117/93 42/54/42 41/53/41
f 93/117/93 24/30/24 29/35/29 54/66/54
f 93/117/93 54/66/54 52/64/52 42/54/42
f 91/115/91 90/114/90 94/118/94 95/119/95
f 91/115/91 95/119/95 26/32/26 25/31/25
f 95/119/95 94/118/94 96/120/96 59/71/59
f 95/119/95 59/71/59 27/33/27 26/32/26
f 96/121/96 94/122/94 97/123/97 98/124/98
f 96/121/96 98/124/98 99/125/99 62/126/62
f 96/120/96 62/74/62 60/72/60 59/71/59
f 99/127/99 98/128/98 100/129/100 101/130/101
f 99/127/99 101/130/101 102/131/102 103/132/103
f 99/125/99 103/133/103 63/134/63 62/126/62
f 103/132/103 102/131/102 104/135/104 105/136/105
f 103/133/103 105/137/105 64/138/64 63/134/63
f 105/136/105 104/135/104 106/139/106 107/140/107
f 105/137/105 107/141/107 66/142/66 64/138/64
f 107/143/107 106/144/106 108/145/108 109/146/109
f 107/147/107 109/148/109 68/149/68 66/150/66
f 109/146/109 108/145/108 110/151/110 111/152/111
f 109/148/109 111/153/111 70/154/70 68/149/68
f 111/152/111 110/151/110 112/155/112 75/156/75
f 111/153/111 75/89/75 72/88/72 70/154/70
f 112/155/112 110/151/110 126/157/126 127/158/127
f 112/155/112 127/158/127 128/159/128 78/95/78
f 112/155/112 78/95/78 76/94/76 75/156/75
f 117/160/117 132/161/132 133/162/133 134/163/134
f 117/160/117 134/163/134 31/41/31 118/40/118
f 128/159/128 129/164/129 79/96/79 78/95/78
f 136/165/136 138/166/138 22/24/22 32/42/32
f 129/164/129 130/167/130 80/97/80 79/96/79
f 38/49/38 16/17/16 15/16/15 36/47/36
f 130/167/130 131/168/131 82/101/82 80/97/80
f 129/14/129 128/7/128 11/4/11 13/12/13
f 131/168/131 132/169/132 84/105/84 82/101/82
f 138/166/138 137/170/137 139/171/139 140/172/140
f 132/169/132 117/173/117 113/174/113 84/105/84
f 113/175/113 117/176/117 118/177/118 114/178/114
f 113/175/113 114/178/114 115/179/115 87/180/87
f 113/174/113 87/181/87 85/106/85 84/105/84
f 115/179/115 114/178/114 116/182/116 97/183/97
f 115/184/115 97/123/97 94/122/94 90/185/90
f 115/184/115 90/185/90 88/186/88 87/187/87
f 116/182/116 114/178/114 118/177/118 119/188/119
f 116/182/116 119/188/119 120/189/120 100/129/100
f 116/182/116 100/129/100 98/128/98 97/183/97
f 37/48/37 36/47/36 15/16/15 19/20/19
f 135/190/135 133/162/133 12/9/12 14/13/14
f 120/189/120 121/191/121 101/130/101 100/129/100
f 133/162/133 132/161/132 131/10/131 12/9/12
f 121/191/121 122/192/122 102/131/102 101/130/101
f 139/171/139 9/2/9 126/6/126 125/193/125
f 122/192/122 123/194/123 104/135/104 102/131/102
f 32/42/32 22/24/22 21/23/21 30/37/30
f 123/194/123 124/195/124 106/139/106 104/135/104
f 134/163/134 133/162/133 135/190/135 136/165/136
f 124/196/124 125/197/125 108/145/108 106/144/106
f 138/166/138 140/172/140 23/25/23 22/24/22
f 125/197/125 126/157/126 110/151/110 108/145/108
f 120/38/120 30/37/30 21/23/21 121/28/121
f 137/170/137 135/190/135 14/13/14 10/3/10
f 14/13/14 13/12/13 11/4/11 10/3/10
f 140/172/140 139/171/139 125/193/125 124/198/124
f 134/163/134 136/165/136 32/42/32 31/41/31
f 136/165/136 135/190/135 137/170/137 138/166/138
f 139/171/139 137/170/137 10/3/10 9/2/9
f 140/172/140 124/198/124 123/26/123 23/25/23

# 138 faces
