# Blender 5.1.0
# www.blender.org
mtllib tlo.mtl
o cube_NewUVs
v -2.867924 1.889605 0.298008
v 2.867925 1.889605 0.298008
v -2.867924 1.889605 -0.000000
v 2.867925 1.889605 -0.000000
v -2.867924 -1.889605 0.298008
v 2.867925 -1.889605 0.298008
v -2.867924 -1.889605 0.000000
v 2.867925 -1.889605 0.000000
v -1.455187 -1.889605 0.000000
v -1.455187 1.889605 0.298008
v -1.455187 1.889605 -0.000000
v -1.455187 -1.889605 0.298008
v 1.400268 -1.889605 0.000000
v 1.400268 1.889605 0.298008
v 1.400268 1.889605 -0.000000
v 1.400268 -1.889605 0.298008
v -2.867924 0.819004 0.298008
v -2.867924 0.819004 -0.000000
v 2.867925 0.819004 0.298008
v -1.444637 0.826212 0.298008
v 1.391598 0.817884 0.298091
v -2.867924 -0.886110 0.298008
v -2.867924 -0.886110 0.000000
v 2.867925 -0.886110 0.298008
v -1.444636 -0.870239 0.298008
v 1.389687 -0.870239 0.298008
v 1.364420 -1.889605 0.000000
v 1.364420 1.889605 0.298008
v 1.364420 1.889605 -0.000000
v 1.364420 -1.889605 0.298008
v 1.364390 -0.870239 0.298008
v 1.364420 0.819004 0.298008
v -2.867924 0.774218 0.298008
v -2.867924 0.774218 -0.000000
v 2.867925 0.774218 0.298008
v -1.444637 0.796847 0.298008
v 1.389687 0.790089 0.298008
v -1.419998 -1.889605 0.000000
v -1.419998 1.889605 0.298008
v -1.419998 1.889605 -0.000000
v -1.419998 -1.889605 0.298008
v -1.420028 -0.870239 0.298008
v -1.409448 0.826212 0.298008
v -2.867924 -0.845158 0.298008
v -2.867924 -0.845158 0.000000
v 2.867925 -0.845158 0.298008
v -1.444637 -0.847699 0.298008
v 1.389687 -0.829287 0.298008
v 3.247448 0.774218 0.298008
v 3.247448 0.774218 -0.000000
v 3.247448 -0.845158 0.000000
v 3.247448 -0.845158 0.298008
v 3.247448 0.819004 0.298008
v 3.247448 0.819004 -0.000000
v 3.247448 1.889605 0.298008
v 3.247448 1.889605 -0.000000
v 3.247448 -0.886110 0.000000
v 3.247448 -0.886110 0.298008
v 3.247448 -1.889605 0.000000
v 3.247448 -1.889605 0.298008
v -1.444637 0.826212 0.242753
v 1.398025 0.821870 0.242541
v 1.389687 -0.870239 0.242753
v -1.444636 -0.870239 0.242753
v 1.364390 -0.870239 0.242753
v 1.374970 0.826212 0.242753
v 1.364390 0.796847 0.242753
v -1.444637 0.796847 0.242753
v 1.394794 0.795145 0.244006
v -1.420028 -0.870239 0.242753
v -1.420028 0.796847 0.242753
v -1.409448 0.826212 0.242753
v -1.420028 -0.847699 0.242753
v -1.444637 -0.847699 0.242753
v 1.389687 -0.829287 0.242753
v 1.364390 -0.847699 0.242753
v -1.367833 0.744062 0.341805
v 1.315765 0.751228 0.338386
v 1.308398 -0.797780 0.328881
v -1.363402 -0.798672 0.346865
vn -0.0000 1.0000 -0.0000
vn -0.0000 -1.0000 -0.0000
vn -1.0000 -0.0000 -0.0000
vn -0.0000 -0.0000 1.0000
vn -0.0013 -0.0000 1.0000
vn -0.0000 -0.0011 1.0000
vn 1.0000 -0.0000 -0.0000
vn -0.1077 -0.9874 -0.1162
vn -0.0013 -0.9979 -0.0652
vn -0.9911 0.0910 -0.0968
vn -0.0161 0.0301 0.9994
vn -0.9989 0.0016 -0.0466
vn -0.0224 -0.0003 0.9997
vn 0.0040 -0.0014 1.0000
vn -0.8815 -0.0005 0.4722
vn -0.0009 0.8925 0.4511
vn 0.8667 -0.0035 0.4989
vn 0.0017 -0.8872 0.4614
vt 0.050030 0.596110
vt 0.251740 0.617180
vt 0.247620 0.661770
vt 0.024590 0.623800
vt 0.038200 0.030760
vt 0.254790 0.002430
vt 0.258410 0.045620
vt 0.064030 0.062130
vt 0.051390 0.197890
vt 0.008690 0.192390
vt 0.260340 0.198080
vt 0.256820 0.617610
vt 0.254040 0.661420
vt 0.261110 0.001950
vt 0.263430 0.045520
vt 0.264870 0.195910
vt 0.678620 0.620920
vt 0.890000 0.613330
vt 0.899910 0.656880
vt 0.679950 0.664550
vt 0.687850 0.005150
vt 0.913380 0.023950
vt 0.901800 0.064220
vt 0.685360 0.049120
vt 0.896670 0.209570
vt 0.679820 0.199890
vt 0.001950 0.449140
vt 0.047320 0.447470
vt 0.256780 0.460130
vt 0.263160 0.462900
vt 0.677490 0.461410
vt 0.892370 0.459030
vt 0.051490 0.203650
vt 0.007990 0.199620
vt 0.258760 0.202050
vt 0.896780 0.215480
vt 0.681850 0.207130
vt 0.673350 0.621130
vt 0.674210 0.664820
vt 0.681780 0.005190
vt 0.680050 0.048850
vt 0.675230 0.197700
vt 0.672520 0.463900
vt 0.002950 0.441790
vt 0.047160 0.441110
vt 0.255180 0.454960
vt 0.679010 0.456450
vt 0.892400 0.452510
vt 0.953130 0.216630
vt 0.997200 0.216270
vt 0.991970 0.456390
vt 0.948350 0.453560
vt 0.991480 0.463690
vt 0.948340 0.459790
vt 0.971800 0.626690
vt 0.937980 0.611000
vt 0.953180 0.210840
vt 0.998040 0.209740
vt 0.948870 0.074340
vt 0.981460 0.054430
vt 0.264630 0.202930
vt 0.266860 0.202940
vt 0.267590 0.205850
vt 0.264800 0.204820
vt 0.261560 0.452800
vt 0.261650 0.456090
vt 0.672040 0.456860
vt 0.673760 0.456550
vt 0.675490 0.209490
vt 0.675480 0.204600
vt 0.673270 0.204790
vt 0.672580 0.207700
vt 0.265070 0.455780
vt 0.264420 0.451960
vt 0.673070 0.454250
vt 0.669610 0.453100
vt 0.279990 0.220190
vt 0.660840 0.220230
vt 0.658570 0.439830
vt 0.276660 0.438040
s 0
usemtl defaultMat
f 1/1/1 10/2/1 11/3/1 3/4/1
f 7/5/2 9/6/2 12/7/2 5/8/2
f 7/5/3 5/8/3 22/9/3 23/10/3
f 5/8/4 12/7/4 25/11/4 22/9/4
f 10/2/1 39/12/1 40/13/1 11/3/1
f 9/6/2 38/14/2 41/15/2 12/7/2
f 12/7/4 41/15/4 42/16/4 25/11/4
f 14/17/1 2/18/1 4/19/1 15/20/1
f 13/21/2 8/22/2 6/23/2 16/24/2
f 16/24/4 6/23/4 24/25/4 26/26/4
f 18/27/3 17/28/3 1/1/3 3/4/3
f 17/28/4 20/29/4 10/2/4 1/1/4
f 20/29/4 43/30/4 39/12/4 10/2/4
f 21/31/4 19/32/4 2/18/4 14/17/4
f 23/10/3 22/9/3 44/33/3 45/34/3
f 22/9/4 25/11/4 47/35/4 44/33/4
f 26/26/4 24/25/4 46/36/4 48/37/4
f 28/38/1 14/17/1 15/20/1 29/39/1
f 27/40/2 13/21/2 16/24/2 30/41/2
f 30/41/4 16/24/4 26/26/4 31/42/4
f 32/43/5 21/31/5 14/17/5 28/38/5
f 34/44/3 33/45/3 17/28/3 18/27/3
f 33/45/4 36/46/4 20/29/4 17/28/4
f 37/47/6 35/48/6 19/32/6 21/31/6
f 39/12/1 28/38/1 29/39/1 40/13/1
f 38/14/2 27/40/2 30/41/2 41/15/2
f 41/15/4 30/41/4 31/42/4 42/16/4
f 43/30/4 32/43/4 28/38/4 39/12/4
f 45/34/3 44/33/3 33/45/3 34/44/3
f 44/33/4 47/35/4 36/46/4 33/45/4
f 48/37/4 46/36/4 35/48/4 37/47/4
f 52/49/7 51/50/7 50/51/7 49/52/7
f 35/48/4 46/36/4 52/49/4 49/52/4
f 49/52/7 50/51/7 54/53/7 53/54/7
f 19/32/4 35/48/4 49/52/4 53/54/4
f 53/54/7 54/53/7 56/55/7 55/56/7
f 2/18/4 19/32/4 53/54/4 55/56/4
f 4/19/1 2/18/1 55/56/1 56/55/1
f 58/57/7 57/58/7 51/50/7 52/49/7
f 46/36/4 24/25/4 58/57/4 52/49/4
f 60/59/7 59/60/7 57/58/7 58/57/7
f 24/25/4 6/23/4 60/59/4 58/57/4
f 6/23/2 8/22/2 59/60/2 60/59/2
f 64/61/4 70/62/4 73/63/4 74/64/4
f 20/29/7 36/46/7 68/65/7 61/66/7
f 21/31/8 32/43/8 66/67/8 62/68/8
f 26/26/3 48/37/3 75/69/3 63/70/3
f 25/11/1 42/16/1 70/62/1 64/61/1
f 65/71/4 63/70/4 75/69/4 76/72/4
f 32/43/9 43/30/9 72/73/9 66/67/9
f 31/42/1 26/26/1 63/70/1 65/71/1
f 68/65/4 71/74/4 72/73/4 61/66/4
f 36/46/7 47/35/7 74/64/7 68/65/7
f 37/47/10 21/31/10 62/68/10 69/75/10
f 67/76/11 69/75/11 62/68/11 66/67/11
f 70/62/4 65/71/4 76/72/4 73/63/4
f 42/16/1 31/42/1 65/71/1 70/62/1
f 43/30/2 20/29/2 61/66/2 72/73/2
f 71/74/4 67/76/4 66/67/4 72/73/4
f 74/64/4 73/63/4 71/74/4 68/65/4
f 48/37/12 37/47/12 69/75/12 75/69/12
f 76/72/13 75/69/13 69/75/13 67/76/13
f 47/35/7 25/11/7 64/61/7 74/64/7
f 80/77/14 79/78/14 78/79/14 77/80/14
f 71/74/15 73/63/15 80/77/15 77/80/15
f 67/76/16 71/74/16 77/80/16 78/79/16
f 76/72/17 67/76/17 78/79/17 79/78/17
f 73/63/18 76/72/18 79/78/18 80/77/18
