# File exported by ZBrush version 2024
# www.zbrush.com
#Vertex Count 828
#UV Vertex Count 941
#Face Count 659
#Auto scale x=1.000000 y=1.000000 z=1.000000
#Auto offset x=-0.000000 y=-0.000000 z=-0.000000
mtllib box_b.mtl
usemtl defaultMat
v -2.41447615 0.18769599 -4.46073103
v 2.11576771 0.18769599 -4.46073103
v -2.41447615 0.18769599 -4.67272806
v 2.11576771 0.18769599 -4.67272806
v -2.41447615 0.01013198 -4.46073103
v 2.11576771 0.01013198 -4.46073103
v -2.41447615 0.01013198 -4.67272806
v 2.11576771 0.01013198 -4.67272806
v -2.42954754 -1.48626494 -4.46073103
v 2.14373517 -1.48626494 -4.46073103
v -2.42954754 -1.48626494 -4.67272806
v 2.14373517 -1.48626494 -4.67272806
v -2.42954754 -1.66382801 -4.46073103
v 2.14373517 -1.66382801 -4.46073103
v -2.42954754 -1.66382801 -4.67272806
v 2.14373517 -1.66382801 -4.67272806
v -2.1070609 0.01013198 -4.67272806
v -2.1070609 0.18769599 -4.67272806
v -2.1070609 0.01013198 -4.46073103
v -2.1070609 0.18769599 -4.46073103
v -2.3192861 0.01013198 -4.46073103
v -2.3192861 0.18769599 -4.46073103
v -2.3192861 0.18769599 -4.67272806
v -2.3192861 0.01013198 -4.67272806
v 2.05076503 0.01013198 -4.67272806
v 2.05076503 0.18769599 -4.67272806
v 2.05076503 0.01013198 -4.46073103
v 2.05076503 0.18769599 -4.46073103
v 1.83965003 0.01013198 -4.46073103
v 1.83965003 0.18769599 -4.46073103
v 1.83965003 0.18769599 -4.67272806
v 1.83965003 0.01013198 -4.67272806
v -2.41454815 0.18769599 -2.14231991
v 2.13377928 0.18769599 -2.14231991
v -2.41454815 0.18769599 -1.93032407
v 2.13377928 0.18769599 -1.93032395
v -2.41454815 0.01013198 -2.14231991
v 2.13377928 0.01013198 -2.14231991
v -2.41454815 0.01013198 -1.93032407
v 2.13377928 0.01013198 -1.93032395
v -2.40575337 -1.48626494 -2.14231991
v 2.12492013 -1.48626494 -2.14231991
v -2.40575337 -1.48626494 -1.93032395
v 2.12492013 -1.48626494 -1.93032395
v -2.40575337 -1.66382801 -2.14231991
v 2.12492013 -1.66382801 -2.14231991
v -2.40575337 -1.66382801 -1.93032395
v 2.12492013 -1.66382801 -1.93032395
v -2.31858992 0.18769599 -1.93032395
v -2.31858992 0.01013198 -1.93032395
v -2.31858992 0.18769599 -2.14231991
v -2.31858992 0.01013198 -2.14231991
v -2.10805892 0.18769599 -1.93032395
v -2.10805892 0.01013198 -1.93032395
v -2.10805892 0.18769599 -2.14231991
v -2.10805892 0.01013198 -2.14231991
v -2.1346929 -1.04740798 -2.19872689
v 1.85385298 -1.04740798 -2.19872689
v -2.1346929 -1.04740798 -1.99787795
v 1.85385298 -1.04740798 -1.99787795
v -2.1346929 -1.13224899 -2.19872689
v 1.85385298 -1.13224899 -2.19872689
v -2.1346929 -1.13224899 -1.99787795
v 1.85385298 -1.13224899 -1.99787795
v -2.1346929 -1.04740798 -4.35342598
v 1.85385298 -1.04740798 -4.35342598
v -2.1346929 -1.04740798 -4.55427503
v 1.85385298 -1.04740798 -4.55427503
v -2.1346929 -1.13224899 -4.35342598
v 1.85385298 -1.13224899 -4.35342598
v -2.1346929 -1.13224899 -4.55427503
v 1.85385298 -1.13224899 -4.55427503
v 1.81751394 -1.04740798 -2.04507708
v 1.81751501 -1.04740798 -4.452775
v 2.0183649 -1.04740798 -2.04507708
v 2.0183649 -1.04740798 -4.45277595
v 1.81751394 -1.13224899 -2.04507708
v 1.81751501 -1.13224899 -4.452775
v 2.0183649 -1.13224899 -2.04507708
v 2.0183649 -1.13224899 -4.45277595
v -2.0983541 -1.04740798 -2.04507708
v -2.09835505 -1.04740798 -4.452775
v -2.29920506 -1.04740798 -2.04507708
v -2.29920506 -1.04740798 -4.45277595
v -2.0983541 -1.13224899 -2.04507708
v -2.09835505 -1.13224899 -4.452775
v -2.29920506 -1.13224899 -2.04507708
v -2.29920506 -1.13224899 -4.45277595
v 1.839468 0.18769599 -4.75071477
v 1.83946895 0.18769599 -1.83855605
v 2.05146503 0.18769599 -4.75071477
v 2.05146503 0.18769599 -1.83855605
v 1.839468 0.01013198 -4.75071477
v 1.83946895 0.01013198 -1.83855605
v 2.05146503 0.01013198 -4.75071477
v 2.05146503 0.01013198 -1.83855605
v 1.839468 -1.48626494 -4.75071477
v 1.83946895 -1.48626494 -1.83855605
v 2.05146503 -1.48626494 -4.75071477
v 2.05146503 -1.48626494 -1.83855605
v 1.839468 -1.66382801 -4.75071477
v 1.83946895 -1.66382801 -1.83855605
v 2.05146503 -1.66382801 -4.75071477
v 2.05146503 -1.66382801 -1.83855605
v -2.10798502 0.18769599 -4.75071382
v -2.10798597 0.18769599 -1.838557
v -2.319983 0.18769599 -4.75071382
v -2.319983 0.18769599 -1.838557
v -2.10798502 0.01013198 -4.75071382
v -2.10798597 0.01013198 -1.838557
v -2.319983 0.01013198 -4.75071382
v -2.319983 0.01013198 -1.838557
v 2.05146503 -1.66382801 -1.92983996
v 2.05146503 -1.48626494 -1.92983996
v 1.83946895 -1.66382801 -1.92983996
v 1.83946895 -1.48626494 -1.92983996
v 1.83946895 -1.66382801 -2.14198994
v 1.83946895 -1.48626494 -2.14198994
v 2.05146503 -1.48626494 -2.14198994
v 2.05146503 -1.66382801 -2.14198994
v 1.839468 -1.66382801 -4.6724739
v 1.839468 -1.48626494 -4.6724739
v 2.05146503 -1.48626494 -4.6724739
v 2.05146503 -1.66382801 -4.6724739
v 2.05146503 -1.66382801 -4.46065712
v 2.05146503 -1.48626494 -4.46065712
v 1.839468 -1.66382801 -4.46065712
v 1.839468 -1.48626494 -4.46065712
v 2.05146503 0.01013198 -1.93021404
v 2.05146503 0.18769599 -1.93021404
v 1.83946895 0.01013198 -1.93021404
v 1.83946895 0.18769599 -1.93021404
v 1.83946895 0.01013198 -2.14317393
v 1.83946895 0.18769599 -2.14317393
v 2.05146503 0.18769599 -2.14317393
v 2.05146503 0.01013198 -2.14317393
v -2.10798502 -1.48626494 -4.75071382
v -2.10798597 -1.48626494 -1.838557
v -2.319983 -1.48626494 -4.75071382
v -2.319983 -1.48626494 -1.838557
v -2.10798502 -1.66382801 -4.75071382
v -2.10798597 -1.66382801 -1.838557
v -2.319983 -1.66382801 -4.75071382
v -2.319983 -1.66382801 -1.838557
v 2.03940892 0.07222899 -4.37771892
v 2.03940892 -1.77077198 -4.37771892
v 2.03940892 0.07222899 -4.57118701
v 2.03940892 -1.77077198 -4.57118701
v 1.84211695 0.07222899 -4.37771892
v 1.84211599 -1.77077102 -4.37771892
v 1.84211695 0.07222899 -4.57118701
v 1.84211599 -1.77077102 -4.57118701
v -2.32024908 0.07222899 -4.37771892
v -2.32024908 -1.77077198 -4.37771892
v -2.32024908 0.07222899 -4.57118701
v -2.32024908 -1.77077198 -4.57118701
v -2.12295699 0.07222899 -4.37771892
v -2.12295603 -1.77077102 -4.37771892
v -2.12295699 0.07222899 -4.57118701
v -2.12295603 -1.77077102 -4.57118701
v -2.319983 -1.48626494 -1.92961394
v -2.319983 -1.66382801 -1.92961394
v -2.10798597 -1.48626494 -1.92961394
v -2.10798597 -1.66382801 -1.92961394
v -2.10798597 -1.48626494 -2.18105101
v -2.10798597 -1.66382801 -2.18105101
v -2.319983 -1.48626494 -2.18105101
v -2.319983 -1.66382801 -2.18105101
v 1.84211599 -1.49093496 -4.57118701
v 2.03940892 -1.49093604 -4.57118701
v 1.84211599 -1.49093496 -4.37771892
v 2.03940892 -1.49093604 -4.37771892
v 1.84211599 -1.66605103 -4.57118701
v 2.03940892 -1.66605198 -4.57118701
v 1.84211599 -1.66605103 -4.37771892
v 2.03940892 -1.66605198 -4.37771892
v -2.10798502 -1.48626494 -4.37795686
v -2.10798502 -1.66382801 -4.37795686
v -2.319983 -1.48626494 -4.37795686
v -2.319983 -1.66382801 -4.37795686
v -2.10798502 -1.48626494 -4.67329978
v -2.10798502 -1.66382801 -4.67329978
v -2.319983 -1.48626494 -4.67329978
v -2.319983 -1.66382801 -4.67329978
v 2.03940892 0.07222899 -2.18200492
v 2.03940892 -1.77077198 -2.18200492
v 2.03940892 0.07222899 -1.98853695
v 2.03940892 -1.77077198 -1.98853695
v 1.84211695 0.07222899 -2.18200492
v 1.84211599 -1.77077102 -2.18200492
v 1.84211695 0.07222899 -1.98853695
v 1.84211599 -1.77077102 -1.98853695
v -2.32024908 0.07222899 -2.18200492
v -2.32024908 -1.77077198 -2.18200492
v -2.32024908 0.07222899 -1.98853695
v -2.32024908 -1.77077198 -1.98853695
v -2.12295699 0.07222899 -2.18200492
v -2.12295603 -1.77077102 -2.18200492
v -2.12295699 0.07222899 -1.98853695
v -2.12295603 -1.77077102 -1.98853695
v 1.18918204 0.02630901 -4.37771892
v 1.18918204 -1.56555497 -4.37771892
v 1.18918204 0.02630901 -4.57118701
v 1.18918204 -1.56555497 -4.57118701
v 1.08168101 0.02630901 -4.37771892
v 1.08168005 -1.56555402 -4.37771892
v 1.08168101 0.02630901 -4.57118701
v 1.08168005 -1.56555402 -4.57118701
v 1.18918204 0.02630901 -2.18200397
v 1.18918204 -1.56555497 -2.18200397
v 1.18918204 0.02630901 -1.98853695
v 1.18918204 -1.56555497 -1.98853695
v 1.08168101 0.02630901 -2.18200397
v 1.08168005 -1.56555402 -2.18200397
v 1.08168101 0.02630901 -1.98853695
v 1.08168005 -1.56555402 -1.98853695
v -1.47002196 0.02630901 -4.37771892
v -1.47002196 -1.56555497 -4.37771892
v -1.47002196 0.02630901 -4.57118701
v -1.47002196 -1.56555497 -4.57118701
v -1.36252105 0.02630901 -4.37771892
v -1.36251997 -1.56555402 -4.37771892
v -1.36252105 0.02630901 -4.57118701
v -1.36251997 -1.56555402 -4.57118701
v -1.47002196 0.02630901 -2.18200397
v -1.47002196 -1.56555497 -2.18200397
v -1.47002196 0.02630901 -1.98853695
v -1.47002196 -1.56555497 -1.98853695
v -1.36252105 0.02630901 -2.18200397
v -1.36251997 -1.56555402 -2.18200397
v -1.36252105 0.02630901 -1.98853695
v -1.36251997 -1.56555402 -1.98853695
v -2.25403904 0.26236671 -2.04183006
v 1.97319901 0.26236671 -2.04183006
v -2.25403904 0.26236671 -4.50860023
v 1.97319901 0.26236671 -4.50860023
v -2.25403904 -1.62351727 -2.04183006
v 1.97319901 -1.62351727 -2.04183006
v -2.25403904 -1.62351727 -4.50860023
v 1.97319901 -1.62351727 -4.50860023
v -0.976462 0.14318099 -4.66253185
v -0.976462 0.174557 -4.6640129
v -0.976462 0.158397 -4.66482591
v -0.97646099 0.134543 -4.64652395
v -0.976462 0.15808798 -4.64589119
v -0.976462 0.183678 -4.6502819
v -0.86248397 0.165399 -4.64758014
v -0.86254698 0.170687 -4.62580299
v -0.86285197 0.17917898 -4.59909009
v -0.86479401 0.108813 -4.61227893
v -0.86442202 0.10558398 -4.65027999
v -0.86392897 0.121939 -4.68351984
v -0.86398297 0.155073 -4.70145607
v -0.86878597 0.09912698 -4.65223217
v -0.86771601 0.11715999 -4.68889522
v -0.86802798 0.15444199 -4.70821094
v -0.86745399 0.19558599 -4.70251417
v -0.86364197 0.19244599 -4.69625282
v -0.87557697 0.11417999 -4.69237995
v -0.87587797 0.15412199 -4.71216678
v -0.87512499 0.198108 -4.70593786
v -0.87466698 0.22511999 -4.67815399
v -0.86662799 0.222404 -4.6753149
v -0.88642698 0.154697 -4.71288776
v -0.88662999 0.198925 -4.70644903
v -0.88650798 0.22521798 -4.68008899
v -0.88739699 0.23246498 -4.64251804
v -0.87624001 0.23242299 -4.64009714
v -0.88873201 0.23375998 -4.60100603
v -0.95494997 0.232846 -4.64248323
v -0.95458501 0.233769 -4.60125398
v -0.96539002 0.233622 -4.60093116
v -0.974487 0.23186199 -4.60054493
v -0.97646099 0.196672 -4.60028696
v -0.976462 0.171873 -4.59930181
v -0.97645402 0.14840899 -4.59182691
v -0.96691197 0.11759299 -4.58199214
v -0.95940798 0.11554198 -4.58231306
v -0.95076197 0.114564 -4.5833621
v -0.88810402 0.11573 -4.58218908
v -0.87946301 0.11655098 -4.58138608
v -0.871854 0.118807 -4.58127689
v -0.86595797 0.12351398 -4.58265399
v -0.86521297 0.227751 -4.59974193
v -0.86900901 0.23342098 -4.60009384
v -0.87807297 0.233731 -4.60051107
v -0.86698502 0.23129299 -4.63748979
v -0.86408597 0.225222 -4.63551187
v -0.86350697 0.21634599 -4.67065906
v -0.86978399 0.10268899 -4.61172199
v -0.87727397 0.09933698 -4.61226511
v -0.875678 0.095885 -4.65411186
v -0.88647902 0.09813199 -4.61385297
v -0.885495 0.094889 -4.65539789
v -0.88582497 0.11406499 -4.69322109
v -0.95457601 0.154649 -4.71346712
v -0.95506697 0.19799199 -4.70698404
v -0.95511901 0.225381 -4.6803441
v -0.96571302 0.19685399 -4.70619106
v -0.96664202 0.224938 -4.67799997
v -0.96601301 0.232405 -4.63975191
v -0.97412097 0.220935 -4.67418718
v -0.97466898 0.229633 -4.63749885
v -0.976462 0.191639 -4.6305232
v -0.976462 0.16065199 -4.62551689
v -0.97645902 0.13509699 -4.61756706
v -0.97075897 0.096202 -4.65511703
v -0.96895402 0.098607 -4.61303615
v -0.96285897 0.093345 -4.65656614
v -0.96134299 0.09633199 -4.61379909
v -0.95257502 0.09324999 -4.65723609
v -0.95172399 0.09589499 -4.61565017
v -0.95365798 0.114587 -4.69468498
v -0.963795 0.11494401 -4.69468307
v -0.96482801 0.15429 -4.71293401
v -0.97193902 0.11713998 -4.69181919
v -0.97215402 0.15437698 -4.70957088
v -0.97283297 0.194405 -4.70216178
v 1.03236997 0.12512199 -4.57992887
v 1.08424103 0.127616 -4.57673502
v 1.09242796 0.11762999 -4.58010911
v 1.01780796 0.10848799 -4.58793592
v 1.00260198 0.14176799 -4.65119886
v 1.00239098 0.189116 -4.66580581
v 1.00610899 0.177255 -4.6220889
v 1.11546599 0.18731899 -4.66195821
v 1.11396098 0.17096698 -4.61489009
v 1.11565005 0.15027199 -4.661664
v 1.03417098 0.135422 -4.58057785
v 1.02059698 0.118412 -4.58204889
v 1.03530299 0.11259298 -4.58402109
v 1.02379596 0.11044298 -4.58594608
v 1.09603405 0.14183999 -4.57778406
v 1.08199799 0.13670699 -4.57555484
v 1.09745001 0.12192498 -4.57867002
v 1.08308005 0.117816 -4.58011007
v 1.09826195 0.136113 -4.57971715
v 1.103989 0.127663 -4.58167505
v 1.01369798 0.11201299 -4.5852518
v 1.002128 0.130483 -4.66227912
v 1.00217998 0.15110799 -4.67592001
v 1.00278997 0.15663698 -4.65470981
v 1.00373101 0.13668599 -4.63260316
v 1.00233399 0.12195 -4.63560104
v 1.00681698 0.152646 -4.63074398
v 1.00282502 0.19571298 -4.65084123
v 1.00297296 0.17776499 -4.65156221
v 1.00230395 0.175252 -4.67361021
v 1.11344397 0.109448 -4.60179185
v 1.00409603 0.12072099 -4.61157083
v 1.00755596 0.11963699 -4.59559011
v 1.00345397 0.20186798 -4.62680482
v 1.003376 0.20491799 -4.59383106
v 1.00531899 0.186168 -4.59067821
v 1.11558294 0.17092998 -4.66604089
v 1.11551594 0.17134499 -4.64460897
v 1.11537396 0.192901 -4.64601993
v 1.11456203 0.143435 -4.62261581
v 1.11118805 0.142405 -4.60202789
v 1.10856795 0.15712599 -4.59337186
v 1.10703194 0.16516998 -4.57881021
v 1.11270403 0.18219399 -4.58537006
v 1.11559701 0.14405399 -4.64550399
v 1.11402201 0.201315 -4.58966922
v 1.11480903 0.19731098 -4.61978197
v 1.11370396 0.10527098 -4.66260814
v 1.11416494 0.10303299 -4.62592697
v 1.10979497 0.09970598 -4.66792678
v 1.10874497 0.096568 -4.62777805
v 1.10682499 0.10440099 -4.60127782
v 1.09978401 0.09515699 -4.63092517
v 1.09772896 0.10212399 -4.60230302
v 1.087834 0.09447699 -4.63433218
v 1.08523702 0.10086399 -4.6046338
v 1.03771805 0.09760998 -4.61061906
v 1.02346396 0.09694699 -4.61081886
v 1.02207601 0.09184198 -4.64106321
v 1.01297795 0.09144899 -4.64072084
v 1.01433599 0.09659299 -4.61093902
v 1.03710794 0.09259501 -4.64052915
v 1.03612995 0.10275501 -4.68041276
v 1.02052104 0.102697 -4.68112087
v 1.03554403 0.134846 -4.70790386
v 1.08870303 0.10061699 -4.67417001
v 1.08896505 0.129887 -4.70488214
v 1.088804 0.175492 -4.71368694
v 1.10111403 0.09931998 -4.67081594
v 1.10160994 0.12833699 -4.70357799
v 1.10179603 0.174722 -4.71325302
v 1.10076797 0.213668 -4.6965599
v 1.08777797 0.21247099 -4.69815015
v 1.11042702 0.12820698 -4.70133113
v 1.11032795 0.174161 -4.71154403
v 1.109151 0.21369999 -4.69454908
v 1.10726201 0.231111 -4.66107082
v 1.09849894 0.231166 -4.66432905
v 1.11469996 0.17328998 -4.70412921
v 1.11389303 0.209643 -4.687644
v 1.11259901 0.22577798 -4.65716314
v 1.112208 0.22805598 -4.62453985
v 1.10561096 0.23274299 -4.62599802
v 1.11164605 0.228789 -4.59256887
v 1.10485899 0.233098 -4.59321498
v 1.09581303 0.23386 -4.59382009
v 1.09658002 0.23302598 -4.62772321
v 1.085186 0.23390999 -4.59452819
v 1.08585202 0.23297299 -4.63024091
v 1.08657097 0.23009699 -4.66805887
v 1.03604102 0.22938999 -4.67031383
v 1.03555202 0.212539 -4.69840383
v 1.03535604 0.17778298 -4.71345281
v 1.01912605 0.21447299 -4.696702
v 1.01932704 0.17941798 -4.71345996
v 1.01948499 0.13591 -4.70865011
v 1.00982999 0.17965899 -4.71298599
v 1.01036298 0.136142 -4.70866489
v 1.01100099 0.10277301 -4.680583
v 1.00350499 0.13861499 -4.70322799
v 1.00441503 0.10661399 -4.6778202
v 1.00507795 0.09458699 -4.64003419
v 1.00626802 0.097204 -4.61067009
v 1.00394499 0.179233 -4.7065978
v 1.00285196 0.210776 -4.68946123
v 1.00936198 0.21462999 -4.69454622
v 1.01048898 0.23059198 -4.6640501
v 1.00360596 0.22670699 -4.66152715
v 1.02034997 0.230725 -4.66761207
v 1.02265095 0.23315398 -4.63148593
v 1.01276195 0.23323698 -4.62994194
v 1.03634595 0.232948 -4.632761
v 1.03675997 0.23386198 -4.59596777
v 1.023795 0.233893 -4.59594202
v 1.01417696 0.233813 -4.59580183
v 1.00616502 0.23127399 -4.59552478
v 1.00533103 0.230149 -4.62896585
v 1.01083803 0.16253398 -4.58532095
v 1.01416695 0.148007 -4.5801959
v 1.01677298 0.14492699 -4.58835506
v 1.01297903 0.15687598 -4.60050106
v 1.01544702 0.137785 -4.59240388
v 1.01225805 0.14443099 -4.60753297
v 1.01130604 0.128238 -4.59443092
v 1.00778305 0.131896 -4.60989284
v 1.11442399 0.13114799 -4.69420003
v -1.31321001 0.12512199 -4.57992887
v -1.36508095 0.127616 -4.57673502
v -1.373268 0.11762999 -4.58010911
v -1.298648 0.10848799 -4.58793592
v -1.28344094 0.14176799 -4.65119886
v -1.28323102 0.189116 -4.66580581
v -1.28694903 0.177255 -4.6220889
v -1.39630603 0.18731899 -4.66195821
v -1.39480102 0.17096698 -4.61489009
v -1.39648997 0.15027199 -4.661664
v -1.31500995 0.135422 -4.58057785
v -1.30143702 0.118412 -4.58204889
v -1.31614303 0.11259298 -4.58402109
v -1.304636 0.11044298 -4.58594608
v -1.37687397 0.14183999 -4.57778406
v -1.36283803 0.13670699 -4.57555484
v -1.37829005 0.12192498 -4.57867002
v -1.36391997 0.117816 -4.58011007
v -1.37910199 0.136113 -4.57971715
v -1.38482904 0.127663 -4.58167505
v -1.29453802 0.11201299 -4.5852518
v -1.28296804 0.130483 -4.66227912
v -1.28302002 0.15110799 -4.67592001
v -1.28363001 0.15663698 -4.65470981
v -1.28457105 0.13668599 -4.63260316
v -1.28317403 0.12195 -4.63560104
v -1.28765702 0.152646 -4.63074398
v -1.28366494 0.19571298 -4.65084123
v -1.283813 0.17776499 -4.65156221
v -1.28314399 0.175252 -4.67361021
v -1.39428401 0.109448 -4.60179185
v -1.28493595 0.12072099 -4.61157083
v -1.288396 0.11963699 -4.59559011
v -1.284294 0.20186798 -4.62680482
v -1.28421604 0.20491799 -4.59383106
v -1.28615903 0.186168 -4.59067821
v -1.39642298 0.17092998 -4.66604089
v -1.39635598 0.17134499 -4.64460897
v -1.396214 0.192901 -4.64601993
v -1.39540195 0.143435 -4.62261581
v -1.39202797 0.142405 -4.60202789
v -1.38940799 0.15712599 -4.59337186
v -1.38787198 0.16516998 -4.57881021
v -1.39354395 0.18219399 -4.58537006
v -1.39643704 0.14405399 -4.64550399
v -1.39486205 0.201315 -4.58966922
v -1.39564895 0.19731098 -4.61978197
v -1.394544 0.10527098 -4.66260814
v -1.39500498 0.10303299 -4.62592697
v -1.39063501 0.09970598 -4.66792678
v -1.38958501 0.096568 -4.62777805
v -1.38766503 0.10440099 -4.60127782
v -1.38062405 0.09515699 -4.63092517
v -1.378569 0.10212399 -4.60230302
v -1.36867404 0.09447699 -4.63433218
v -1.36607694 0.10086399 -4.6046338
v -1.31855797 0.09760998 -4.61061906
v -1.304304 0.09694699 -4.61081886
v -1.30291605 0.09184198 -4.64106321
v -1.29381799 0.09144899 -4.64072084
v -1.29517698 0.09659299 -4.61093902
v -1.31794798 0.09259501 -4.64052915
v -1.31696999 0.10275501 -4.68041276
v -1.30136096 0.102697 -4.68112087
v -1.31638395 0.134846 -4.70790386
v -1.36954295 0.10061699 -4.67417001
v -1.36980497 0.129887 -4.70488214
v -1.36964404 0.175492 -4.71368694
v -1.38195395 0.09931998 -4.67081594
v -1.38244998 0.12833699 -4.70357799
v -1.38263595 0.174722 -4.71325302
v -1.381608 0.213668 -4.6965599
v -1.36861801 0.21247099 -4.69815015
v -1.39126694 0.12820698 -4.70133113
v -1.39116799 0.174161 -4.71154403
v -1.38999104 0.21369999 -4.69454908
v -1.38810205 0.231111 -4.66107082
v -1.37933898 0.231166 -4.66432905
v -1.39553999 0.17328998 -4.70412921
v -1.39473199 0.209643 -4.687644
v -1.39343905 0.22577798 -4.65716314
v -1.39304804 0.22805598 -4.62453985
v -1.386451 0.23274299 -4.62599802
v -1.39248597 0.228789 -4.59256887
v -1.38569903 0.233098 -4.59321498
v -1.37665295 0.23386 -4.59382009
v -1.37741994 0.23302598 -4.62772321
v -1.36602604 0.23390999 -4.59452819
v -1.36669194 0.23297299 -4.63024091
v -1.36741101 0.23009699 -4.66805887
v -1.31688094 0.22938999 -4.67031383
v -1.31639194 0.212539 -4.69840383
v -1.31619501 0.17778298 -4.71345281
v -1.29996597 0.21447299 -4.696702
v -1.30016696 0.17941798 -4.71345996
v -1.30032503 0.13591 -4.70865011
v -1.29067003 0.17965899 -4.71298599
v -1.29120302 0.136142 -4.70866489
v -1.29184103 0.10277301 -4.680583
v -1.28434503 0.13861499 -4.70322799
v -1.28525495 0.10661399 -4.6778202
v -1.28591799 0.09458699 -4.64003419
v -1.28710794 0.097204 -4.61067009
v -1.28478503 0.179233 -4.7065978
v -1.283692 0.210776 -4.68946123
v -1.29020202 0.21462999 -4.69454622
v -1.29132902 0.23059198 -4.6640501
v -1.284446 0.22670699 -4.66152715
v -1.30119001 0.230725 -4.66761207
v -1.30349099 0.23315398 -4.63148593
v -1.29360199 0.23323698 -4.62994194
v -1.31718599 0.232948 -4.632761
v -1.31760001 0.23386198 -4.59596777
v -1.30463504 0.233893 -4.59594202
v -1.295017 0.233813 -4.59580183
v -1.28700399 0.23127399 -4.59552478
v -1.28617095 0.230149 -4.62896585
v -1.29167795 0.16253398 -4.58532095
v -1.29500699 0.148007 -4.5801959
v -1.29761302 0.14492699 -4.58835506
v -1.29381895 0.15687598 -4.60050106
v -1.29628694 0.137785 -4.59240388
v -1.29309797 0.14443099 -4.60753297
v -1.29214596 0.128238 -4.59443092
v -1.28862297 0.131896 -4.60989284
v -1.39526403 0.13114799 -4.69420003
v 0.69562202 0.14318099 -4.66253185
v 0.69562202 0.174557 -4.6640129
v 0.69562202 0.158397 -4.66482591
v 0.69562101 0.134543 -4.64652395
v 0.69562202 0.15808798 -4.64589119
v 0.69562202 0.183678 -4.6502819
v 0.58164399 0.165399 -4.64758014
v 0.58170801 0.170687 -4.62580299
v 0.58201199 0.17917898 -4.59909009
v 0.58395397 0.108813 -4.61227893
v 0.58358198 0.10558398 -4.65027999
v 0.58308899 0.121939 -4.68351984
v 0.58314299 0.155073 -4.70145607
v 0.58794599 0.09912698 -4.65223217
v 0.58687597 0.11715999 -4.68889522
v 0.587188 0.15444199 -4.70821094
v 0.58661401 0.19558599 -4.70251417
v 0.58280199 0.19244599 -4.69625282
v 0.59473699 0.11417999 -4.69237995
v 0.59503799 0.15412199 -4.71216678
v 0.59428501 0.198108 -4.70593786
v 0.593827 0.22511999 -4.67815399
v 0.58578801 0.222404 -4.6753149
v 0.605587 0.154697 -4.71288776
v 0.60579001 0.198925 -4.70644903
v 0.605668 0.22521798 -4.68008899
v 0.60655701 0.23246498 -4.64251804
v 0.59539997 0.23242299 -4.64009714
v 0.60789197 0.23375998 -4.60100603
v 0.67410999 0.232846 -4.64248323
v 0.67374497 0.233769 -4.60125398
v 0.68454998 0.233622 -4.60093116
v 0.69364702 0.23186199 -4.60054493
v 0.69562101 0.196672 -4.60028696
v 0.69562202 0.171873 -4.59930181
v 0.69561499 0.14840899 -4.59182691
v 0.68607199 0.11759299 -4.58199214
v 0.678568 0.11554198 -4.58231306
v 0.66992199 0.114564 -4.5833621
v 0.60726398 0.11573 -4.58218908
v 0.59862297 0.11655098 -4.58138608
v 0.59101402 0.118807 -4.58127689
v 0.58511799 0.12351398 -4.58265399
v 0.58437299 0.227751 -4.59974193
v 0.58816897 0.23342098 -4.60009384
v 0.59723299 0.233731 -4.60051107
v 0.58614498 0.23129299 -4.63748979
v 0.58324599 0.225222 -4.63551187
v 0.58266699 0.21634599 -4.67065906
v 0.58894401 0.10268899 -4.61172199
v 0.59643399 0.09933698 -4.61226511
v 0.59483802 0.095885 -4.65411186
v 0.60563898 0.09813199 -4.61385297
v 0.60465502 0.094889 -4.65539789
v 0.60498499 0.11406499 -4.69322109
v 0.67373597 0.154649 -4.71346712
v 0.67422699 0.19799199 -4.70698404
v 0.67427897 0.225381 -4.6803441
v 0.68487298 0.19685399 -4.70619106
v 0.68580198 0.224938 -4.67799997
v 0.68517297 0.232405 -4.63975191
v 0.69328099 0.220935 -4.67418718
v 0.693829 0.229633 -4.63749885
v 0.69562202 0.191639 -4.6305232
v 0.69562202 0.16065199 -4.62551689
v 0.69561898 0.13509699 -4.61756706
v 0.68991899 0.096202 -4.65511703
v 0.68811398 0.098607 -4.61303615
v 0.68201899 0.093345 -4.65656614
v 0.68050301 0.09633199 -4.61379909
v 0.67173498 0.09324999 -4.65723609
v 0.67088401 0.09589499 -4.61565017
v 0.672818 0.114587 -4.69468498
v 0.68295502 0.11494401 -4.69468307
v 0.68398797 0.15429 -4.71293401
v 0.69109898 0.11713998 -4.69181919
v 0.69131398 0.15437698 -4.70957088
v 0.69199299 0.194405 -4.70216178
v -1.28036999 0.11437 -4.64923095
v -0.97974097 0.135187 -4.69715213
v -0.97974401 0.11108899 -4.66668319
v -1.28037202 0.132033 -4.63712883
v -1.28037405 0.13796299 -4.65248489
v -1.28037297 0.11256501 -4.66238403
v -1.28031396 0.10394699 -4.64468622
v -1.28033804 0.12692199 -4.62514305
v -1.28036105 0.09631699 -4.66379976
v -0.97974401 0.125292 -4.7100048
v -0.97974401 0.151381 -4.72107791
v -0.97974002 0.15293799 -4.69982099
v -0.97973501 0.147538 -4.67000913
v -0.97973698 0.128185 -4.679111
v -0.97973901 0.112241 -4.68710613
v -0.97973597 0.12137401 -4.6545968
v -0.97976201 0.10995999 -4.64054107
v -0.979855 0.09848099 -4.66243696
v -0.97974002 0.098543 -4.6922822
v -1.28037798 0.13173499 -4.69900322
v -1.28037703 0.11954499 -4.68231487
v -1.28037405 0.145593 -4.67341423
v -1.28037595 0.15161198 -4.70206022
v -1.28037905 0.179717 -4.69930315
v -1.28036499 0.18494799 -4.72122097
v -1.28037297 0.15054999 -4.72409582
v -1.28036797 0.12143999 -4.71335411
v -1.28037202 0.172074 -4.66688823
v -1.28036999 0.167254 -4.64082098
v -1.28036201 0.13919 -4.63446283
v -1.28036701 0.14011299 -4.65983581
v -1.28037405 0.14727598 -4.68900585
v -1.28036701 0.18601298 -4.65332603
v -1.28037095 0.186661 -4.67622518
v -1.28036701 0.18704499 -4.69002914
v -1.28029799 0.15415999 -4.70772314
v -1.276569 0.18745 -4.70423507
v -1.27822601 0.157818 -4.71835184
v -1.27962505 0.18788698 -4.735116
v -1.27992296 0.14801 -4.737679
v -1.28008902 0.11250799 -4.72428607
v -1.28037595 0.09030199 -4.69580411
v -1.28037595 0.10140699 -4.69032001
v -1.28033399 0.084237 -4.66368484
v -1.27881205 0.09453599 -4.63619709
v -1.27982103 0.12250798 -4.61518478
v -1.27707803 0.16154499 -4.60709905
v -1.27999794 0.162962 -4.61572885
v -1.27729594 0.138583 -4.60539579
v -1.279428 0.138943 -4.61255788
v -1.28025305 0.13923099 -4.62141799
v -1.28035295 0.164681 -4.62625503
v -1.28036296 0.184795 -4.61014986
v -1.28036296 0.185034 -4.61867809
v -1.28036201 0.185414 -4.63214683
v -1.27714705 0.184605 -4.60335683
v -0.98202598 0.140402 -4.60859584
v -0.97972202 0.184678 -4.60654115
v -0.97994798 0.14076 -4.61793804
v -0.97972399 0.18491098 -4.61494207
v -0.97973698 0.14075398 -4.63021802
v -0.979725 0.18527899 -4.62786293
v -0.97972703 0.14097599 -4.65403604
v -0.97972399 0.185856 -4.64838409
v -0.97973001 0.14655399 -4.68409109
v -0.97972798 0.18651199 -4.671741
v -0.97978198 0.153917 -4.70480585
v -0.97972703 0.186984 -4.68840408
v -0.98035299 0.15684999 -4.71445322
v -0.98130297 0.18739299 -4.7027421
v -0.98428201 0.16015799 -4.72283601
v -0.98724597 0.18748298 -4.7058258
v -0.97973001 0.129617 -4.61518383
v -0.98099601 0.16590699 -4.61013889
v -0.97973197 0.13412298 -4.62722396
v -0.97973001 0.167547 -4.62115812
v -0.97973197 0.140061 -4.6434431
v -0.97973102 0.16953499 -4.63527822
v -0.97973299 0.172863 -4.66150617
v -0.97973597 0.17975799 -4.69492387
v -0.97974401 0.18487499 -4.71766185
v -0.97984999 0.14895899 -4.73335599
v -0.97989898 0.18732698 -4.73057794
v -0.98223197 0.14663 -4.74412298
v -0.98265302 0.18920998 -4.74081611
v -0.981368 0.08525499 -4.6600871
v -0.980331 0.10041099 -4.63144016
v -0.97974002 0.088119 -4.69639301
v -0.98063999 0.11018499 -4.72807598
v -0.97979098 0.117144 -4.71953201
v 0.99953001 0.11437 -4.64923095
v 0.69890099 0.135187 -4.69715213
v 0.69890397 0.11108899 -4.66668319
v 0.99953198 0.132033 -4.63712883
v 0.99953401 0.13796299 -4.65248489
v 0.99953299 0.11256501 -4.66238403
v 0.999475 0.10394699 -4.64468622
v 0.99949801 0.12692199 -4.62514305
v 0.99952101 0.09631699 -4.66379976
v 0.69890397 0.125292 -4.7100048
v 0.69890397 0.151381 -4.72107791
v 0.69889998 0.15293799 -4.69982099
v 0.69889497 0.147538 -4.67000913
v 0.698897 0.128185 -4.679111
v 0.69889897 0.112241 -4.68710613
v 0.69889599 0.12137401 -4.6545968
v 0.69892197 0.10995999 -4.64054107
v 0.69901597 0.09848099 -4.66243696
v 0.69889998 0.098543 -4.6922822
v 0.999538 0.13173499 -4.69900322
v 0.99953699 0.11954499 -4.68231487
v 0.99953401 0.145593 -4.67341423
v 0.99953597 0.15161198 -4.70206022
v 0.99953901 0.179717 -4.69930315
v 0.99952501 0.18494799 -4.72122097
v 0.99953299 0.15054999 -4.72409582
v 0.99952799 0.12143999 -4.71335411
v 0.99953198 0.172074 -4.66688823
v 0.99953001 0.167254 -4.64082098
v 0.99952298 0.13919 -4.63446283
v 0.99952697 0.14011299 -4.65983581
v 0.99953401 0.14727598 -4.68900585
v 0.99952697 0.18601298 -4.65332603
v 0.99953097 0.186661 -4.67622518
v 0.99952697 0.18704499 -4.69002914
v 0.99945801 0.15415999 -4.70772314
v 0.99572902 0.18745 -4.70423507
v 0.99738597 0.157818 -4.71835184
v 0.99878501 0.18788698 -4.735116
v 0.99908298 0.14801 -4.737679
v 0.99924898 0.11250799 -4.72428607
v 0.99953597 0.09030199 -4.69580411
v 0.99953597 0.10140699 -4.69032001
v 0.99949401 0.084237 -4.66368484
v 0.99797201 0.09453599 -4.63619709
v 0.99898099 0.12250798 -4.61518478
v 0.99623799 0.16154499 -4.60709905
v 0.99915802 0.162962 -4.61572885
v 0.99645602 0.138583 -4.60539579
v 0.99858897 0.138943 -4.61255788
v 0.99941301 0.13923099 -4.62141799
v 0.99951297 0.164681 -4.62625503
v 0.99952298 0.184795 -4.61014986
v 0.99952298 0.185034 -4.61867809
v 0.99952197 0.185414 -4.63214683
v 0.99630701 0.184605 -4.60335683
v 0.701186 0.140402 -4.60859584
v 0.69888198 0.184678 -4.60654115
v 0.699108 0.14076 -4.61793804
v 0.69888401 0.18491098 -4.61494207
v 0.698897 0.14075398 -4.63021802
v 0.69888502 0.18527899 -4.62786293
v 0.69888699 0.14097599 -4.65403604
v 0.69888401 0.185856 -4.64838409
v 0.69888997 0.14655399 -4.68409109
v 0.698888 0.18651199 -4.671741
v 0.698942 0.153917 -4.70480585
v 0.69888699 0.186984 -4.68840408
v 0.69951301 0.15684999 -4.71445322
v 0.70046299 0.18739299 -4.7027421
v 0.70344197 0.16015799 -4.72283601
v 0.70640599 0.18748298 -4.7058258
v 0.69888997 0.129617 -4.61518383
v 0.70015597 0.16590699 -4.61013889
v 0.69889199 0.13412298 -4.62722396
v 0.69888997 0.167547 -4.62115812
v 0.69889199 0.140061 -4.6434431
v 0.69889098 0.16953499 -4.63527822
v 0.69889301 0.172863 -4.66150617
v 0.69889599 0.17975799 -4.69492387
v 0.69890397 0.18487499 -4.71766185
v 0.69901001 0.14895899 -4.73335599
v 0.69905901 0.18732698 -4.73057794
v 0.70139199 0.14663 -4.74412298
v 0.70181298 0.18920998 -4.74081611
v 0.70052802 0.08525499 -4.6600871
v 0.69949102 0.10041099 -4.63144016
v 0.69889998 0.088119 -4.69639301
v 0.69980001 0.11018499 -4.72807598
v 0.698951 0.117144 -4.71953201
vt 0.07772 0.89727
vt 0.06 0.89727
vt 0.06 0.88243
vt 0.07772 0.88243
vt 0.07374 0.96232
vt 0.07374 0.98004
vt 0.0589 0.98004
vt 0.0589 0.96232
vt 0.49543 0.89747
vt 0.50995 0.89747
vt 0.50995 0.91231
vt 0.49543 0.91231
vt 0.42341 0.19885
vt 0.42341 0.18329
vt 0.43825 0.18329
vt 0.43825 0.19885
vt 0.36434 0.21914
vt 0.36434 0.2347
vt 0.34662 0.2347
vt 0.34662 0.21914
vt 0.40569 0.19885
vt 0.40569 0.18329
vt 0.12504 0.46126
vt 0.11568 0.05182
vt 0.10561 0.06594
vt 0.10832 0.4543
vt 0.12304 0.07747
vt 0.12576 0.46583
vt 0.11568 0.47995
vt 0.10633 0.07051
vt 0.48568 0.48008
vt 0.47012 0.48008
vt 0.47012 0.46524
vt 0.48568 0.46524
vt 0.05979 0.92206
vt 0.07432 0.92206
vt 0.07432 0.9369
vt 0.05979 0.9369
vt 0.07432 0.95461
vt 0.05979 0.95461
vt 0.05979 0.90435
vt 0.07432 0.90435
vt 0.61107 0.97516
vt 0.62878 0.97516
vt 0.62878 0.99
vt 0.61107 0.99
vt 0.62878 0.57989
vt 0.62878 0.56217
vt 0.64362 0.56217
vt 0.64362 0.57989
vt 0.64362 0.97516
vt 0.61107 0.57989
vt 0.59623 0.97516
vt 0.59623 0.57989
vt 0.66134 0.57989
vt 0.66134 0.97516
vt 0.14833 0.47941
vt 0.13349 0.47941
vt 0.13349 0.46169
vt 0.14833 0.46169
vt 0.81503 0.65804
vt 0.80019 0.65804
vt 0.80019 0.64032
vt 0.81503 0.64032
vt 0.13349 0.09963
vt 0.14833 0.09963
vt 0.81503 0.62548
vt 0.83065 0.62548
vt 0.83065 0.64032
vt 0.49633 0.9641
vt 0.49633 0.94639
vt 0.51195 0.94639
vt 0.51195 0.9641
vt 0.83065 0.65804
vt 0.52101 0.51991
vt 0.53585 0.51991
vt 0.53585 0.53553
vt 0.52101 0.53553
vt 0.70139 0.99
vt 0.68655 0.99
vt 0.68655 0.62794
vt 0.70139 0.62794
vt 0.66883 0.99
vt 0.66883 0.62794
vt 0.7191 0.99
vt 0.7191 0.62794
vt 0.55508 0.99
vt 0.54025 0.99
vt 0.54025 0.97228
vt 0.55508 0.97228
vt 0.55508 0.57701
vt 0.55508 0.56217
vt 0.5728 0.56217
vt 0.5728 0.57701
vt 0.54025 0.57701
vt 0.58764 0.57701
vt 0.58764 0.97228
vt 0.5728 0.97228
vt 0.52253 0.57701
vt 0.52253 0.97228
vt 0.03387 0.48074
vt 0.02678 0.48074
vt 0.02678 0.14743
vt 0.03387 0.14743
vt 0.01 0.14743
vt 0.01 0.48074
vt 0.05065 0.14743
vt 0.05065 0.48074
vt 0.07458 0.48074
vt 0.07458 0.14743
vt 0.08167 0.14743
vt 0.08167 0.48074
vt 0.09846 0.14743
vt 0.09846 0.48074
vt 0.0578 0.48074
vt 0.0578 0.14743
vt 0.15538 0.31472
vt 0.15538 0.30763
vt 0.35658 0.30763
vt 0.35658 0.31472
vt 0.35658 0.29085
vt 0.15538 0.29085
vt 0.35658 0.33151
vt 0.15538 0.33151
vt 0.15538 0.25983
vt 0.35658 0.25983
vt 0.35658 0.26692
vt 0.15538 0.26692
vt 0.35658 0.2837
vt 0.15538 0.2837
vt 0.15538 0.24304
vt 0.35658 0.24304
vt 0.49512 0.99
vt 0.49512 0.97228
vt 0.50995 0.97228
vt 0.50995 0.99
vt 0.77687 0.99
vt 0.75915 0.99
vt 0.75915 0.97516
vt 0.77687 0.97516
vt 0.51703 0.99
vt 0.51703 0.98234
vt 0.53187 0.98234
vt 0.53187 0.99
vt 0.74431 0.97516
vt 0.74431 0.75726
vt 0.75915 0.75726
vt 0.77687 0.75726
vt 0.7266 0.97516
vt 0.7266 0.75726
vt 0.47012 0.42609
vt 0.47778 0.42609
vt 0.47778 0.44092
vt 0.47012 0.44092
vt 0.47778 0.45864
vt 0.47012 0.45864
vt 0.47012 0.40837
vt 0.47778 0.40837
vt 0.66852 0.57369
vt 0.88642 0.57369
vt 0.88642 0.58853
vt 0.66852 0.58853
vt 0.49512 0.938
vt 0.49512 0.92028
vt 0.50995 0.92028
vt 0.50995 0.938
vt 0.50398 0.23356
vt 0.50398 0.21584
vt 0.51882 0.21584
vt 0.51882 0.23356
vt 0.58276 0.56971
vt 0.58276 0.56208
vt 0.5976 0.56208
vt 0.5976 0.56971
vt 0.51882 0.201
vt 0.52536 0.201
vt 0.52536 0.21584
vt 0.52536 0.23356
vt 0.51882 0.18329
vt 0.52536 0.18329
vt 0.13781 0.89968
vt 0.14544 0.89968
vt 0.14544 0.91452
vt 0.13781 0.91452
vt 0.14544 0.93223
vt 0.13781 0.93223
vt 0.13781 0.88196
vt 0.14544 0.88196
vt 0.46245 0.45724
vt 0.45477 0.17333
vt 0.44781 0.19021
vt 0.44622 0.44558
vt 0.49512 0.86308
vt 0.49512 0.85654
vt 0.50995 0.85654
vt 0.50995 0.86308
vt 0.44709 0.19662
vt 0.45477 0.48053
vt 0.46172 0.46366
vt 0.46332 0.20828
vt 0.40507 0.22203
vt 0.40507 0.20719
vt 0.42279 0.20719
vt 0.42279 0.22203
vt 0.42279 0.46538
vt 0.42279 0.48022
vt 0.40507 0.48022
vt 0.40507 0.46538
vt 0.43762 0.22203
vt 0.43762 0.46538
vt 0.39023 0.46538
vt 0.39023 0.22203
vt 0.37252 0.46538
vt 0.37252 0.22203
vt 0.49512 0.87048
vt 0.50995 0.87048
vt 0.50995 0.8882
vt 0.49512 0.8882
vt 0.66883 0.61244
vt 0.66883 0.5976
vt 0.68655 0.5976
vt 0.68655 0.61244
vt 0.14544 0.85963
vt 0.14544 0.87447
vt 0.13783 0.87447
vt 0.13783 0.85963
vt 0.70139 0.61244
vt 0.70139 0.6189
vt 0.68655 0.6189
vt 0.7191 0.61244
vt 0.7191 0.6189
vt 0.66883 0.6189
vt 0.14544 0.95744
vt 0.14544 0.97228
vt 0.13783 0.97228
vt 0.13783 0.95744
vt 0.14544 0.99
vt 0.13783 0.99
vt 0.14544 0.93973
vt 0.13783 0.93973
vt 0.55053 0.53784
vt 0.53908 0.55444
vt 0.78475 0.55512
vt 0.77664 0.53802
vt 0.79097 0.55354
vt 0.80475 0.54639
vt 0.5222 0.54639
vt 0.53921 0.55403
vt 0.37162 0.4741
vt 0.38646 0.4741
vt 0.38646 0.48057
vt 0.37162 0.48057
vt 0.52135 0.57049
vt 0.52135 0.56174
vt 0.53784 0.56174
vt 0.53784 0.57049
vt 0.81791 0.82782
vt 0.81791 0.69719
vt 0.8344 0.69719
vt 0.8344 0.82782
vt 0.85056 0.69719
vt 0.85056 0.82782
vt 0.80174 0.82782
vt 0.80174 0.69719
vt 0.48804 0.85937
vt 0.48804 0.99
vt 0.47156 0.99
vt 0.47156 0.85937
vt 0.36478 0.21117
vt 0.36478 0.19654
vt 0.38127 0.19654
vt 0.38127 0.21117
vt 0.34861 0.21117
vt 0.34861 0.19654
vt 0.36478 0.18779
vt 0.38127 0.18779
vt 0.39743 0.18779
vt 0.39743 0.19654
vt 0.34861 0.18779
vt 0.15477 0.23508
vt 0.15477 0.21859
vt 0.30878 0.21859
vt 0.30878 0.23508
vt 0.30878 0.18594
vt 0.30878 0.20242
vt 0.15477 0.20242
vt 0.15477 0.18594
vt 0.30878 0.16977
vt 0.15477 0.16977
vt 0.78526 0.83598
vt 0.80174 0.83598
vt 0.80174 0.99
vt 0.78526 0.99
vt 0.8344 0.99
vt 0.81791 0.99
vt 0.81791 0.83598
vt 0.8344 0.83598
vt 0.85056 0.99
vt 0.85056 0.83598
vt 0.72749 0.74962
vt 0.72749 0.59561
vt 0.74398 0.59561
vt 0.74398 0.74962
vt 0.77663 0.59561
vt 0.77663 0.74962
vt 0.76015 0.74962
vt 0.76015 0.59561
vt 0.7928 0.59561
vt 0.7928 0.74962
vt 0.02616 0.99
vt 0.02616 0.85697
vt 0.03515 0.85697
vt 0.03515 0.99
vt 0.05131 0.85697
vt 0.05131 0.99
vt 0.01 0.99
vt 0.01 0.85697
vt 0.10436 0.85697
vt 0.11334 0.85697
vt 0.11334 0.99
vt 0.10436 0.99
vt 0.12951 0.99
vt 0.12951 0.85697
vt 0.08819 0.99
vt 0.08819 0.85697
vt 0.38919 0.85697
vt 0.39818 0.85697
vt 0.39818 0.99
vt 0.38919 0.99
vt 0.41435 0.99
vt 0.41435 0.85697
vt 0.37303 0.99
vt 0.37303 0.85697
vt 0.44797 0.85697
vt 0.44797 0.99
vt 0.43899 0.99
vt 0.43899 0.85697
vt 0.42282 0.99
vt 0.42282 0.85697
vt 0.46414 0.85697
vt 0.46414 0.99
vt 0.15866 0.84133
vt 0.36479 0.84134
vt 0.36479 0.99
vt 0.15866 0.99
vt 0.36479 0.48809
vt 0.15866 0.48809
vt 0.15866 0.33943
vt 0.36479 0.33943
vt 0.51345 0.48809
vt 0.51345 0.84134
vt 0.01 0.84133
vt 0.01 0.48809
vt 0.54788 0.19594
vt 0.54733 0.1964
vt 0.54661 0.19368
vt 0.5471 0.19352
vt 0.5483 0.19764
vt 0.54769 0.19813
vt 0.54701 0.19882
vt 0.54669 0.19676
vt 0.55104 0.19457
vt 0.55087 0.19698
vt 0.5506 0.18788
vt 0.55012 0.1893
vt 0.54734 0.18768
vt 0.5482 0.18536
vt 0.55003 0.18385
vt 0.55168 0.18769
vt 0.53751 0.19344
vt 0.53728 0.19203
vt 0.53885 0.19134
vt 0.53851 0.19342
vt 0.53807 0.1958
vt 0.53704 0.19537
vt 0.54028 0.20153
vt 0.53974 0.20182
vt 0.53643 0.1992
vt 0.53723 0.19996
vt 0.54688 0.20146
vt 0.54113 0.20132
vt 0.54624 0.20106
vt 0.55053 0.18088
vt 0.5486 0.1799
vt 0.55115 0.17822
vt 0.55323 0.1797
vt 0.54031 0.18246
vt 0.54186 0.18151
vt 0.54246 0.18365
vt 0.54117 0.18435
vt 0.53713 0.18786
vt 0.53884 0.18418
vt 0.54015 0.18581
vt 0.53817 0.18822
vt 0.54756 0.20182
vt 0.53512 0.19167
vt 0.53548 0.1879
vt 0.53684 0.18998
vt 0.54797 0.2004
vt 0.54733 0.20075
vt 0.55047 0.19255
vt 0.53304 0.19297
vt 0.53294 0.18884
vt 0.54922 0.2003
vt 0.54957 0.20067
vt 0.53777 0.19978
vt 0.5393 0.20119
vt 0.53709 0.19807
vt 0.53795 0.198
vt 0.55457 0.18165
vt 0.55524 0.18375
vt 0.55244 0.18348
vt 0.55175 0.18212
vt 0.53828 0.19962
vt 0.53618 0.19753
vt 0.53609 0.19414
vt 0.53686 0.18321
vt 0.53765 0.18187
vt 0.53938 0.18327
vt 0.54893 0.1998
vt 0.55577 0.18974
vt 0.55362 0.18865
vt 0.54993 0.19115
vt 0.54709 0.19045
vt 0.54584 0.19909
vt 0.54188 0.19926
vt 0.54212 0.19698
vt 0.54588 0.19707
vt 0.53406 0.18301
vt 0.5351 0.18085
vt 0.53704 0.17887
vt 0.53903 0.18059
vt 0.53522 0.19652
vt 0.54939 0.18301
vt 0.53851 0.18943
vt 0.54676 0.187
vt 0.54732 0.18419
vt 0.5477 0.1847
vt 0.54701 0.18738
vt 0.54651 0.1906
vt 0.54609 0.19069
vt 0.54058 0.18504
vt 0.54162 0.18697
vt 0.54125 0.18756
vt 0.54086 0.18811
vt 0.54134 0.19064
vt 0.54095 0.19101
vt 0.54625 0.18645
vt 0.54665 0.18355
vt 0.54047 0.19389
vt 0.54708 0.18163
vt 0.54112 0.17951
vt 0.5485 0.18229
vt 0.53973 0.1985
vt 0.54001 0.1993
vt 0.53957 0.20105
vt 0.53907 0.20077
vt 0.54559 0.19054
vt 0.54617 0.19393
vt 0.54554 0.194
vt 0.54014 0.19666
vt 0.54059 0.19718
vt 0.54241 0.19003
vt 0.5425 0.1865
vt 0.54217 0.19361
vt 0.54093 0.19394
vt 0.54141 0.19398
vt 0.5412 0.19727
vt 0.55223 0.19687
vt 0.54169 0.1903
vt 0.54054 0.17731
vt 0.55171 0.19035
vt 0.54074 0.19934
vt 0.54005 0.20126
vt 0.5529 0.19307
vt 0.55498 0.19374
vt 0.53451 0.19775
vt 0.53559 0.19933
vt 0.55397 0.19615
vt 0.8145 0.61313
vt 0.81581 0.61359
vt 0.81338 0.61442
vt 0.81309 0.61309
vt 0.81163 0.61313
vt 0.8107 0.61368
vt 0.8154 0.60386
vt 0.81255 0.60366
vt 0.81307 0.59985
vt 0.81812 0.60311
vt 0.81001 0.60283
vt 0.80793 0.6017
vt 0.80631 0.59969
vt 0.81325 0.59866
vt 0.80465 0.5972
vt 0.8119 0.59671
vt 0.82082 0.59843
vt 0.82023 0.6011
vt 0.81868 0.60361
vt 0.81575 0.60435
vt 0.81266 0.60414
vt 0.80977 0.60324
vt 0.81613 0.60481
vt 0.81284 0.60455
vt 0.80951 0.60357
vt 0.80683 0.60259
vt 0.80731 0.60207
vt 0.81302 0.60497
vt 0.80939 0.60403
vt 0.80644 0.60348
vt 0.80397 0.60213
vt 0.80458 0.60092
vt 0.8065 0.60911
vt 0.804 0.60967
vt 0.80115 0.61121
vt 0.80123 0.6008
vt 0.80229 0.59885
vt 0.80361 0.59766
vt 0.80543 0.60008
vt 0.8223 0.59914
vt 0.82105 0.60171
vt 0.82354 0.60025
vt 0.82171 0.60257
vt 0.81909 0.60418
vt 0.8222 0.6038
vt 0.81951 0.60496
vt 0.8165 0.60531
vt 0.81635 0.60967
vt 0.81315 0.60892
vt 0.80956 0.60873
vt 0.80982 0.60945
vt 0.80705 0.60997
vt 0.80462 0.61114
vt 0.80197 0.6128
vt 0.80763 0.61064
vt 0.80553 0.61214
vt 0.80298 0.61387
vt 0.80969 0.61472
vt 0.80778 0.61653
vt 0.81359 0.61569
vt 0.8119 0.61752
vt 0.81728 0.61515
vt 0.81633 0.61748
vt 0.81861 0.61152
vt 0.82102 0.61293
vt 0.82213 0.61525
vt 0.81927 0.61116
vt 0.82177 0.61231
vt 0.82365 0.6141
vt 0.81955 0.61048
vt 0.82234 0.6113
vt 0.82467 0.61226
vt 0.82438 0.60171
vt 0.81646 0.61021
vt 0.81328 0.6094
vt 0.81585 0.61058
vt 0.81294 0.60974
vt 0.81009 0.61
vt 0.07434 0.85495
vt 0.07606 0.8524
vt 0.07873 0.8572
vt 0.07692 0.85911
vt 0.07588 0.86012
vt 0.07283 0.85705
vt 0.07194 0.86236
vt 0.07528 0.8625
vt 0.07532 0.86391
vt 0.07277 0.86527
vt 0.0735 0.87175
vt 0.07446 0.87409
vt 0.0639 0.8738
vt 0.06599 0.87161
vt 0.06715 0.86892
vt 0.07267 0.86897
vt 0.06751 0.86592
vt 0.06701 0.86555
vt 0.06674 0.86226
vt 0.06717 0.86244
vt 0.06637 0.86851
vt 0.06476 0.87112
vt 0.06581 0.8681
vt 0.06654 0.86517
vt 0.07219 0.85951
vt 0.07532 0.86105
vt 0.07334 0.85404
vt 0.075 0.85139
vt 0.0745 0.87118
vt 0.07629 0.87307
vt 0.07336 0.86868
vt 0.07513 0.87043
vt 0.07745 0.87155
vt 0.07372 0.86803
vt 0.07579 0.86522
vt 0.06245 0.87296
vt 0.0724 0.86588
vt 0.07217 0.85646
vt 0.0639 0.87047
vt 0.06134 0.87171
vt 0.06329 0.86965
vt 0.06531 0.86754
vt 0.07164 0.85923
vt 0.06063 0.87023
vt 0.07789 0.863
vt 0.07662 0.86279
vt 0.07971 0.86131
vt 0.07186 0.86577
vt 0.07734 0.8667
vt 0.06389 0.85735
vt 0.06426 0.85672
vt 0.06543 0.85919
vt 0.06502 0.85943
vt 0.07968 0.86575
vt 0.06227 0.85485
vt 0.06312 0.85399
vt 0.06479 0.85624
vt 0.06188 0.85573
vt 0.05939 0.85406
vt 0.05986 0.85302
vt 0.06104 0.8517
vt 0.06299 0.85064
vt 0.06432 0.85338
vt 0.06605 0.86481
vt 0.06205 0.86249
vt 0.06586 0.86196
vt 0.07186 0.85342
vt 0.07341 0.85056
vt 0.0713 0.85592
vt 0.07093 0.85898
vt 0.06086 0.86266
vt 0.0589 0.86131
vt 0.06622 0.85881
vt 0.06568 0.85585
vt 0.0716 0.86269
vt 0.07112 0.86256
vt 0.06633 0.86208
vt 0.06576 0.85893
vt 0.80719 0.66561
vt 0.80414 0.66718
vt 0.80334 0.66794
vt 0.80665 0.66532
vt 0.80621 0.66595
vt 0.80468 0.66736
vt 0.80804 0.66582
vt 0.80697 0.66588
vt 0.81379 0.66568
vt 0.81488 0.66673
vt 0.81424 0.66638
vt 0.81315 0.66608
vt 0.81613 0.66684
vt 0.81584 0.66734
vt 0.81447 0.66532
vt 0.81649 0.66647
vt 0.80648 0.66609
vt 0.80599 0.66636
vt 0.80442 0.67369
vt 0.80543 0.67371
vt 0.80576 0.6758
vt 0.80419 0.67511
vt 0.80395 0.67177
vt 0.80498 0.67134
vt 0.803 0.67299
vt 0.80509 0.67891
vt 0.80404 0.67927
vt 0.80375 0.67716
vt 0.80542 0.67771
vt 0.80203 0.67547
vt 0.80239 0.67924
vt 0.79985 0.67829
vt 0.79995 0.67417
vt 0.81751 0.67926
vt 0.81704 0.67784
vt 0.81862 0.67679
vt 0.81859 0.67945
vt 0.81511 0.68178
vt 0.81425 0.67946
vt 0.81694 0.68328
vt 0.81981 0.67407
vt 0.81795 0.67257
vt 0.81778 0.67016
vt 0.81914 0.67026
vt 0.82088 0.67099
vt 0.82189 0.6734
vt 0.81738 0.67459
vt 0.82268 0.6774
vt 0.82053 0.67849
vt 0.81684 0.67598
vt 0.814 0.67668
vt 0.81401 0.67362
vt 0.81479 0.67119
vt 0.81521 0.66949
vt 0.81352 0.67345
vt 0.81424 0.67073
vt 0.8146 0.66901
vt 0.8136 0.67038
vt 0.81392 0.66832
vt 0.81279 0.67007
vt 0.81275 0.66805
vt 0.80903 0.67016
vt 0.80879 0.66788
vt 0.80765 0.6678
vt 0.80811 0.66986
vt 0.8075 0.66995
vt 0.80692 0.66784
vt 0.80908 0.67353
vt 0.80832 0.67316
vt 0.81245 0.67313
vt 0.8125 0.6766
vt 0.80932 0.67711
vt 0.81316 0.68068
vt 0.80941 0.68064
vt 0.81308 0.67321
vt 0.813 0.67645
vt 0.81367 0.68014
vt 0.81423 0.68294
vt 0.81356 0.68359
vt 0.81342 0.67653
vt 0.81392 0.67976
vt 0.81461 0.68243
vt 0.8163 0.68413
vt 0.81541 0.68484
vt 0.81935 0.68366
vt 0.81866 0.68501
vt 0.82215 0.68338
vt 0.82148 0.68548
vt 0.82014 0.68743
vt 0.81744 0.68626
vt 0.81806 0.68892
vt 0.81551 0.68723
vt 0.81399 0.68551
vt 0.80803 0.68762
vt 0.80877 0.68563
vt 0.80937 0.68348
vt 0.80809 0.68279
vt 0.80853 0.68017
vt 0.8086 0.67684
vt 0.80816 0.67957
vt 0.80825 0.67649
vt 0.80784 0.67319
vt 0.80786 0.67612
vt 0.80738 0.67325
vt 0.80705 0.67048
vt 0.80486 0.66913
vt 0.80665 0.66864
vt 0.80519 0.66752
vt 0.80777 0.67903
vt 0.80706 0.68132
vt 0.80749 0.6821
vt 0.80629 0.68386
vt 0.80575 0.68295
vt 0.80722 0.68468
vt 0.80594 0.68655
vt 0.80456 0.68527
vt 0.80745 0.68982
vt 0.80395 0.68827
vt 0.80201 0.68629
vt 0.80097 0.68413
vt 0.80377 0.68392
vt 0.80142 0.66938
vt 0.8025 0.66781
vt 0.80213 0.67061
vt 0.8031 0.6696
vt 0.804 0.66907
vt 0.48643 0.24645
vt 0.48752 0.24781
vt 0.48615 0.24893
vt 0.48557 0.24667
vt 0.48711 0.2455
vt 0.48858 0.24698
vt 0.4856 0.2449
vt 0.48086 0.21436
vt 0.48028 0.21573
vt 0.47823 0.21487
vt 0.47983 0.21332
vt 0.48285 0.21233
vt 0.4826 0.21423
vt 0.48258 0.21602
vt 0.48428 0.21562
vt 0.48496 0.21466
vt 0.48569 0.21631
vt 0.48427 0.21686
vt 0.48235 0.21741
vt 0.48223 0.24746
vt 0.48389 0.24714
vt 0.48395 0.24975
vt 0.48118 0.24847
vt 0.47975 0.25019
vt 0.478 0.24811
vt 0.47978 0.24658
vt 0.48174 0.24572
vt 0.48362 0.25182
vt 0.48723 0.25124
vt 0.48922 0.25269
vt 0.4853 0.25372
vt 0.48064 0.253
vt 0.48695 0.25725
vt 0.48062 0.25642
vt 0.47714 0.25463
vt 0.47787 0.25134
vt 0.47495 0.25216
vt 0.47673 0.24984
vt 0.47673 0.24662
vt 0.47417 0.21201
vt 0.47444 0.21507
vt 0.47683 0.21691
vt 0.47871 0.24535
vt 0.47989 0.21776
vt 0.48088 0.2445
vt 0.48286 0.21834
vt 0.48347 0.24458
vt 0.48365 0.24537
vt 0.48557 0.24363
vt 0.48518 0.21773
vt 0.48691 0.21727
vt 0.48711 0.2444
vt 0.48824 0.21583
vt 0.48904 0.24605
vt 0.48904 0.21337
vt 0.49077 0.24854
vt 0.48999 0.24951
vt 0.4921 0.2497
vt 0.49178 0.25057
vt 0.49094 0.25154
vt 0.48901 0.25041
vt 0.49579 0.25238
vt 0.49472 0.25388
vt 0.49216 0.25579
vt 0.49618 0.25097
vt 0.49036 0.21235
vt 0.494 0.21005
vt 0.48976 0.21107
vt 0.49338 0.20885
vt 0.48828 0.20986
vt 0.49145 0.20706
vt 0.48471 0.20855
vt 0.48695 0.20522
vt 0.47983 0.20868
vt 0.48065 0.2052
vt 0.47641 0.20993
vt 0.47608 0.20683
vt 0.47507 0.21082
vt 0.47299 0.20929
vt 0.47211 0.21062
vt 0.48549 0.21339
vt 0.48686 0.21478
vt 0.48806 0.21235
vt 0.48633 0.21143
vt 0.48293 0.21045
vt 0.47865 0.21141
vt 0.47629 0.213
vt 0.47753 0.21594
vt 0.4752 0.2141
vt 0.48001 0.21684
vt 0.33422 0.22344
vt 0.33315 0.22467
vt 0.33119 0.22381
vt 0.33205 0.22259
vt 0.33304 0.19585
vt 0.33609 0.195
vt 0.33207 0.19245
vt 0.3331 0.19141
vt 0.33469 0.19296
vt 0.33264 0.19382
vt 0.32946 0.22267
vt 0.33007 0.19643
vt 0.3265 0.22454
vt 0.32582 0.22359
vt 0.32733 0.22299
vt 0.32735 0.22476
vt 0.31674 0.22906
vt 0.31893 0.18814
vt 0.32257 0.19044
vt 0.32082 0.22779
vt 0.33292 0.19493
vt 0.3354 0.19403
vt 0.32898 0.22784
vt 0.32678 0.22702
vt 0.32903 0.22523
vt 0.31713 0.23047
vt 0.32115 0.22866
vt 0.32077 0.23388
vt 0.32371 0.23078
vt 0.32763 0.23181
vt 0.32598 0.23534
vt 0.32541 0.2259
vt 0.32435 0.22507
vt 0.32199 0.22963
vt 0.31821 0.23197
vt 0.32389 0.19146
vt 0.32216 0.22663
vt 0.3266 0.18952
vt 0.32465 0.18795
vt 0.32822 0.18664
vt 0.33 0.18854
vt 0.33994 0.18738
vt 0.34082 0.1887
vt 0.33875 0.1901
vt 0.33785 0.18891
vt 0.32928 0.22346
vt 0.33685 0.18492
vt 0.33652 0.18802
vt 0.33619 0.22471
vt 0.33493 0.22619
vt 0.33849 0.19316
vt 0.33619 0.22793
vt 0.33505 0.22943
vt 0.33798 0.23025
vt 0.33578 0.23272
vt 0.33229 0.23109
vt 0.33317 0.22828
vt 0.3323 0.23451
vt 0.32931 0.22991
vt 0.3257 0.22933
vt 0.33175 0.22656
vt 0.3307 0.22555
vt 0.32486 0.19044
vt 0.32744 0.19148
vt 0.32607 0.19287
vt 0.32865 0.19371
vt 0.32797 0.19275
vt 0.33033 0.19232
vt 0.33035 0.19411
vt 0.32317 0.18916
vt 0.33058 0.1955
vt 0.32866 0.19495
vt 0.32392 0.2285
vt 0.33228 0.18329
vt 0.33309 0.18677
vt 0.32598 0.18331
vt 0.32148 0.18515
vt 0.32294 0.2276
vt 0.32735 0.22172
vt 0.32723 0.1944
vt 0.33007 0.19042
vt 0.31955 0.18694
vt 0.32389 0.22414
vt 0.32469 0.19392
vt 0.32582 0.22249
vt 0.32601 0.19536
vt 0.32775 0.19582
vt 0.33772 0.19219
vt 0.33663 0.19109
vt 0.33427 0.1895
g Group7263
f 6/1 8/2 4/3 2/4
g Group7278
f 7/5 5/6 1/7 3/8
g Group7293
f 8/9 25/10 26/11 4/12
g Group7308
f 5/13 21/14 22/15 1/16
g Group7323
f 1/17 22/18 23/19 3/20
g Group7308
f 7/21 24/22 21/14 5/13
g Group7338
f 19/23 29/24 30/25 20/26
f 20/26 30/25 31/27 18/28
f 17/29 32/30 29/24 19/23
g Group7353
f 24/31 7/32 3/33 23/34
g Group7368
f 27/35 6/36 2/37 28/38
f 28/38 2/37 4/39 26/40
f 25/41 8/42 6/36 27/35
g Group7338
f 32/30 17/29 18/28 31/27
g Group7383
f 14/43 16/44 12/45 10/46
f 15/47 13/48 9/49 11/50
f 16/44 15/47 11/50 12/51
f 13/52 14/43 10/53 9/54
f 9/55 10/56 12/51 11/50
f 15/47 16/44 14/43 13/52
g Group7398
f 38/57 34/58 36/59 40/60
g Group7413
f 39/61 35/62 33/63 37/64
g Group7398
f 40/60 36/59 53/65 54/66
g Group7413
f 37/64 33/67 51/68 52/69
g Group7428
f 33/70 35/71 49/72 51/73
g Group7413
f 39/61 37/64 52/69 50/74
g Group7443
f 50/75 49/76 35/77 39/78
g Group7458
f 56/79 55/80 34/81 38/82
f 55/80 53/83 36/84 34/81
f 54/85 56/79 38/82 40/86
g Group7473
f 46/87 42/88 44/89 48/90
f 47/91 43/92 41/93 45/94
f 48/90 44/89 43/95 47/91
f 45/94 41/96 42/97 46/98
f 41/99 43/95 44/89 42/100
f 47/91 45/94 46/98 48/90
g Group7488
f 64/101 60/102 59/103 63/104
f 57/105 59/103 60/102 58/106
f 63/104 61/107 62/108 64/101
g Group7503
f 72/109 71/110 67/111 68/112
f 65/113 66/114 68/112 67/111
f 71/110 72/109 70/115 69/116
g Group7518
f 80/117 76/118 75/119 79/120
f 73/121 75/119 76/118 74/122
f 79/120 77/123 78/124 80/117
g Group7533
f 88/125 87/126 83/127 84/128
f 81/129 82/130 84/128 83/127
f 87/126 88/125 86/131 85/132
g Group7548
f 94/133 96/134 92/135 90/136
g Group7563
f 95/137 93/138 89/139 91/140
g Group7578
f 96/141 129/142 130/143 92/144
g Group7563
f 93/145 133/146 134/147 89/139
f 89/139 134/147 135/148 91/140
f 95/149 136/150 133/146 93/145
g Group7593
f 131/151 94/152 90/153 132/154
f 132/154 90/153 92/155 130/156
f 129/157 96/158 94/152 131/151
g Group7608
f 136/159 95/160 91/161 135/162
g Group7623
f 102/163 104/164 100/165 98/166
g Group7638
f 103/167 101/168 97/169 99/170
g Group7653
f 104/171 113/172 114/173 100/174
g Group7638
f 101/175 121/176 122/177 97/169
f 97/169 122/177 123/178 99/170
f 103/179 124/180 121/176 101/175
g Group7668
f 115/181 102/182 98/183 116/184
f 116/184 98/183 100/185 114/186
f 113/187 104/188 102/182 115/181
g Group7683
f 120/189 125/190 126/191 119/192
g Group7698
f 124/193 103/194 99/195 123/196
g Group7683
f 127/197 117/198 118/199 128/200
f 128/200 118/199 119/192 126/191
f 125/190 120/189 117/198 127/197
g Group7713
f 110/201 106/202 108/203 112/204
f 111/205 107/206 105/207 109/208
f 112/204 108/209 107/210 111/205
f 109/208 105/211 106/212 110/201
f 105/211 107/213 108/214 106/212
f 111/205 109/208 110/201 112/204
g Group7728
f 142/215 138/216 140/217 144/218
g Group7743
f 143/219 139/220 137/221 141/222
g Group7758
f 144/223 140/224 161/225 162/226
g Group7743
f 141/222 137/227 181/228 182/229
f 137/227 139/230 183/231 181/228
f 143/219 141/222 182/229 184/232
g Group7773
f 164/233 163/234 138/235 142/236
f 163/234 161/237 140/238 138/235
f 162/239 164/233 142/236 144/240
g Group7788
f 168/241 167/242 179/243 180/244
f 178/245 177/246 165/247 166/248
f 177/246 179/243 167/242 165/247
f 180/244 178/245 166/248 168/241
g Group7803
f 184/249 183/250 139/251 143/252
g Group7818
f 152/253 173/254 174/255 148/256
g Group7833
f 149/257 171/258 172/259 145/260
f 145/260 172/259 170/261 147/262
f 151/263 169/264 171/258 149/257
g Group7848
f 169/265 151/266 147/267 170/268
g Group7863
f 171/269 175/270 176/271 172/272
f 169/273 173/274 175/270 171/269
f 175/270 150/275 146/276 176/271
f 176/271 146/276 148/277 174/278
f 173/274 152/279 150/275 175/270
g Group7878
f 160/280 156/281 155/282 159/283
f 157/284 153/285 154/286 158/287
f 153/285 155/282 156/281 154/286
f 159/288 157/284 158/287 160/289
g Group7893
f 192/290 188/291 187/292 191/293
f 189/294 185/295 186/296 190/297
f 185/295 187/292 188/291 186/296
f 191/298 189/294 190/297 192/299
g Group7908
f 200/300 199/301 195/302 196/303
f 197/304 198/305 194/306 193/307
f 193/307 194/306 196/303 195/302
f 199/308 200/309 198/305 197/304
g Group7923
f 208/310 207/311 203/312 204/313
f 201/314 202/315 204/313 203/312
f 207/311 208/310 206/316 205/317
g Group7938
f 216/318 212/319 211/320 215/321
f 209/322 211/320 212/319 210/323
f 215/321 213/324 214/325 216/318
g Group7953
f 224/326 220/327 219/328 223/329
f 217/330 219/328 220/327 218/331
f 223/329 221/332 222/333 224/326
g Group7968
f 232/334 231/335 227/336 228/337
f 225/338 226/339 228/337 227/336
f 231/335 232/334 230/340 229/341
g Group7983
f 238/342 240/343 236/344 234/345
f 239/346 237/347 233/348 235/349
f 240/343 239/346 235/350 236/351
f 237/347 238/342 234/352 233/353
f 239/346 240/343 238/342 237/347
g Group7998
f 367/354 369/355 368/356 366/357
f 367/354 349/358 370/359 369/355
f 370/359 372/360 371/361 369/355
f 367/354 358/362 359/363 349/358
f 326/364 355/365 397/366 398/367
f 326/364 398/367 399/368 357/369
f 323/370 342/371 341/372 340/373
f 323/370 340/373 344/374 343/375
f 319/376 329/377 438/378 440/379
f 320/380 319/376 331/381 336/382
f 405/383 407/384 406/385 404/386
f 427/387 409/388 410/389 412/390
f 346/391 426/392 423/393 324/394
f 320/380 334/395 329/377 319/376
f 325/396 352/397 346/391 347/398
f 370/359 335/399 321/400 372/360
f 366/357 363/401 358/362 367/354
f 325/396 354/402 353/403 352/397
f 320/380 337/404 333/405 334/395
f 319/376 440/379 442/406 330/407
f 443/408 343/375 344/374 350/409
f 403/410 402/411 400/412 401/413
f 403/410 401/413 405/383 404/386
f 443/408 350/409 351/414 442/406
f 441/415 345/416 343/375 443/408
f 441/415 443/408 442/406 440/379
f 435/417 429/418 425/419 426/392
f 435/417 426/392 346/391 352/397
f 320/380 335/399 338/420 337/404
f 320/380 336/382 321/400 335/399
f 370/359 349/358 338/420 335/399
f 402/411 364/421 365/422 400/412
f 328/423 363/401 366/357 444/424
f 328/423 444/424 397/366 355/365
f 374/425 375/426 380/427 373/428
f 374/425 336/382 331/381 375/426
f 435/417 352/397 353/403 434/429
f 433/430 432/431 428/432 429/418
f 439/433 325/396 345/416 441/415
f 439/433 441/415 440/379 438/378
f 433/430 429/418 435/417 434/429
f 372/360 374/425 373/428 371/361
f 372/360 321/400 336/382 374/425
f 399/368 395/434 401/413 400/412
f 348/435 341/372 342/371 347/398
f 427/387 425/419 429/418 428/432
f 389/436 390/437 394/438 393/439
f 389/436 393/439 392/440 388/441
f 424/442 425/419 427/387 412/390
f 424/442 412/390 413/443 415/444
f 424/442 423/393 426/392 425/419
f 422/445 423/393 424/442 415/444
f 422/445 415/444 416/446 418/447
f 422/445 348/435 324/394 423/393
f 341/372 348/435 422/445 418/447
f 389/436 386/448 391/449 390/437
f 341/372 418/447 419/450 340/373
f 408/451 409/388 430/452 407/384
f 405/383 401/413 395/434 396/453
f 421/454 379/455 322/456 339/457
f 385/458 386/448 389/436 388/441
f 385/458 388/441 387/459 384/460
f 421/454 339/457 351/414 350/409
f 351/414 339/457 330/407 442/406
f 420/461 378/462 379/455 421/454
f 420/461 421/454 350/409 344/374
f 385/458 383/463 411/464 386/448
f 381/465 383/463 385/458 384/460
f 337/404 338/420 349/358 359/363
f 381/465 384/460 373/428 380/427
f 394/438 390/437 396/453 395/434
f 400/412 365/422 357/369 399/368
f 420/461 344/374 340/373 419/450
f 417/466 382/467 377/468 378/462
f 417/466 378/462 420/461 419/450
f 394/438 398/367 397/366 393/439
f 360/469 333/405 337/404 359/363
f 387/459 368/356 369/355 371/361
f 417/466 419/450 418/447 416/446
f 414/470 383/463 381/465 382/467
f 414/470 382/467 417/466 416/446
f 430/452 428/432 432/431 431/471
f 427/387 428/432 430/452 409/388
f 387/459 371/361 373/428 384/460
f 392/440 368/356 387/459 388/441
f 380/427 377/468 382/467 381/465
f 414/470 416/446 415/444 413/443
f 326/364 357/369 356/472 355/365
f 411/464 383/463 414/470 413/443
f 444/424 366/357 368/356 392/440
f 444/424 392/440 393/439 397/366
f 411/464 413/443 412/390 410/389
f 410/389 391/449 386/448 411/464
f 376/473 377/468 380/427 375/426
f 376/473 332/474 322/456 379/455
f 376/473 379/455 378/462 377/468
f 394/438 395/434 399/368 398/367
f 331/381 332/474 376/473 375/426
f 408/451 396/453 390/437 391/449
f 408/451 391/449 410/389 409/388
f 328/423 355/365 356/472 363/401
f 327/475 356/472 357/369 365/422
f 327/475 365/422 364/421 362/476
f 327/475 358/362 363/401 356/472
f 431/471 406/385 407/384 430/452
f 322/456 332/474 330/407 339/457
f 436/477 354/402 325/396 439/433
f 436/477 439/433 438/378 437/478
f 319/376 330/407 332/474 331/381
f 324/394 348/435 347/398 346/391
f 327/475 362/476 361/479 360/469
f 327/475 360/469 359/363 358/362
f 323/370 343/375 345/416 342/371
f 405/383 396/453 408/451 407/384
f 325/396 347/398 342/371 345/416
g Group8013
f 241/480 244/481 245/482 243/483
f 242/484 243/483 245/482 246/485
f 252/486 253/487 247/488 251/489
f 258/490 289/491 247/488 253/487
f 289/491 288/492 248/493 247/488
f 248/493 288/492 284/494 249/495
f 248/493 249/495 283/496 250/497
f 248/493 250/497 251/489 247/488
f 252/486 251/489 254/498 255/499
f 252/486 255/499 256/500 253/487
f 256/500 257/501 258/490 253/487
f 256/500 255/499 259/502 260/503
f 256/500 260/503 261/504 257/501
f 261/504 262/505 263/506 257/501
f 261/504 260/503 264/507 265/508
f 261/504 265/508 266/509 262/505
f 266/509 267/510 268/511 262/505
f 267/510 266/509 298/512 270/513
f 267/510 270/513 271/514 269/515
f 286/516 285/517 287/518 268/511
f 286/516 268/511 267/510 269/515
f 287/518 285/517 284/494 288/492
f 287/518 288/492 289/491 263/506
f 287/518 263/506 262/505 268/511
f 289/491 258/490 257/501 263/506
f 283/496 282/519 290/520 250/497
f 290/520 254/498 251/489 250/497
f 290/520 282/519 281/521 291/522
f 290/520 291/522 292/523 254/498
f 292/523 259/502 255/499 254/498
f 292/523 291/522 293/524 294/525
f 292/523 294/525 295/526 259/502
f 295/526 264/507 260/503 259/502
f 264/507 295/526 313/527 296/528
f 264/507 296/528 297/529 265/508
f 297/529 298/512 266/509 265/508
f 298/512 297/529 299/530 300/531
f 298/512 300/531 301/532 270/513
f 301/532 272/533 271/514 270/513
f 301/532 300/531 302/534 303/535
f 301/532 303/535 273/536 272/533
f 303/535 302/534 246/485 304/537
f 303/535 304/537 274/538 273/536
f 304/537 246/485 245/482 305/539
f 304/537 305/539 275/540 274/538
f 305/539 245/482 244/481 306/541
f 305/539 306/541 276/542 275/540
f 306/541 244/481 307/543 308/544
f 306/541 308/544 277/545 276/542
f 308/544 307/543 309/546 310/547
f 308/544 310/547 278/548 277/545
f 310/547 309/546 311/549 312/550
f 310/547 312/550 279/551 278/548
f 312/550 311/549 294/525 293/524
f 312/550 293/524 280/552 279/551
f 311/549 313/527 295/526 294/525
f 313/527 311/549 309/546 314/553
f 313/527 314/553 315/554 296/528
f 315/554 299/530 297/529 296/528
f 315/554 314/553 316/555 317/556
f 315/554 317/556 318/557 299/530
f 318/557 302/534 300/531 299/530
f 318/557 317/556 243/483 242/484
f 318/557 242/484 246/485 302/534
f 317/556 316/555 241/480 243/483
f 316/555 307/543 244/481 241/480
f 316/555 314/553 309/546 307/543
f 293/524 291/522 281/521 280/552
g Group8028
f 633/558 603/559 604/560 634/561
f 633/558 634/561 576/562 632/563
f 647/564 573/565 571/566 646/567
f 642/568 609/569 610/570 623/571
f 642/568 623/571 624/572 641/573
f 625/574 589/575 590/576 594/577
f 622/578 589/575 625/574 624/572
f 622/578 624/572 623/571 621/579
f 622/578 584/580 585/581 589/575
f 648/582 632/563 576/562 572/583
f 631/584 602/585 603/559 633/558
f 648/582 572/583 573/565 647/564
f 640/586 608/587 609/569 642/568
f 640/586 642/568 641/573 639/588
f 638/589 607/590 608/587 640/586
f 638/589 640/586 639/588 637/591
f 646/567 571/566 574/592 637/591
f 623/571 610/570 611/593 621/579
f 646/567 637/591 639/588 644/594
f 631/584 633/558 632/563 630/595
f 620/596 584/580 622/578 621/579
f 620/596 621/579 611/593 612/597
f 620/596 580/598 581/599 584/580
f 648/582 629/600 630/595 632/563
f 613/601 580/598 620/596 612/597
f 634/561 635/602 575/603 576/562
f 634/561 604/560 605/604 635/602
f 641/573 624/572 625/574 643/605
f 635/602 636/606 574/592 575/603
f 619/607 593/608 587/609 588/610
f 635/602 605/604 606/611 636/606
f 617/612 598/613 592/614 593/608
f 617/612 593/608 619/607 618/615
f 617/612 618/615 614/616 615/617
f 616/618 599/619 597/620 598/613
f 616/618 598/613 617/612 615/617
f 571/566 573/565 575/603 574/592
f 572/583 576/562 575/603 573/565
f 582/621 581/599 577/622 583/623
f 631/584 600/624 601/625 602/585
f 628/626 600/624 631/584 630/595
f 628/626 630/595 629/600 627/627
f 588/610 583/623 577/622 619/607
f 619/607 577/622 578/628 618/615
f 578/628 579/629 614/616 618/615
f 578/628 580/598 613/601 579/629
f 578/628 577/622 581/599 580/598
f 627/627 595/630 596/631 628/626
f 645/632 629/600 648/582 647/564
f 645/632 647/564 646/567 644/594
f 645/632 626/633 627/627 629/600
f 636/606 606/611 607/590 638/589
f 582/621 585/581 584/580 581/599
f 582/621 583/623 586/634 585/581
f 586/634 583/623 588/610 587/609
f 586/634 590/576 589/575 585/581
f 586/634 587/609 591/635 590/576
f 591/635 587/609 593/608 592/614
f 591/635 595/630 594/577 590/576
f 591/635 592/614 596/631 595/630
f 596/631 592/614 598/613 597/620
f 597/620 600/624 628/626 596/631
f 597/620 599/619 601/625 600/624
f 636/606 638/589 637/591 574/592
f 643/605 626/633 645/632 644/594
f 594/577 595/630 627/627 626/633
f 594/577 626/633 643/605 625/574
f 643/605 644/594 639/588 641/573
g Group8043
f 445/636 566/637 564/638 455/639
f 445/636 456/640 568/641 566/637
f 445/636 457/642 458/643 456/640
f 446/644 461/645 447/646 462/647
f 446/644 463/648 464/649 461/645
f 446/644 460/650 459/651 463/648
f 446/644 445/636 455/639 460/650
f 446/644 462/647 457/642 445/636
f 448/652 465/653 456/640 458/643
f 449/654 466/655 467/656 468/657
f 449/654 469/658 470/659 466/655
f 449/654 468/657 471/660 469/658
f 450/661 472/662 473/663 474/664
f 451/665 478/666 479/667 480/668
f 451/665 473/663 472/662 478/666
f 451/665 471/660 468/657 473/663
f 452/669 481/670 482/671 483/672
f 452/669 524/673 523/674 481/670
f 452/669 483/672 525/675 524/673
f 453/676 484/677 485/678 486/679
f 453/676 486/679 487/680 488/681
f 453/676 482/671 489/682 484/677
f 453/676 488/681 490/683 491/684
f 453/676 491/684 483/672 482/671
f 454/685 489/682 482/671 481/670
f 454/685 481/670 523/674 570/686
f 454/685 570/686 492/687 489/682
f 492/687 493/688 484/677 489/682
f 493/688 475/689 485/678 484/677
f 493/688 492/687 494/690 495/691
f 493/688 495/691 496/692 475/689
f 496/692 495/691 497/693 498/694
f 496/692 498/694 447/646 461/645
f 496/692 461/645 464/649 475/689
f 498/694 497/693 499/695 500/696
f 498/694 500/696 462/647 447/646
f 500/696 499/695 506/697 501/698
f 500/696 501/698 457/642 462/647
f 457/642 501/698 502/699 458/643
f 502/699 503/700 504/701 505/702
f 502/699 505/702 448/652 458/643
f 502/699 501/698 506/697 503/700
f 506/697 507/703 508/704 503/700
f 507/703 506/697 499/695 510/705
f 507/703 510/705 511/706 509/707
f 511/706 512/708 537/709 509/707
f 511/706 510/705 513/710 514/711
f 511/706 514/711 515/712 512/708
f 515/712 516/713 517/714 512/708
f 515/712 514/711 518/715 519/716
f 515/712 519/716 520/717 516/713
f 520/717 521/718 522/719 516/713
f 520/717 519/716 523/674 524/673
f 520/717 524/673 525/675 521/718
f 525/675 526/720 527/721 521/718
f 528/722 526/720 491/684 490/683
f 529/723 530/724 531/725 527/721
f 529/723 527/721 526/720 528/722
f 531/725 530/724 532/726 533/727
f 531/725 533/727 534/728 522/719
f 531/725 522/719 521/718 527/721
f 534/728 533/727 556/729 535/730
f 534/728 535/730 536/731 517/714
f 534/728 517/714 516/713 522/719
f 536/731 537/709 512/708 517/714
f 537/709 536/731 538/732 539/733
f 537/709 539/733 540/734 509/707
f 540/734 539/733 541/735 542/736
f 540/734 542/736 543/737 508/704
f 540/734 508/704 507/703 509/707
f 543/737 542/736 544/738 545/739
f 543/737 545/739 546/740 504/701
f 543/737 504/701 503/700 508/704
f 546/740 545/739 466/655 470/659
f 546/740 470/659 476/741 547/742
f 546/740 547/742 505/702 504/701
f 547/742 476/741 477/743 465/653
f 547/742 465/653 448/652 505/702
f 467/656 466/655 545/739 544/738
f 467/656 544/738 548/744 474/664
f 548/744 549/745 450/661 474/664
f 548/744 544/738 542/736 541/735
f 548/744 541/735 550/746 549/745
f 550/746 551/747 552/748 549/745
f 550/746 541/735 539/733 538/732
f 550/746 538/732 553/749 551/747
f 553/749 554/750 555/751 551/747
f 553/749 538/732 536/731 535/730
f 553/749 535/730 556/729 554/750
f 556/729 557/752 558/753 554/750
f 557/752 556/729 533/727 532/726
f 559/754 560/755 561/756 555/751
f 559/754 555/751 554/750 558/753
f 561/756 560/755 479/667 478/666
f 561/756 478/666 472/662 552/748
f 561/756 552/748 551/747 555/751
f 472/662 450/661 549/745 552/748
f 562/757 563/758 564/638 565/759
f 562/757 565/759 451/665 480/668
f 565/759 564/638 566/637 567/760
f 565/759 567/760 471/660 451/665
f 567/760 566/637 568/641 569/761
f 567/760 569/761 469/658 471/660
f 569/761 568/641 477/743 476/741
f 569/761 476/741 470/659 469/658
f 526/720 525/675 483/672 491/684
f 570/686 523/674 519/716 518/715
f 570/686 518/715 494/690 492/687
f 518/715 514/711 513/710 494/690
f 513/710 510/705 499/695 497/693
f 513/710 497/693 495/691 494/690
f 486/679 485/678 463/648 459/651
f 463/648 485/678 475/689 464/649
f 477/743 568/641 456/640 465/653
f 474/664 473/663 468/657 467/656
g Group8058
f 649/762 652/763 653/764 654/765
f 649/762 655/766 656/767 652/763
f 649/762 654/765 657/768 655/766
f 650/769 658/770 659/771 660/772
f 650/769 660/772 661/773 662/774
f 650/769 662/774 663/775 658/770
f 651/776 664/777 665/778 666/779
f 651/776 666/779 667/780 663/775
f 651/776 663/775 662/774 664/777
f 668/781 669/782 670/783 671/784
f 671/784 672/785 673/786 674/787
f 671/784 674/787 675/788 668/781
f 671/784 670/783 676/789 672/785
f 676/789 670/783 653/764 677/790
f 676/789 677/790 678/791 679/792
f 676/789 679/792 680/793 672/785
f 680/793 679/792 681/794 682/795
f 680/793 682/795 683/796 684/797
f 680/793 684/797 673/786 672/785
f 684/797 683/796 685/798 686/799
f 684/797 686/799 687/800 673/786
f 687/800 686/799 719/801 733/802
f 687/800 733/802 732/803 688/804
f 687/800 688/804 674/787 673/786
f 688/804 732/803 737/805 689/806
f 688/804 689/806 675/788 674/787
f 689/806 737/805 736/807 690/808
f 689/806 690/808 691/809 675/788
f 691/809 690/808 692/810 657/768
f 691/809 657/768 654/765 669/782
f 691/809 669/782 668/781 675/788
f 692/810 690/808 736/807 734/811
f 692/810 734/811 735/812 693/813
f 692/810 693/813 655/766 657/768
f 693/813 735/812 721/814 694/815
f 693/813 694/815 656/767 655/766
f 694/815 721/814 722/816 695/817
f 694/815 695/817 696/818 656/767
f 696/818 695/817 697/819 698/820
f 696/818 698/820 699/821 700/822
f 696/818 700/822 652/763 656/767
f 700/822 699/821 678/791 677/790
f 700/822 677/790 653/764 652/763
f 699/821 698/820 701/823 702/824
f 699/821 702/824 703/825 678/791
f 703/825 681/794 679/792 678/791
f 701/823 698/820 697/819 704/826
f 704/826 697/819 705/827 706/828
f 706/828 705/827 707/829 708/830
f 708/830 707/829 709/831 710/832
f 710/832 709/831 711/833 712/834
f 712/834 711/833 713/835 714/836
f 714/836 713/835 715/837 716/838
f 716/838 715/837 717/839 718/840
f 718/840 717/839 719/801 720/841
f 670/783 669/782 654/765 653/764
f 720/841 719/801 686/799 685/798
f 705/827 697/819 695/817 722/816
f 725/842 723/843 665/778 664/777
f 722/816 721/814 723/843 724/844
f 722/816 724/844 707/829 705/827
f 724/844 723/843 725/842 726/845
f 724/844 726/845 709/831 707/829
f 726/845 725/842 661/773 727/846
f 726/845 727/846 711/833 709/831
f 727/846 661/773 660/772 728/847
f 727/846 728/847 713/835 711/833
f 728/847 660/772 659/771 729/848
f 728/847 729/848 715/837 713/835
f 729/848 659/771 730/849 731/850
f 729/848 731/850 717/839 715/837
f 731/850 730/849 732/803 733/802
f 731/850 733/802 719/801 717/839
f 725/842 664/777 662/774 661/773
f 738/851 658/770 663/775 667/780
f 738/851 730/849 659/771 658/770
f 737/805 738/851 667/780 736/807
f 734/811 736/807 667/780 666/779
f 737/805 732/803 730/849 738/851
f 735/812 665/778 723/843 721/814
f 735/812 734/811 666/779 665/778
g Group8073
f 778/852 764/853 765/854 779/855
f 778/852 779/855 827/856 822/857
f 740/858 750/859 749/860 748/861
f 779/855 780/862 826/863 827/856
f 739/864 745/865 747/866 744/867
f 794/868 796/869 795/870 787/871
f 827/856 828/872 820/873 822/857
f 760/874 743/875 744/867 759/876
f 791/877 794/868 787/871 788/878
f 793/879 768/880 769/881 771/882
f 739/864 742/883 746/884 745/865
f 739/864 744/867 743/875 742/883
f 789/885 768/880 793/879 792/886
f 795/870 812/887 785/888 787/871
f 816/889 799/890 801/891 817/892
f 808/893 810/894 809/895 807/896
f 779/855 765/854 781/897 780/862
f 806/898 808/893 807/896 805/899
f 789/885 792/886 791/877 788/878
f 777/900 763/901 764/853 778/852
f 777/900 778/852 822/857 823/902
f 777/900 823/902 809/895 776/903
f 774/904 763/901 777/900 776/903
f 774/904 776/903 775/905 773/906
f 770/907 762/908 763/901 774/904
f 770/907 774/904 773/906 772/909
f 770/907 772/909 771/882 769/881
f 766/910 762/908 770/907 769/881
f 766/910 769/881 768/880 767/911
f 766/910 767/911 743/875 760/874
f 761/912 762/908 766/910 760/874
f 810/894 775/905 776/903 809/895
f 761/912 758/913 765/854 764/853
f 761/912 764/853 763/901 762/908
f 758/913 761/912 760/874 759/876
f 814/914 816/889 815/915 813/916
f 741/917 754/918 752/919 753/920
f 814/914 797/921 799/890 816/889
f 741/917 753/920 757/922 756/923
f 790/924 742/883 743/875 767/911
f 804/925 806/898 805/899 803/926
f 802/927 804/925 803/926 801/891
f 790/924 767/911 768/880 789/885
f 800/928 802/927 801/891 799/890
f 786/929 746/884 742/883 790/924
f 786/929 790/924 789/885 788/878
f 786/929 788/878 787/871 785/888
f 781/897 747/866 782/930 780/862
f 781/897 759/876 744/867 747/866
f 815/915 754/918 755/931 813/916
f 815/915 751/932 752/919 754/918
f 798/933 800/928 799/890 797/921
f 796/869 798/933 797/921 795/870
f 784/934 746/884 786/929 785/888
f 784/934 785/888 812/887 811/935
f 783/936 745/865 746/884 784/934
f 783/936 784/934 811/935 825/937
f 782/930 747/866 745/865 783/936
f 828/872 757/922 753/920 748/861
f 828/872 748/861 749/860 820/873
f 825/937 811/935 813/916 755/931
f 825/937 755/931 756/923 824/938
f 782/930 783/936 825/937 824/938
f 740/858 752/919 751/932 750/859
f 821/939 807/896 809/895 823/902
f 821/939 823/902 822/857 820/873
f 812/887 795/870 797/921 814/914
f 819/940 805/899 807/896 821/939
f 816/889 817/892 751/932 815/915
f 819/940 821/939 820/873 749/860
f 817/892 818/941 750/859 751/932
f 818/941 803/926 805/899 819/940
f 781/897 765/854 758/913 759/876
f 818/941 819/940 749/860 750/859
f 782/930 824/938 826/863 780/862
f 812/887 814/914 813/916 811/935
f 817/892 801/891 803/926 818/941
f 741/917 756/923 755/931 754/918
f 824/938 756/923 757/922 826/863
f 740/858 748/861 753/920 752/919
f 827/856 826/863 757/922 828/872

 