# Wavefront Obj file
# 
# verts: 180 uv-s: 522
mtllib elevator.mtl

g Group59614
#pivot 0.000000 0.000000 0.000000

v -1.281625 0.044237 -1.456708
v -1.293046 1.010584 -1.456708
v -1.281625 0.044237 -1.694519
v -1.293046 1.010584 -1.694519
v -1.158025 0.045695 -1.456708
v -1.169446 1.012042 -1.456708
v -1.158025 0.045695 -1.694519
v -1.169446 1.012042 -1.694519
v -1.281625 0.044237 -0.130677
v -1.293046 1.010584 -0.130677
v -1.281625 0.044237 0.107135
v -1.293046 1.010584 0.107135
v -1.158025 0.045695 -0.130677
v -1.169446 1.012042 -0.130677
v -1.158025 0.045695 0.107135
v -1.169446 1.012042 0.107135
v 1.281664 0.052296 -0.130677
v 1.301361 1.018738 -0.130677
v 1.281664 0.052296 0.107135
v 1.301361 1.018738 0.107135
v 1.158071 0.052977 -0.130677
v 1.177767 1.019420 -0.130677
v 1.158071 0.052977 0.107135
v 1.177767 1.019420 0.107135
v 1.281664 0.052296 -1.456708
v 1.301361 1.018738 -1.456708
v 1.281664 0.052296 -1.694519
v 1.301361 1.018738 -1.694519
v 1.158071 0.052977 -1.456708
v 1.177767 1.019420 -1.456708
v 1.158071 0.052977 -1.694519
v 1.177767 1.019420 -1.694519
v -1.292149 0.934661 0.107135
v -1.292149 0.934661 -0.130677
v -1.168549 0.936120 0.107135
v -1.168549 0.936120 -0.130677
v 1.299643 0.934456 -0.130677
v 1.299643 0.934456 0.107135
v 1.176049 0.935138 0.107135
v 1.176049 0.935138 -0.130677
v -1.181951 1.011895 0.107135
v -1.181054 0.935972 0.107135
v -1.170531 0.045548 0.107135
v -1.170531 0.045548 -0.130677
v -1.181054 0.935972 -0.130677
v -1.181951 1.011895 -0.130677
v 1.181000 0.935111 0.107135
v 1.182718 1.019393 0.107135
v 1.163022 0.052949 -0.130677
v 1.163022 0.052949 0.107135
v 1.181000 0.935111 -0.130677
v 1.182718 1.019393 -0.130677
v -1.181054 0.935972 0.116187
v -1.292149 0.934661 0.116187
v -1.293046 1.010584 0.116187
v -1.181951 1.011895 0.116187
v 1.301361 1.018738 0.116187
v 1.299643 0.934456 0.116187
v 1.181000 0.935111 0.116187
v 1.182718 1.019393 0.116187
v -1.301479 1.010484 -0.130677
v -1.301479 1.010484 0.107135
v -1.300582 0.934561 0.107135
v -1.300582 0.934561 -0.130677
v 1.308075 0.934284 0.107135
v 1.309793 1.018566 0.107135
v 1.309793 1.018566 -0.130677
v 1.308075 0.934284 -0.130677
v -1.301506 1.010484 0.116187
v -1.300609 0.934561 0.116187
v -1.300609 0.934561 0.107135
v -1.301506 1.010484 0.107135
v 1.308102 0.934284 0.116187
v 1.309820 1.018566 0.116187
v 1.309820 1.018566 0.107135
v 1.308102 0.934284 0.107135
v -1.291998 0.921936 -1.456708
v -1.291998 0.921936 -1.694519
v -1.168398 0.923394 -1.694519
v -1.168398 0.923394 -1.456708
v 1.299384 0.921737 -1.694519
v 1.299384 0.921737 -1.456708
v 1.175790 0.922419 -1.694519
v 1.175790 0.922419 -1.456708
v -1.299276 0.921850 -1.694519
v -1.300324 1.010498 -1.694519
v -1.300324 1.010498 -1.456708
v -1.299276 0.921850 -1.456708
v 1.308638 1.018590 -1.456708
v 1.308638 1.018590 -1.694519
v 1.306661 0.921589 -1.694519
v 1.306661 0.921589 -1.456708
v -1.293046 1.010584 -1.701798
v -1.291998 0.921936 -1.701798
v -1.168398 0.923394 -1.701798
v -1.169446 1.012042 -1.701798
v 1.175790 0.922419 -1.701798
v 1.299384 0.921737 -1.701798
v 1.301361 1.018738 -1.701798
v 1.177767 1.019420 -1.701798
v -1.299395 0.921849 -1.701798
v -1.300443 1.010496 -1.701798
v -1.300443 1.010496 -1.694519
v -1.299395 0.921849 -1.694519
v 1.308757 1.018587 -1.701798
v 1.306780 0.921586 -1.701798
v 1.306780 0.921586 -1.694519
v 1.308757 1.018587 -1.694519
v -1.252896 0.086251 -1.532841
v -1.269636 0.086251 -0.116438
v -1.252895 0.380358 -1.532842
v -1.269636 0.380358 -0.116441
v -1.173205 0.086251 -1.531903
v -1.189945 0.086251 -0.115501
v -1.173205 0.380358 -1.531906
v -1.189945 0.380358 -0.115506
v -1.256652 0.395917 -1.532669
v -1.265883 0.395917 -0.116195
v -1.256652 0.690025 -1.532665
v -1.265883 0.690025 -0.116198
v -1.176957 0.395918 -1.532149
v -1.186189 0.395918 -0.115678
v -1.176957 0.690025 -1.532152
v -1.186188 0.690024 -0.115677
v 1.252895 0.086251 -1.532841
v 1.269636 0.086251 -0.116438
v 1.252895 0.380358 -1.532842
v 1.269636 0.380358 -0.116441
v 1.173204 0.086251 -1.531903
v 1.189945 0.086251 -0.115501
v 1.173204 0.380358 -1.531906
v 1.189945 0.380358 -0.115506
v 1.256652 0.395917 -1.532669
v 1.265883 0.395917 -0.116195
v 1.256652 0.690025 -1.532665
v 1.265883 0.690025 -0.116198
v 1.176957 0.395918 -1.532149
v 1.186188 0.395918 -0.115678
v 1.176957 0.690025 -1.532152
v 1.186188 0.690024 -0.115677
v -1.426615 0.077234 0.200000
v 1.362101 0.074417 0.200000
v -1.426615 0.077234 -0.200000
v 1.362101 0.074417 -0.200000
v -1.426758 -0.064483 0.200000
v 1.361958 -0.067300 0.200000
v -1.426758 -0.064483 -0.200000
v 1.361958 -0.067300 -0.200000
v -1.372383 0.077180 -1.428146
v 1.416332 0.074363 -1.428146
v -1.372383 0.077180 -1.828147
v 1.416332 0.074363 -1.828147
v -1.372527 -0.064538 -1.428146
v 1.416189 -0.067355 -1.428146
v -1.372527 -0.064538 -1.828147
v 1.416189 -0.067355 -1.828147
v -1.388068 0.069404 -0.204914
v 1.400580 0.049643 -0.204914
v -1.388068 0.069404 -0.604914
v 1.400580 0.049643 -0.604914
v -1.389072 -0.072309 -0.204914
v 1.399576 -0.092070 -0.204914
v -1.389072 -0.072309 -0.604914
v 1.399576 -0.092070 -0.604914
v -1.419514 0.069414 -0.612922
v 1.369203 0.069414 -0.612922
v -1.419514 0.069414 -1.012923
v 1.369203 0.069414 -1.012923
v -1.419514 -0.072303 -0.612922
v 1.369203 -0.072303 -0.612922
v -1.419514 -0.072303 -1.012923
v 1.369203 -0.072303 -1.012923
v -1.407123 0.083408 -1.017840
v 1.381594 0.082324 -1.017840
v -1.407123 0.083408 -1.417840
v 1.381594 0.082324 -1.417840
v -1.407178 -0.058309 -1.017840
v 1.381539 -0.059393 -1.017840
v -1.407178 -0.058309 -1.417840
v 1.381539 -0.059393 -1.417840
# 180 positions

vt 0.607045 0.734089
vt 0.607045 0.580025
vt 0.648785 0.580025
vt 0.648785 0.734089
vt 0.657704 0.072775
vt 0.811767 0.072776
vt 0.811767 0.114516
vt 0.657704 0.114516
vt 0.222267 0.218380
vt 0.222267 0.176640
vt 0.243963 0.176640
vt 0.243963 0.218380
vt 0.924534 0.820375
vt 0.924534 0.974439
vt 0.902839 0.974439
vt 0.902838 0.820376
vt 0.245261 0.226235
vt 0.245261 0.267975
vt 0.223566 0.267975
vt 0.223566 0.226235
vt 0.599190 0.734089
vt 0.557450 0.734089
vt 0.557450 0.577792
vt 0.599190 0.577792
vt 0.706442 0.564465
vt 0.708637 0.564465
vt 0.708637 0.577792
vt 0.706442 0.577792
vt 0.549595 0.734089
vt 0.507855 0.734089
vt 0.507855 0.577792
vt 0.549595 0.577792
vt 0.372956 0.065420
vt 0.372956 0.063225
vt 0.414696 0.063225
vt 0.414696 0.065420
vt 0.726154 0.533725
vt 0.726154 0.535920
vt 0.569857 0.535920
vt 0.569857 0.533725
vt 0.927143 0.280112
vt 0.929338 0.280112
vt 0.929338 0.321853
vt 0.927143 0.321853
vt 0.656640 0.734089
vt 0.656640 0.579221
vt 0.698381 0.579221
vt 0.698381 0.734089
vt 0.914615 0.385882
vt 0.914615 0.400679
vt 0.913746 0.400665
vt 0.913746 0.385869
vt 0.752886 0.180607
vt 0.907755 0.180607
vt 0.907755 0.222348
vt 0.752886 0.222348
vt 0.531660 0.041741
vt 0.573401 0.041741
vt 0.573401 0.042610
vt 0.531660 0.042610
vt 0.916599 0.564101
vt 0.916599 0.718970
vt 0.915730 0.718984
vt 0.915730 0.564114
vt 0.321457 0.043725
vt 0.363198 0.043725
vt 0.363198 0.044593
vt 0.321457 0.044593
vt 0.861053 0.734089
vt 0.819312 0.734089
vt 0.819312 0.581454
vt 0.861053 0.581454
vt 0.479121 0.113238
vt 0.479121 0.071498
vt 0.631757 0.071498
vt 0.631757 0.113238
vt 0.640770 0.063434
vt 0.640770 0.041741
vt 0.682510 0.041741
vt 0.682510 0.063434
vt 0.222888 0.098434
vt 0.223211 0.076743
vt 0.375846 0.076743
vt 0.375524 0.098434
vt 0.954292 0.212348
vt 0.932598 0.212348
vt 0.932598 0.170608
vt 0.954292 0.170608
vt 0.708637 0.734089
vt 0.706442 0.734089
vt 0.507855 0.564465
vt 0.549595 0.564465
vt 0.556530 0.535920
vt 0.556530 0.533725
vt 0.914615 0.555547
vt 0.913746 0.555534
vt 0.922551 0.180607
vt 0.922551 0.222348
vt 0.916599 0.733767
vt 0.915730 0.733780
vt 0.372956 0.043725
vt 0.414696 0.043725
vt 0.726153 0.555420
vt 0.569857 0.555421
vt 0.948839 0.280112
vt 0.948839 0.321853
vt 0.573401 0.063434
vt 0.531660 0.063434
vt 0.894908 0.719293
vt 0.894908 0.564424
vt 0.363198 0.065418
vt 0.321457 0.065418
vt 0.728138 0.577791
vt 0.728138 0.734088
vt 0.556529 0.555420
vt 0.892924 0.555224
vt 0.892924 0.400356
vt 0.894908 0.734089
vt 0.803522 0.063003
vt 0.784022 0.063003
vt 0.784022 0.049676
vt 0.803522 0.049676
vt 0.651329 0.569433
vt 0.664656 0.569433
vt 0.664656 0.571022
vt 0.651329 0.571022
vt 0.244484 0.375518
vt 0.244484 0.356018
vt 0.246073 0.356018
vt 0.246073 0.375518
vt 0.948839 0.323441
vt 0.929338 0.323441
vt 0.826274 0.064050
vt 0.811480 0.064271
vt 0.811480 0.043446
vt 0.826274 0.043227
vt 0.364787 0.044593
vt 0.364787 0.065418
vt 0.244089 0.347734
vt 0.244089 0.326911
vt 0.245678 0.326911
vt 0.245678 0.347734
vt 0.244089 0.318400
vt 0.244089 0.303603
vt 0.245678 0.303603
vt 0.245678 0.318400
vt 0.222187 0.053644
vt 0.263927 0.053644
vt 0.263927 0.066971
vt 0.222187 0.066971
vt 0.569857 0.556901
vt 0.556529 0.556901
vt 0.950319 0.280112
vt 0.950319 0.321853
vt 0.629507 0.569433
vt 0.642834 0.569433
vt 0.642834 0.570913
vt 0.629507 0.570913
vt 0.244089 0.525870
vt 0.244089 0.484130
vt 0.245569 0.484130
vt 0.245569 0.525870
vt 0.271782 0.068440
vt 0.271782 0.053644
vt 0.313522 0.053644
vt 0.313522 0.068440
vt 0.599190 0.568930
vt 0.557450 0.568930
vt 0.557450 0.567449
vt 0.599190 0.567449
vt 0.717310 0.567449
vt 0.732105 0.567449
vt 0.732105 0.568930
vt 0.717310 0.568930
vt 0.363198 0.066899
vt 0.321457 0.066899
vt 0.893428 0.734089
vt 0.893428 0.719293
vt 0.734484 0.559514
vt 0.734484 0.546188
vt 0.736073 0.546188
vt 0.736073 0.559514
vt 0.950324 0.321853
vt 0.950324 0.323441
vt 0.782536 0.063003
vt 0.782536 0.049676
vt 0.246073 0.377004
vt 0.244484 0.377004
vt 0.738057 0.688462
vt 0.738057 0.701788
vt 0.736571 0.701788
vt 0.736571 0.688462
vt 0.540071 0.555547
vt 0.540071 0.540751
vt 0.541660 0.540751
vt 0.541660 0.555547
vt 0.244089 0.325425
vt 0.245678 0.325425
vt 0.811458 0.041960
vt 0.826252 0.041741
vt 0.364787 0.066904
vt 0.363198 0.066904
vt 0.606217 0.569433
vt 0.621012 0.569433
vt 0.621012 0.570918
vt 0.606217 0.570918
vt 0.835937 0.093320
vt 0.990000 0.093320
vt 0.990000 0.115016
vt 0.835937 0.115016
vt 0.827328 0.072776
vt 0.827328 0.114516
vt 0.924534 0.990000
vt 0.902839 0.990000
vt 0.835381 0.085254
vt 0.835059 0.063563
vt 0.987694 0.063563
vt 0.988016 0.085254
vt 0.648785 0.071498
vt 0.648785 0.113238
vt 0.392875 0.076743
vt 0.392552 0.098434
vt 0.924454 0.579042
vt 0.924454 0.563482
vt 0.966194 0.563482
vt 0.966194 0.579042
vt 0.244089 0.476274
vt 0.244089 0.434534
vt 0.245367 0.434534
vt 0.245367 0.476274
vt 0.688462 0.570711
vt 0.672903 0.570711
vt 0.672903 0.569433
vt 0.688462 0.569433
vt 0.222288 0.267975
vt 0.222288 0.226235
vt 0.901561 0.990000
vt 0.901561 0.974440
vt 0.523806 0.062738
vt 0.482066 0.062738
vt 0.482066 0.045708
vt 0.523806 0.045708
vt 0.375846 0.075466
vt 0.392875 0.075466
vt 0.931321 0.212348
vt 0.931321 0.170608
vt 0.246073 0.278639
vt 0.246073 0.295668
vt 0.244795 0.295668
vt 0.244795 0.278639
vt 0.244089 0.426679
vt 0.244089 0.384939
vt 0.245367 0.384939
vt 0.245367 0.426679
vt 0.531741 0.539676
vt 0.531741 0.555237
vt 0.510046 0.555237
vt 0.510046 0.539676
vt 0.245261 0.269253
vt 0.223566 0.269253
vt 0.738057 0.711095
vt 0.738057 0.732790
vt 0.736779 0.732790
vt 0.736779 0.711095
vt 0.811767 0.071498
vt 0.827328 0.071498
vt 0.773527 0.062736
vt 0.751832 0.062754
vt 0.752070 0.045727
vt 0.773765 0.045708
vt 0.648785 0.114516
vt 0.631757 0.114516
vt 0.736779 0.679228
vt 0.736779 0.657536
vt 0.738057 0.657536
vt 0.738057 0.679228
vt 0.932598 0.169330
vt 0.954292 0.169330
vt 0.738057 0.633226
vt 0.738057 0.648785
vt 0.736779 0.648785
vt 0.736779 0.633226
vt 0.738057 0.734089
vt 0.736779 0.734089
vt 0.508747 0.555237
vt 0.508747 0.539676
vt 0.222267 0.269253
vt 0.222267 0.267975
vt 0.738057 0.609421
vt 0.738057 0.624980
vt 0.736758 0.624980
vt 0.736758 0.609421
vt 0.736779 0.601174
vt 0.736779 0.584145
vt 0.738057 0.584145
vt 0.738057 0.601174
vt 0.931300 0.170608
vt 0.931300 0.169330
vt 0.750536 0.062736
vt 0.750775 0.045708
vt 0.738057 0.680526
vt 0.736779 0.680526
vt 0.769798 0.235469
vt 0.752769 0.235469
vt 0.752769 0.234170
vt 0.769798 0.234170
vt 0.751901 0.492065
vt 0.751901 0.243442
vt 0.803522 0.243442
vt 0.803522 0.492065
vt 0.733442 0.123077
vt 0.982065 0.123077
vt 0.982065 0.137065
vt 0.733442 0.137065
vt 0.811415 0.492065
vt 0.811415 0.243442
vt 0.863036 0.243442
vt 0.863036 0.492065
vt 0.944372 0.220242
vt 0.944372 0.271862
vt 0.930384 0.271862
vt 0.930384 0.220242
vt 0.236255 0.277814
vt 0.236255 0.526436
vt 0.222267 0.526436
vt 0.222267 0.277814
vt 0.932368 0.930486
vt 0.932368 0.878865
vt 0.946356 0.878865
vt 0.946356 0.930486
vt 0.819350 0.990000
vt 0.819350 0.741377
vt 0.870972 0.741377
vt 0.870972 0.990000
vt 0.884858 0.229556
vt 0.884858 0.478178
vt 0.870870 0.478178
vt 0.870870 0.229556
vt 0.470243 0.158828
vt 0.221620 0.158828
vt 0.221620 0.107206
vt 0.470243 0.107206
vt 0.948340 0.759837
vt 0.948340 0.811458
vt 0.934352 0.811458
vt 0.934352 0.759837
vt 0.982065 0.158887
vt 0.733442 0.158887
vt 0.733442 0.144899
vt 0.982065 0.144899
vt 0.474211 0.063664
vt 0.422590 0.063664
vt 0.422590 0.049676
vt 0.474211 0.049676
vt 0.559514 0.990000
vt 0.507893 0.990000
vt 0.507893 0.741377
vt 0.559514 0.741377
vt 0.870870 0.485466
vt 0.884858 0.485466
vt 0.884858 0.734089
vt 0.870870 0.734089
vt 0.619028 0.990000
vt 0.567407 0.990000
vt 0.567407 0.741377
vt 0.619028 0.741377
vt 0.581294 0.063664
vt 0.581294 0.049676
vt 0.632915 0.049676
vt 0.632915 0.063664
vt 0.892794 0.990000
vt 0.878805 0.990000
vt 0.878805 0.741377
vt 0.892794 0.741377
vt 0.742024 0.049676
vt 0.742024 0.063664
vt 0.690404 0.063664
vt 0.690404 0.049676
vt 0.678542 0.990000
vt 0.626921 0.990000
vt 0.626921 0.741377
vt 0.678542 0.741377
vt 0.477531 0.158887
vt 0.477531 0.144899
vt 0.726154 0.144899
vt 0.726154 0.158887
vt 0.738057 0.990000
vt 0.686435 0.990000
vt 0.686435 0.741377
vt 0.738057 0.741377
vt 0.932368 0.938379
vt 0.946356 0.938379
vt 0.946356 0.990000
vt 0.932368 0.990000
vt 0.726154 0.123077
vt 0.726154 0.137065
vt 0.477531 0.137065
vt 0.477531 0.123077
vt 0.946356 0.870972
vt 0.932368 0.870972
vt 0.932368 0.819351
vt 0.946356 0.819351
vt 0.010000 0.919792
vt 0.499472 0.919792
vt 0.499472 0.990000
vt 0.010000 0.990000
vt 0.777733 0.500528
vt 0.777733 0.990000
vt 0.752859 0.990000
vt 0.752859 0.500528
vt 0.010000 0.842424
vt 0.499472 0.842424
vt 0.499472 0.912632
vt 0.010000 0.912632
vt 0.948340 0.407969
vt 0.948340 0.478178
vt 0.923466 0.478178
vt 0.923466 0.407969
vt 0.145967 0.035789
vt 0.145967 0.525262
vt 0.121093 0.525262
vt 0.121093 0.035789
vt 0.820310 0.574175
vt 0.820310 0.503968
vt 0.845182 0.503968
vt 0.845182 0.574175
vt 0.010000 0.765055
vt 0.499472 0.765055
vt 0.499472 0.835263
vt 0.010000 0.835263
vt 0.254536 0.267895
vt 0.744008 0.267895
vt 0.744008 0.292769
vt 0.254536 0.292769
vt 0.010000 0.687687
vt 0.499472 0.687687
vt 0.499472 0.757895
vt 0.010000 0.757895
vt 0.925451 0.657495
vt 0.925451 0.587287
vt 0.950324 0.587287
vt 0.950324 0.657495
vt 0.213417 0.035789
vt 0.213417 0.525262
vt 0.188543 0.525262
vt 0.188543 0.035789
vt 0.470243 0.098356
vt 0.400034 0.098356
vt 0.400034 0.073482
vt 0.470243 0.073482
vt 0.010000 0.610319
vt 0.499472 0.610319
vt 0.499472 0.680526
vt 0.010000 0.680526
vt 0.811458 0.500528
vt 0.811458 0.990000
vt 0.786583 0.990000
vt 0.786583 0.500528
vt 0.010000 0.532950
vt 0.499472 0.532950
vt 0.499472 0.603158
vt 0.010000 0.603158
vt 0.918583 0.229427
vt 0.918583 0.299636
vt 0.893709 0.299636
vt 0.893709 0.229427
vt 0.112242 0.035789
vt 0.112243 0.525262
vt 0.087368 0.525262
vt 0.087368 0.035789
vt 0.923466 0.555547
vt 0.923466 0.485337
vt 0.948340 0.485337
vt 0.948340 0.555547
vt 0.744008 0.526564
vt 0.254536 0.526564
vt 0.254536 0.456356
vt 0.744008 0.456356
vt 0.154818 0.525262
vt 0.154818 0.035789
vt 0.179692 0.035789
vt 0.179692 0.525262
vt 0.744008 0.449196
vt 0.254536 0.449196
vt 0.254536 0.378988
vt 0.744008 0.378988
vt 0.918583 0.306795
vt 0.918583 0.377004
vt 0.893709 0.377004
vt 0.893709 0.306795
vt 0.744008 0.259044
vt 0.254536 0.259044
vt 0.254536 0.234170
vt 0.744008 0.234170
vt 0.901646 0.812232
vt 0.901646 0.742024
vt 0.926518 0.742024
vt 0.926518 0.812232
vt 0.744008 0.371827
vt 0.254536 0.371827
vt 0.254536 0.301619
vt 0.744008 0.301619
vt 0.254536 0.200445
vt 0.744008 0.200445
vt 0.744008 0.225319
vt 0.254536 0.225319
vt 0.080208 0.035789
vt 0.080208 0.525262
vt 0.010000 0.525262
vt 0.010000 0.035789
vt 0.950324 0.663880
vt 0.950324 0.734089
vt 0.925450 0.734089
vt 0.925450 0.663880
vt 0.744008 0.191595
vt 0.254536 0.191595
vt 0.254536 0.166721
vt 0.744008 0.166721
vt 0.927434 0.400810
vt 0.927434 0.330601
vt 0.952308 0.330601
vt 0.952308 0.400810
# 522 texture coordinates

vn -0.570496 -0.584129 0.577346
vn -0.008345 0.707058 0.707107
vn -0.570496 -0.584129 -0.577346
vn -0.011823 0.999930 0.000000
vn 0.584124 -0.570491 0.577355
vn 0.570495 0.584129 0.577346
vn 0.584124 -0.570491 -0.577355
vn 0.698708 0.715407 0.000000
vn -0.570494 -0.584130 -0.577347
vn -0.008365 0.707057 -0.707107
vn -0.570494 -0.584130 0.577347
vn -0.011820 0.999930 0.000000
vn 0.584108 -0.570500 -0.577363
vn 0.570509 0.584121 -0.577341
vn 0.584108 -0.570500 0.577363
vn 0.570509 0.584121 0.577341
vn 0.571228 -0.586207 -0.574509
vn 0.009163 0.707038 -0.707116
vn 0.571228 -0.586207 0.574509
vn 0.012942 0.999916 0.000000
vn -0.583364 -0.568374 -0.580205
vn -0.571242 0.586201 -0.574501
vn -0.583364 -0.568374 0.580205
vn -0.571242 0.586201 0.574501
vn 0.571225 -0.586208 0.574510
vn 0.009143 0.707038 0.707116
vn 0.571225 -0.586208 -0.574510
vn 0.012949 0.999916 0.000000
vn -0.583309 -0.568402 0.580233
vn -0.571222 0.586210 0.574511
vn -0.583309 -0.568402 -0.580233
vn -0.697891 0.716204 0.000000
vn -0.290797 -0.908035 0.301512
vn -0.297918 -0.305054 -0.904537
vn 0.707057 0.008355 0.707107
vn 0.707057 0.008355 -0.707107
vn 0.295299 -0.307593 -0.904536
vn 0.287122 -0.909337 0.301110
vn -0.706960 0.014409 0.707107
vn -0.706960 0.014409 -0.707107
vn 0.290826 0.908027 0.301509
vn 0.305048 -0.297929 0.904535
vn 0.008327 -0.707058 0.707107
vn 0.008327 -0.707058 -0.707107
vn 0.000000 0.000000 -1.000000
vn -0.008330 0.707058 -0.707107
vn -0.303524 -0.295762 0.905759
vn -0.295276 0.906992 0.300295
vn -0.003944 -0.707096 -0.707107
vn -0.003944 -0.707096 0.707107
vn 0.000000 0.000000 -1.000000
vn 0.003884 0.707096 -0.707107
vn 0.584125 -0.570492 0.577353
vn 0.008349 -0.707057 0.707107
vn -0.008351 0.707057 0.707107
vn 0.570495 0.584128 0.577348
vn 0.009140 0.707038 0.707116
vn -0.009140 -0.707038 0.707116
vn -0.583314 -0.568397 0.580231
vn -0.571221 0.586211 0.574511
vn -0.584148 0.570481 -0.577341
vn -0.584148 0.570481 0.577341
vn -0.570475 -0.584137 0.577358
vn -0.570475 -0.584137 -0.577358
vn 0.565457 -0.589000 0.577353
vn 0.589003 0.565461 0.577347
vn 0.589003 0.565461 -0.577347
vn 0.565457 -0.589000 -0.577353
vn -0.584133 0.570488 0.577349
vn -0.570489 -0.584130 0.577351
vn -0.570489 -0.584130 -0.577351
vn -0.584133 0.570488 -0.577349
vn 0.565483 -0.588988 0.577341
vn 0.588978 0.565474 0.577360
vn 0.588978 0.565474 -0.577360
vn 0.565483 -0.588988 -0.577341
vn -0.297930 -0.305053 0.904533
vn -0.290826 -0.908027 -0.301509
vn 0.908033 -0.290802 -0.301513
vn 0.707057 0.008357 0.707107
vn 0.287116 -0.909338 -0.301111
vn 0.295317 -0.307592 0.904530
vn -0.909704 -0.284229 -0.302741
vn -0.706960 0.014409 0.707107
vn -0.570490 -0.584132 -0.577348
vn -0.584130 0.570488 -0.577352
vn -0.584130 0.570488 0.577352
vn -0.570490 -0.584132 0.577348
vn 0.588982 0.565473 0.577357
vn 0.588982 0.565473 -0.577357
vn 0.565483 -0.588987 -0.577342
vn 0.565483 -0.588987 0.577342
vn -0.008375 0.707057 -0.707107
vn 0.008327 -0.707058 -0.707107
vn 0.584125 -0.570491 -0.577355
vn 0.570495 0.584129 -0.577346
vn -0.583313 -0.568398 -0.580232
vn -0.009170 -0.707038 -0.707117
vn 0.009170 0.707038 -0.707117
vn -0.571222 0.586210 -0.574511
vn -0.570510 -0.584123 -0.577338
vn -0.584162 0.570470 -0.577337
vn -0.584162 0.570470 0.577337
vn -0.570510 -0.584123 0.577338
vn 0.589010 0.565458 -0.577342
vn 0.565450 -0.589002 -0.577358
vn 0.565450 -0.589002 0.577358
vn 0.589010 0.565458 0.577342
vn -0.570508 -0.577341 -0.584121
vn -0.584106 -0.577361 0.570504
vn -0.570512 0.577336 -0.584123
vn -0.584102 0.577370 0.570499
vn 0.584109 -0.577364 -0.570497
vn 0.570519 -0.577331 0.584121
vn 0.584111 0.577359 -0.570500
vn 0.570514 0.577340 0.584117
vn -0.573588 -0.577344 -0.581095
vn -0.581097 -0.577351 0.573579
vn -0.573588 0.577344 -0.581094
vn -0.581096 0.577353 0.573577
vn 0.581089 -0.577356 -0.573582
vn 0.573581 -0.577347 0.581099
vn 0.581088 0.577357 -0.573582
vn 0.573579 0.577350 0.581098
vn 0.570508 -0.577341 -0.584121
vn 0.584106 -0.577361 0.570504
vn 0.570512 0.577336 -0.584123
vn 0.584102 0.577370 0.570499
vn -0.584109 -0.577364 -0.570497
vn -0.570519 -0.577331 0.584121
vn -0.584111 0.577360 -0.570500
vn -0.570514 0.577340 0.584117
vn 0.573588 -0.577344 -0.581095
vn 0.581097 -0.577351 0.573579
vn 0.573588 0.577344 -0.581094
vn 0.581096 0.577354 0.573577
vn -0.581089 -0.577356 -0.573582
vn -0.573581 -0.577347 0.581099
vn -0.581087 0.577357 -0.573582
vn -0.573578 0.577350 0.581098
vn -0.576767 0.577933 0.577350
vn 0.577933 0.576766 0.577350
vn -0.576767 0.577933 -0.577350
vn 0.577933 0.576766 -0.577350
vn -0.577933 -0.576766 0.577350
vn 0.576767 -0.577933 0.577350
vn -0.577933 -0.576766 -0.577350
vn 0.576767 -0.577933 -0.577350
vn -0.576767 0.577934 0.577350
vn 0.577933 0.576766 0.577350
vn -0.576767 0.577934 -0.577350
vn 0.577933 0.576766 -0.577350
vn -0.577933 -0.576766 0.577350
vn 0.576767 -0.577934 0.577350
vn -0.577933 -0.576766 -0.577350
vn 0.576767 -0.577934 -0.577350
vn -0.573245 0.581427 0.577350
vn 0.581427 0.573245 0.577350
vn -0.573245 0.581427 -0.577350
vn 0.581427 0.573245 -0.577350
vn -0.581427 -0.573245 0.577350
vn 0.573245 -0.581427 0.577350
vn -0.581427 -0.573245 -0.577350
vn 0.573245 -0.581427 -0.577350
vn -0.577350 0.577350 0.577350
vn 0.577350 0.577350 0.577350
vn -0.577350 0.577350 -0.577350
vn 0.577350 0.577350 -0.577350
vn -0.577350 -0.577350 0.577350
vn 0.577350 -0.577350 0.577350
vn -0.577350 -0.577350 -0.577350
vn 0.577350 -0.577350 -0.577350
vn -0.577126 0.577575 0.577350
vn 0.577574 0.577127 0.577350
vn -0.577126 0.577575 -0.577350
vn 0.577574 0.577127 -0.577350
vn -0.577575 -0.577126 0.577350
vn 0.577126 -0.577574 0.577351
vn -0.577575 -0.577126 -0.577350
vn 0.577126 -0.577574 -0.577351
# 180 normals

usemtl defaultMat
f 1/1/1 77/2/77 78/3/78 3/4/3
f 7/5/7 79/6/79 80/7/80 5/8/5
f 7/9/7 5/10/5 1/11/1 3/12/3
f 5/13/5 80/14/80 77/15/77 1/16/1
f 6/17/6 8/18/8 4/19/4 2/20/2
f 9/21/9 11/22/11 33/23/33 34/24/34
f 16/25/16 41/26/41 42/27/42 35/28/35
f 15/29/15 13/30/13 36/31/36 35/32/35
f 15/33/15 43/34/43 44/35/44 13/36/13
f 13/37/13 44/38/44 45/39/45 36/40/36
f 14/41/14 46/42/46 41/43/41 16/44/16
f 17/45/17 37/46/37 38/47/38 19/48/19
f 24/49/24 39/50/39 47/51/47 48/52/48
f 23/53/23 39/54/39 40/55/40 21/56/21
f 23/57/23 21/58/21 49/59/49 50/60/50
f 21/61/21 40/62/40 51/63/51 49/64/49
f 22/65/22 24/66/24 48/67/48 52/68/52
f 25/69/25 27/70/27 81/71/81 82/72/82
f 31/73/31 29/74/29 84/75/84 83/76/83
f 31/77/31 27/78/27 25/79/25 29/80/29
f 29/81/29 25/82/25 82/83/82 84/84/84
f 30/85/30 26/86/26 28/87/28 32/88/32
f 35/28/35 42/27/42 43/89/43 15/90/15
f 35/32/35 36/31/36 14/91/14 16/92/16
f 36/40/36 45/39/45 46/93/46 14/94/14
f 39/50/39 23/95/23 50/96/50 47/51/47
f 39/54/39 24/97/24 22/98/22 40/55/40
f 40/62/40 22/99/22 52/100/52 51/63/51
f 43/34/43 11/101/11 9/102/9 44/35/44
f 44/38/44 9/103/9 34/104/34 45/39/45
f 46/42/46 10/105/10 12/106/12 41/43/41
f 50/60/50 49/59/49 17/107/17 19/108/19
f 49/64/49 51/63/51 37/109/37 17/110/17
f 52/68/52 48/67/48 20/111/20 18/112/18
f 42/27/42 33/113/33 11/114/11 43/89/43
f 45/39/45 34/104/34 10/115/10 46/93/46
f 47/51/47 50/96/50 19/116/19 38/117/38
f 51/63/51 52/100/52 18/118/18 37/109/37
f 56/119/56 55/120/55 54/121/54 53/122/53
f 42/123/42 41/124/41 56/125/56 53/126/53
f 33/127/33 42/128/42 53/129/53 54/130/54
f 41/43/41 12/106/12 55/131/55 56/132/56
f 60/133/60 59/134/59 58/135/58 57/136/57
f 20/111/20 48/67/48 60/137/60 57/138/57
f 47/139/47 38/140/38 58/141/58 59/142/59
f 48/143/48 47/144/47 59/145/59 60/146/60
f 64/147/64 63/148/63 62/149/62 61/150/61
f 10/115/10 34/104/34 64/151/64 61/152/61
f 12/106/12 10/105/10 61/153/61 62/154/62
f 33/155/33 12/156/12 62/157/62 63/158/63
f 34/159/34 33/160/33 63/161/63 64/162/64
f 68/163/68 67/164/67 66/165/66 65/166/65
f 38/167/38 37/168/37 68/169/68 65/170/65
f 20/171/20 38/172/38 65/173/65 66/174/66
f 18/112/18 20/111/20 66/175/66 67/176/67
f 37/109/37 18/118/18 67/177/67 68/178/68
f 72/179/72 71/180/71 70/181/70 69/182/69
f 55/131/55 12/106/12 72/183/72 69/184/69
f 54/121/54 55/120/55 69/185/69 70/186/70
f 33/127/33 54/130/54 70/187/70 71/188/71
f 12/189/12 33/190/33 71/191/71 72/192/72
f 76/193/76 75/194/75 74/195/74 73/196/73
f 58/141/58 38/140/38 76/197/76 73/198/73
f 57/136/57 58/135/58 73/199/73 74/200/74
f 20/111/20 57/138/57 74/201/74 75/202/75
f 38/203/38 20/204/20 75/205/75 76/206/76
f 79/207/79 7/208/7 3/209/3 78/210/78
f 79/6/79 8/211/8 6/212/6 80/7/80
f 80/14/80 6/213/6 2/214/2 77/15/77
f 83/215/83 81/216/81 27/217/27 31/218/31
f 83/76/83 84/75/84 30/219/30 32/220/32
f 84/84/84 82/83/82 26/221/26 30/222/30
f 88/223/88 87/224/87 86/225/86 85/226/85
f 78/227/78 77/228/77 88/229/88 85/230/85
f 4/231/4 78/232/78 85/233/85 86/234/86
f 2/20/2 4/19/4 86/235/86 87/236/87
f 77/15/77 2/214/2 87/237/87 88/238/88
f 92/239/92 91/240/91 90/241/90 89/242/89
f 26/221/26 82/83/82 92/243/92 89/244/89
f 28/87/28 26/86/26 89/245/89 90/246/90
f 81/247/81 28/248/28 90/249/90 91/250/91
f 82/251/82 81/252/81 91/253/91 92/254/92
f 96/255/96 95/256/95 94/257/94 93/258/93
f 4/19/4 8/18/8 96/259/96 93/260/93
f 79/261/79 78/262/78 94/263/94 95/264/95
f 8/211/8 79/6/79 95/265/95 96/266/96
f 100/267/100 99/268/99 98/269/98 97/270/97
f 83/76/83 32/220/32 100/271/100 97/272/97
f 81/273/81 83/274/83 97/275/97 98/276/98
f 32/88/32 28/87/28 99/277/99 100/278/100
f 104/279/104 103/280/103 102/281/102 101/282/101
f 94/263/94 78/262/78 104/283/104 101/284/101
f 93/258/93 94/257/94 101/285/101 102/286/102
f 4/19/4 93/260/93 102/287/102 103/288/103
f 78/289/78 4/290/4 103/291/103 104/292/104
f 108/293/108 107/294/107 106/295/106 105/296/105
f 99/277/99 28/87/28 108/297/108 105/298/105
f 98/269/98 99/268/99 105/299/105 106/300/106
f 81/273/81 98/276/98 106/301/106 107/302/107
f 28/303/28 81/304/81 107/305/107 108/306/108
f 109/307/109 110/308/110 112/309/112 111/310/111
f 116/311/116 115/312/115 111/313/111 112/314/112
f 115/315/115 116/316/116 114/317/114 113/318/113
f 115/319/115 113/320/113 109/321/109 111/322/111
f 113/323/113 114/324/114 110/325/110 109/326/109
f 114/327/114 116/328/116 112/329/112 110/330/110
f 117/331/117 118/332/118 120/333/120 119/334/119
f 124/335/124 123/336/123 119/337/119 120/338/120
f 123/339/123 124/340/124 122/341/122 121/342/121
f 123/343/123 121/344/121 117/345/117 119/346/119
f 121/347/121 122/348/122 118/349/118 117/350/117
f 122/351/122 124/352/124 120/353/120 118/354/118
f 125/355/125 127/356/127 128/357/128 126/358/126
f 132/359/132 128/360/128 127/361/127 131/362/131
f 131/363/131 129/364/129 130/365/130 132/366/132
f 131/367/131 127/368/127 125/369/125 129/370/129
f 129/371/129 125/372/125 126/373/126 130/374/130
f 130/375/130 126/376/126 128/377/128 132/378/132
f 133/379/133 135/380/135 136/381/136 134/382/134
f 140/383/140 136/384/136 135/385/135 139/386/139
f 139/387/139 137/388/137 138/389/138 140/390/140
f 139/391/139 135/392/135 133/393/133 137/394/137
f 137/395/137 133/396/133 134/397/134 138/398/138
f 138/399/138 134/400/134 136/401/136 140/402/140
f 141/403/141 142/404/142 144/405/144 143/406/143
f 148/407/148 147/408/147 143/409/143 144/410/144
f 147/411/147 148/412/148 146/413/146 145/414/145
f 147/415/147 145/416/145 141/417/141 143/418/143
f 145/419/145 146/420/146 142/421/142 141/422/141
f 146/423/146 148/424/148 144/425/144 142/426/142
f 149/427/149 150/428/150 152/429/152 151/430/151
f 156/431/156 155/432/155 151/433/151 152/434/152
f 155/435/155 156/436/156 154/437/154 153/438/153
f 155/439/155 153/440/153 149/441/149 151/442/151
f 153/443/153 154/444/154 150/445/150 149/446/149
f 154/447/154 156/448/156 152/449/152 150/450/150
f 157/451/157 158/452/158 160/453/160 159/454/159
f 164/455/164 163/456/163 159/457/159 160/458/160
f 163/459/163 164/460/164 162/461/162 161/462/161
f 163/463/163 161/464/161 157/465/157 159/466/159
f 161/467/161 162/468/162 158/469/158 157/470/157
f 162/471/162 164/472/164 160/473/160 158/474/158
f 165/475/165 166/476/166 168/477/168 167/478/167
f 172/479/172 171/480/171 167/481/167 168/482/168
f 171/483/171 172/484/172 170/485/170 169/486/169
f 171/487/171 169/488/169 165/489/165 167/490/167
f 169/491/169 170/492/170 166/493/166 165/494/165
f 170/495/170 172/496/172 168/497/168 166/498/166
f 173/499/173 174/500/174 176/501/176 175/502/175
f 180/503/180 179/504/179 175/505/175 176/506/176
f 179/507/179 180/508/180 178/509/178 177/510/177
f 179/511/179 177/512/177 173/513/173 175/514/175
f 177/515/177 178/516/178 174/517/174 173/518/173
f 178/519/178 180/520/180 176/521/176 174/522/174

# 154 faces
