# File exported by ZBrush version 2024
# www.zbrush.com
#Vertex Count 701
#UV Vertex Count 777
#Face Count 704
#Auto scale x=0.477189 y=0.477189 z=0.477189
#Auto offset x=-0.215254 y=0.000000 z=-0.000000
mtllib rusted_key.mtl
usemtl defaultMat
v 1.14448992 0.10852399 0.10700699
v 1.60573294 0.08064499 0.08714099
v 1.10483496 0.10911799 0.10734899
v 1.01854096 0.10995799 0.10995799
v 0.92866697 0.11115399 0.11115399
v 0.85874194 0.105795 0.105795
v 1.16431602 0.104561 0.10327499
v 1.08708095 0.10607399 0.10429599
v 0.76730998 0.12338399 0.10916099
v -0.85093802 0.09371799 0.09371799
v 0.835401 0.12283099 0.10860899
v 0.74337897 0.09805099 0.09805099
v 1.68532002 0.06710599 0.06940499
v 1.66586002 0.05605199 0.07996799
v 1.77151885 0.07288999 0.08695699
v 1.73571592 0.145731 0.08695699
v 1.7196659 0.22350998 0.08695699
v 1.71472792 0.3124 0.08695799
v 1.7406539 0.41240197 0.08695799
v 1.79497589 0.49635399 0.08695799
v 1.87522486 0.56549101 0.08695799
v 1.99251097 0.61734402 0.08695799
v 2.11473481 0.62598594 0.08695799
v 2.24683597 0.60623197 0.08695799
v 2.34807194 0.54820696 0.08695799
v 2.41227101 0.46919299 0.08695799
v 2.45177783 0.39141398 0.08695799
v 2.46782697 0.28400498 0.08695799
v 1.82847402 0.07030299 0.06117799
v 1.78989302 0.14146299 0.06117799
v 1.7641719 0.224626 0.06117799
v 1.76331491 0.32236498 0.06117799
v 1.78989302 0.41152996 0.06117899
v 1.843906 0.48954898 0.06117899
v 1.92792693 0.55127794 0.06117899
v 2.02909395 0.58042797 0.06117899
v 2.14312184 0.58557199 0.06117899
v 2.24686195 0.55728001 0.06117899
v 2.33431185 0.51183995 0.06117899
v 2.39003993 0.43982197 0.06117899
v 2.41661805 0.36094598 0.06117799
v 2.42604883 0.27006599 0.06117799
v 2.39432677 0.075447 0.06117799
v 1.6699119 0.126366 0.06940499
v 1.65598594 0.20577499 0.06940499
v 1.66309694 0.305332 0.06940499
v 1.69124602 0.41377799 0.06940499
v 1.74783896 0.51126097 0.06940499
v 1.83406302 0.58948497 0.06940499
v 1.9662129 0.65674497 0.06940499
v 2.10191877 0.66859697 0.06940499
v 2.25777289 0.65022697 0.06940499
v 2.37658987 0.58563294 0.06940499
v 2.45214705 0.50711295 0.06940499
v 2.50103669 0.41525999 0.06940499
v 2.51881506 0.31007297 0.06940499
v 2.50992612 0.08340199 0.06940499
v 1.16431602 -0 0.15351
v 1.14448992 -0.10852399 0.10700699
v 1.61995493 -0 0.11244499
v 1.60573294 -0.08064499 0.08714099
v 1.14448992 -0 0.17023299
v 1.10483496 -0.10911799 0.10734899
v 1.10483496 -0 0.16999999
v 1.01854096 -0 0.185349
v 1.01854096 -0.10995799 0.10995799
v 0.92866697 -0.11115399 0.11115399
v 0.92866697 -0 0.18507798
v 0.85874194 -0.105795 0.105795
v 0.85874194 -0 0.16054699
v 1.16431602 -0.104561 0.10327499
v 1.08708095 -0 0.15734
v 0.76730998 -0 0.172525
v -0.85093802 -0 0.13253699
v 1.08708095 -0.10607399 0.10429599
v 0.76730998 -0.12338399 0.10916099
v -0.85093802 -0.09371799 0.09371799
v 0.835401 -0.12283099 0.10860899
v 0.835401 -0 0.17381299
v 0.74337897 -0.09805099 0.09805099
v 0.74337897 -0 0.13784498
v 1.72994393 -0 0.094819
v 1.78913795 -0 0.08878599
v 1.85333703 -0 0.06117799
v 1.68532002 -0.06710599 0.06940499
v 1.66586002 -0.05605199 0.07996799
v 1.67494906 -0 0.103632
v 1.77151885 -0.07288999 0.08695699
v 1.73571592 -0.145731 0.08695699
v 1.7196659 -0.22350998 0.08695699
v 1.71472792 -0.3124 0.08695799
v 1.7406539 -0.41240197 0.08695799
v 1.79497589 -0.49635399 0.08695799
v 1.87522486 -0.56549101 0.08695799
v 1.99251097 -0.61734402 0.08695799
v 2.11473481 -0.62598594 0.08695799
v 2.24683597 -0.60623297 0.08695799
v 2.34807194 -0.54820696 0.08695799
v 2.41227101 -0.46919299 0.08695799
v 2.45177783 -0.39141398 0.08695799
v 2.46782697 -0.28400498 0.08695799
v 2.43202392 -0 0.08695699
v 1.82847402 -0.07030299 0.06117799
v 1.78989302 -0.14146299 0.06117799
v 1.7641719 -0.224627 0.06117799
v 1.76331491 -0.32236498 0.06117799
v 1.78989302 -0.41152996 0.06117899
v 1.843906 -0.48954898 0.06117899
v 1.92792693 -0.55127794 0.06117899
v 2.02909395 -0.58042797 0.06117899
v 2.14312184 -0.58557199 0.06117899
v 2.24686195 -0.55728001 0.06117899
v 2.33431185 -0.51183995 0.06117899
v 2.39003993 -0.43982197 0.06117899
v 2.41661805 -0.36094598 0.06117799
v 2.42604883 -0.27006599 0.06117799
v 2.39432677 -0.075447 0.06117799
v 2.36088972 -0 0.06117799
v 1.6699119 -0.126366 0.06940499
v 1.65598594 -0.20577499 0.06940499
v 1.66309694 -0.305332 0.06940499
v 1.69124602 -0.41377799 0.06940499
v 1.74783896 -0.51126197 0.06940499
v 1.83406302 -0.58948497 0.06940499
v 1.9662129 -0.65674597 0.06940499
v 2.10191877 -0.66859797 0.06940499
v 2.25777289 -0.65022697 0.06940499
v 2.37658987 -0.58563294 0.06940499
v 2.45214705 -0.50711398 0.06940499
v 2.50103669 -0.41525999 0.06940499
v 2.51881506 -0.31007297 0.06940499
v 2.50992612 -0.08340299 0.06940499
v 2.50548091 -0 0.06940499
v 1.14448992 0.10852399 -0.10700699
v 1.85547895 0.073719 -0
v 1.81963792 0.15051999 -0
v 1.79403796 0.22988099 -0
v 1.79659794 0.337403 -0
v 1.82219803 0.416765 -0
v 1.60573294 0.08064499 -0.08714099
v 1.61995493 0.12235999 -0
v 1.14448992 0.17174998 -0
v 1.10483496 0.17176798 -0
v 1.10483496 0.10911799 -0.10734899
v 1.01854096 0.185349 -0
v 1.01854096 0.10995799 -0.10995799
v 0.92866697 0.11115399 -0.11115399
v 0.92866697 0.18507798 -0
v 0.85874194 0.105795 -0.105795
v 1.87595894 0.485886 -0
v 1.95532094 0.53196696 -0
v 2.04748199 0.55500694 -0
v 2.14732398 0.56012697 -0
v 2.2394859 0.53452701 -0
v 2.31116695 0.48332595 -0
v 2.36236688 0.421885 -0
v 2.39052782 0.35020398 -0
v 2.39564804 0.24780199 -0
v 2.30348687 0.03787799 -0
v 2.3546868 0.10699899 -0
v 2.54669096 0.09931899 -0
v 2.54669096 0.33484299 -0
v 2.52621009 0.43980498 -0
v 2.47757002 0.53196696 -0
v 2.37516792 0.61900797 -0
v 2.24716573 0.68556899 -0
v 2.09868316 0.69836897 -0
v 1.95532094 0.68300901 -0
v 1.81707794 0.61132796 -0
v 1.72235704 0.52684699 -0
v 1.65579496 0.40908499 -0
v 1.63275498 0.30412299 -0
v 1.63019499 0.20172098 -0
v 1.16431602 0.15479699 -0
v 1.16431602 0.104561 -0.10327499
v 1.08708095 0.10607399 -0.10429599
v 0.76730998 0.12338399 -0.10916099
v -0.85093802 0.09371799 -0.09371799
v 1.08708095 0.15911798 -0
v 0.76730998 0.186747 -0
v -0.85093802 0.13253699 -0
v 0.85874194 0.16054699 -0
v 0.835401 0.18803598 -0
v 0.835401 0.12283099 -0.10860899
v 0.74337897 0.13784498 -0
v 0.74337897 0.09805099 -0.09805099
v 1.68532002 0.06710599 -0.06940499
v 1.66586002 0.05605199 -0.07996799
v 1.77151885 0.07288999 -0.08695699
v 1.73571592 0.145731 -0.08695699
v 1.7196659 0.22350998 -0.08695699
v 1.71472792 0.3124 -0.08695799
v 1.7406539 0.41240197 -0.08695799
v 1.79497589 0.49635399 -0.08695799
v 1.87522486 0.56549101 -0.08695799
v 1.99251097 0.61734402 -0.08695799
v 2.11473481 0.62598594 -0.08695799
v 2.24683597 0.60623197 -0.08695799
v 2.34807194 0.54820696 -0.08695799
v 2.41227101 0.46919299 -0.08695799
v 2.45177783 0.39141398 -0.08695799
v 2.46782697 0.28400498 -0.08695799
v 1.82847402 0.07030299 -0.06117799
v 1.78989302 0.14146299 -0.06117799
v 1.7641719 0.224626 -0.06117799
v 1.76331491 0.32236498 -0.06117799
v 1.78989302 0.41152996 -0.06117899
v 1.843906 0.48954898 -0.06117899
v 1.92792693 0.55127794 -0.06117899
v 2.02909395 0.58042797 -0.06117899
v 2.14312184 0.58557199 -0.06117899
v 2.24686195 0.55728001 -0.06117899
v 2.33431185 0.51183995 -0.06117899
v 2.39003993 0.43982197 -0.06117899
v 2.41661805 0.36094598 -0.06117799
v 2.42604883 0.27006599 -0.06117799
v 2.39432677 0.075447 -0.06117799
v 1.6699119 0.126366 -0.06940499
v 1.65598594 0.20577499 -0.06940499
v 1.66309694 0.305332 -0.06940499
v 1.69124602 0.41377799 -0.06940499
v 1.74783896 0.51126097 -0.06940499
v 1.83406302 0.58948497 -0.06940499
v 1.9662129 0.65674497 -0.06940499
v 2.10191877 0.66859697 -0.06940499
v 2.25777289 0.65022697 -0.06940499
v 2.37658987 0.58563294 -0.06940499
v 2.45214705 0.50711295 -0.06940499
v 2.50103669 0.41525999 -0.06940499
v 2.51881506 0.31007297 -0.06940499
v 2.50992612 0.08340199 -0.06940499
v 1.16431602 -0 -0.15351
v 1.14448992 -0.10852399 -0.10700699
v 1.87595894 -0 -0
v 1.85547895 -0.073719 -0
v 1.81963792 -0.15051999 -0
v 1.79403796 -0.22988199 -0
v 1.79659794 -0.337403 -0
v 1.82219803 -0.416765 -0
v 1.61995493 -0 -0.11244499
v 1.60573294 -0.08064499 -0.08714099
v 1.61995493 -0.12235999 -0
v 1.14448992 -0 -0.17023299
v 1.14448992 -0.17174998 -0
v 1.10483496 -0.17176798 -0
v 1.10483496 -0.10911799 -0.10734899
v 1.10483496 -0 -0.16999999
v 1.01854096 -0.185349 -0
v 1.01854096 -0 -0.185349
v 1.01854096 -0.10995799 -0.10995799
v 0.92866697 -0.11115399 -0.11115399
v 0.92866697 -0.18507798 -0
v 0.92866697 -0 -0.18507798
v 0.85874194 -0.105795 -0.105795
v 0.85874194 -0 -0.16054699
v 1.87595894 -0.485886 -0
v 1.95532094 -0.53196696 -0
v 2.04748199 -0.55500694 -0
v 2.14732398 -0.56012697 -0
v 2.2394859 -0.53452701 -0
v 2.31116695 -0.48332595 -0
v 2.36236688 -0.421885 -0
v 2.39052782 -0.35020398 -0
v 2.39564804 -0.24780199 -0
v 2.29324694 -0 -0
v 2.30348687 -0.03787799 -0
v 2.3546868 -0.10699999 -0
v 2.54413085 -0 -0
v 2.54669096 -0.09931999 -0
v 2.54669096 -0.33484398 -0
v 2.52621009 -0.43980498 -0
v 2.47757002 -0.53196696 -0
v 2.37516792 -0.61900797 -0
v 2.24716573 -0.68556899 -0
v 2.09868316 -0.69836997 -0
v 1.95532094 -0.68300901 -0
v 1.81707794 -0.61132796 -0
v 1.72235704 -0.52684699 -0
v 1.65579496 -0.40908499 -0
v 1.63275498 -0.30412299 -0
v 1.63019499 -0.20172098 -0
v 1.16431602 -0.15479699 -0
v 1.16431602 -0.104561 -0.10327499
v 1.08708095 -0 -0.15734
v 0.76730998 -0 -0.172525
v -0.85093802 -0 -0.13253699
v 1.08708095 -0.10607399 -0.10429599
v 0.76730998 -0.12338399 -0.10916099
v -0.85093802 -0.09371799 -0.09371799
v 1.08708095 -0.15911798 -0
v 0.76730998 -0.186747 -0
v -0.85093802 -0.13253699 -0
v 0.85874194 -0.16054699 -0
v 0.835401 -0.18803598 -0
v 0.835401 -0.12283099 -0.10860899
v 0.835401 -0 -0.17381299
v 0.74337897 -0.13784498 -0
v 0.74337897 -0.09805099 -0.09805099
v 0.74337897 -0 -0.13784498
v 1.72994393 -0 -0.094819
v 1.78913795 -0 -0.08878599
v 1.85333703 -0 -0.06117799
v 1.68532002 -0.06710599 -0.06940499
v 1.66586002 -0.05605199 -0.07996799
v 1.67494906 -0 -0.103632
v 1.77151885 -0.07288999 -0.08695699
v 1.73571592 -0.145731 -0.08695699
v 1.7196659 -0.22350998 -0.08695699
v 1.71472792 -0.3124 -0.08695799
v 1.7406539 -0.41240197 -0.08695799
v 1.79497589 -0.49635399 -0.08695799
v 1.87522486 -0.56549101 -0.08695799
v 1.99251097 -0.61734402 -0.08695799
v 2.11473481 -0.62598594 -0.08695799
v 2.24683597 -0.60623297 -0.08695799
v 2.34807194 -0.54820696 -0.08695799
v 2.41227101 -0.46919299 -0.08695799
v 2.45177783 -0.39141398 -0.08695799
v 2.46782697 -0.28400498 -0.08695799
v 2.43202392 -0 -0.08695699
v 1.82847402 -0.07030299 -0.06117799
v 1.78989302 -0.14146299 -0.06117799
v 1.7641719 -0.224627 -0.06117799
v 1.76331491 -0.32236498 -0.06117799
v 1.78989302 -0.41152996 -0.06117899
v 1.843906 -0.48954898 -0.06117899
v 1.92792693 -0.55127794 -0.06117899
v 2.02909395 -0.58042797 -0.06117899
v 2.14312184 -0.58557199 -0.06117899
v 2.24686195 -0.55728001 -0.06117899
v 2.33431185 -0.51183995 -0.06117899
v 2.39003993 -0.43982197 -0.06117899
v 2.41661805 -0.36094598 -0.06117799
v 2.42604883 -0.27006599 -0.06117799
v 2.39432677 -0.075447 -0.06117799
v 2.36088972 -0 -0.06117799
v 1.6699119 -0.126366 -0.06940499
v 1.65598594 -0.20577499 -0.06940499
v 1.66309694 -0.305332 -0.06940499
v 1.69124602 -0.41377799 -0.06940499
v 1.74783896 -0.51126197 -0.06940499
v 1.83406302 -0.58948497 -0.06940499
v 1.9662129 -0.65674597 -0.06940499
v 2.10191877 -0.66859797 -0.06940499
v 2.25777289 -0.65022697 -0.06940499
v 2.37658987 -0.58563294 -0.06940499
v 2.45214705 -0.50711398 -0.06940499
v 2.50103669 -0.41525999 -0.06940499
v 2.51881506 -0.31007297 -0.06940499
v 2.50992612 -0.08340299 -0.06940499
v 2.50548091 -0 -0.06940499
v -0.84601528 0.12062279 0.13252744
v -0.90185653 0.10492118 -0.11978908
v -0.84529032 0.12366652 -0.14580268
v -0.84594133 0.09667281 0.14088305
v -0.90140836 0.08688944 -0.12983702
v -0.90170502 0.12217606 -0.10926
v -0.90202391 0.08594866 -0.09961333
v -0.90278409 0.09807011 0.11002119
v -0.90273713 0.1173974 0.09101504
v -0.84528544 0.13469627 -0.12611057
v -0.84556486 0.1000663 -0.1521158
v -0.84590624 0.10268903 -0.12337423
v -0.84540598 0.14664001 -0.09807044
v -0.84619515 0.1079629 -0.09333873
v -0.84643572 0.07194315 -0.09197048
v -0.84624336 0.06945845 -0.12410059
v -0.84600129 0.06848733 -0.1574982
v -0.84582767 0.03501885 -0.16597632
v -0.84618278 0.03513216 -0.12807186
v -0.8461869 -0.00000067 -0.12957862
v -0.84592735 -0.00000045 -0.16881676
v -0.84639975 0.03605908 -0.09342315
v -0.84639163 -0.00000065 -0.09405375
v -0.84652678 0.03717214 -0.06016692
v -0.84652303 -0.00000063 -0.06027135
v -0.8465951 0.03795865 -0.02717721
v -0.84659573 -0.00000047 -0.02700523
v -0.84663432 0.03808938 0.00618299
v -0.84663907 -0.00000046 0.00650801
v -0.84666555 0.03739684 0.04021476
v -0.84666655 -0.00000035 0.04070476
v -0.84654302 0.03605829 0.07635262
v -0.84646695 -0.00000047 0.07788576
v -0.84616992 0.0346874 0.11615288
v -0.84606787 -0.00000033 0.118639
v -0.84540798 0.03458911 0.16168499
v -0.84543296 -0.0000005 0.1646835
v -0.84441521 0.03603271 0.21291974
v -0.84482816 -0.00000038 0.21696775
v -0.8365835 0.0361859 0.21378588
v -0.83651143 -0.00000048 0.21718218
v -0.83132863 0.03666188 0.21691029
v -0.83122633 -0.00000042 0.21958419
v -0.8336077 0.04423344 0.26026005
v -0.83156208 -0.00000049 0.26385414
v -0.9027435 0.04210678 0.25282336
v -0.90280583 -0.00000056 0.25473051
v -0.90278235 0.03014363 0.15112083
v -0.90279246 -0.00000036 0.15932071
v -0.90279484 0.02621795 0.08987559
v -0.90279484 -0.00000048 0.09182471
v -0.90278797 0.02685744 0.06033857
v -0.90278847 -0.00000054 0.06054212
v -0.9027721 0.02797937 0.03398764
v -0.90277498 -0.00000039 0.03420511
v -0.90275062 0.02843464 0.00860923
v -0.90275811 -0.00000042 0.00877213
v -0.90272863 0.02824207 -0.01611449
v -0.90273575 -0.00000036 -0.01605626
v -0.9026748 0.02790561 -0.04103304
v -0.9026773 -0.0000006 -0.04127905
v -0.90258612 0.02757049 -0.0666176
v -0.90255864 -0.00000047 -0.06823372
v -0.90237327 0.02788126 -0.09543849
v -0.90228284 -0.00000042 -0.10126734
v -0.90172588 0.03045977 -0.13648742
v -0.90163444 -0.00000038 -0.15193221
v -0.89821722 0.04362264 -0.25517821
v -0.90006223 -0.0000005 -0.25851549
v -0.83293369 0.04411676 -0.25178244
v -0.83206371 -0.00000049 -0.25503547
v -0.83256696 0.03701078 -0.2136329
v -0.8332657 -0.00000049 -0.21601342
v -0.83850795 0.03680945 -0.21279583
v -0.83854205 -0.0000003 -0.21571062
v -0.84502201 0.03648321 -0.2116804
v -0.84573112 -0.00000046 -0.21529976
v -0.84551153 0.15603062 -0.06602222
v -0.8456523 0.16150912 -0.03216171
v -0.84631931 0.11711135 -0.02976167
v -0.84627958 0.11341429 -0.06219152
v -0.84657999 0.07657757 -0.02787929
v -0.8465319 0.0746809 -0.0601542
v -0.84640075 0.11801901 0.00357586
v -0.84660922 0.0770078 0.00518718
v -0.8464948 0.11560317 0.03736801
v -0.84664519 0.0755454 0.03892537
v -0.8465991 0.10967747 0.07081751
v -0.84668291 0.072282 0.07314908
v -0.84645046 0.10202396 0.10474234
v -0.84662783 0.06813631 0.10829629
v -0.84559584 0.06766535 0.15318193
v -0.84432653 0.10695651 0.18886857
v -0.84417214 0.07233629 0.20449599
v -0.83728311 0.10722665 0.18966226
v -0.83675262 0.07259109 0.20520915
v -0.83128554 0.10798377 0.19144382
v -0.83133862 0.07322822 0.20742317
v -0.83237073 0.12787143 0.22898784
v -0.83346605 0.08719454 0.24888845
v -0.90265194 0.12465077 0.22513637
v -0.90269354 0.08401613 0.24268163
v -0.90278309 0.07846336 0.1183098
v -0.90278572 0.05433755 0.12554931
v -0.90277872 0.08009132 0.0872974
v -0.90279034 0.05212153 0.08844928
v -0.90278235 0.05421892 0.05935139
v -0.90275661 0.08620004 0.05996625
v -0.90272314 0.09064539 0.03362707
v -0.90275187 0.05717823 0.03351007
v -0.90270128 0.12881477 0.06463584
v -0.9027144 0.13511484 0.03587627
v -0.90216555 0.14681696 0.00631571
v -0.90257775 0.09368447 0.00730244
v -0.90196195 0.1488478 -0.02539689
v -0.89955373 0.20039076 -0.16508445
v -0.89850575 0.16840355 -0.19789465
v -0.89714064 0.1303995 -0.22452998
v -0.89695103 0.08782736 -0.24415769
v -0.83294806 0.12861846 -0.22155068
v -0.83295131 0.08724491 -0.23998016
v -0.83243256 0.10973349 -0.18857194
v -0.83261755 0.07426094 -0.2047163
v -0.83820792 0.10930402 -0.18782553
v -0.83845299 0.07392955 -0.20393154
v -0.84462706 0.10877727 -0.18686143
v -0.84501052 0.07353604 -0.20306246
v -0.8460575 0.15989408 0.03725276
v -0.84587401 0.16317285 0.00238205
v -0.84617966 0.15052989 0.07129627
v -0.84596494 0.13913768 0.10405013
v -0.84483915 0.13781164 0.16738369
v -0.83823852 0.13817625 0.16808898
v -0.83235037 0.13864558 0.16902882
v -0.83237123 0.16540979 0.20324155
v -0.90264495 0.16142141 0.20068715
v -0.90238426 0.24103088 0.09458873
v -0.90272027 0.25378803 0.05082121
v -0.90061545 0.26050946 0.0055729
v -0.90038049 0.25745664 -0.04067062
v -0.90031092 0.24570727 -0.08598192
v -0.8329252 0.19847319 -0.1640988
v -0.83282003 0.16632952 -0.19594484
v -0.83174919 0.16858433 -0.13948093
v -0.83152973 0.14156287 -0.16652745
v -0.83760724 0.1672708 -0.13852126
v -0.837597 0.14064163 -0.16544696
v -0.84445343 0.16657028 -0.1380182
v -0.84452888 0.1401551 -0.16483623
v -0.83761174 0.18917239 -0.107471
v -0.84457522 0.18842708 -0.1071913
v -0.83728311 0.2051259 -0.07255894
v -0.84441246 0.20451398 -0.07241669
v -0.83734768 0.21433215 -0.03555408
v -0.84431966 0.21352382 -0.03557112
v -0.84478644 0.21668874 0.00217833
v -0.84519838 0.2030902 0.07694398
v -0.8448655 0.18704688 0.11103767
v -0.83859426 0.20365772 0.07730801
v -0.83842963 0.18750417 0.11148491
v -0.83274383 0.20436813 0.07772005
v -0.83260231 0.18812426 0.11203648
v -0.83296555 0.24446704 0.09380134
v -0.83279692 0.22428817 0.13452115
v -0.90251717 0.22070468 0.13462473
v -0.8328931 0.24459946 -0.08601171
v -0.8328876 0.22487177 -0.12717892
v -0.831843 0.20676216 -0.07305909
v -0.83201862 0.19059418 -0.10817498
v -0.83129041 0.21621872 -0.03580527
v -0.8324478 0.2184273 0.00248197
v -0.8382675 0.21763433 0.00240713
v -0.83256472 0.21447578 0.0408673
v -0.8385428 0.21355597 0.04054846
v -0.84518052 0.21292083 0.04026501
v -0.83272685 0.2598995 0.00390931
v -0.83271386 0.25581924 0.04959446
v -0.83280829 0.25684926 -0.04186413
v -0.90024822 0.22627295 -0.12781401
v -0.90173887 0.13853294 -0.08753077
v -0.90182655 0.14710469 -0.05782999
v -0.90247907 0.08494026 -0.06885967
v -0.90252166 0.08931993 -0.04398595
v -0.90251842 0.09311946 -0.01881268
v -0.90263845 0.05631988 -0.04161063
v -0.90268292 0.05742256 -0.01677189
v -0.90270952 0.05790977 0.00798511
v -0.90251242 0.05554201 -0.067678
v -0.90224424 0.05515524 -0.09585725
v -0.90136976 0.06013359 -0.13536013
v -0.84601528 -0.12062379 0.13252744
v -0.90185653 -0.10492209 -0.11978908
v -0.84528982 -0.12366749 -0.14580268
v -0.84594133 -0.09667373 0.14088305
v -0.90140836 -0.08689039 -0.12983702
v -0.90170552 -0.122177 -0.10926
v -0.90202391 -0.08594985 -0.09961333
v -0.90278409 -0.09807093 0.11002119
v -0.90273713 -0.11739815 0.09101496
v -0.84528544 -0.13469724 -0.12611057
v -0.84556486 -0.10006707 -0.1521158
v -0.84590674 -0.10268995 -0.12337423
v -0.84540598 -0.14664098 -0.09807044
v -0.84619565 -0.10796383 -0.09333873
v -0.84643572 -0.07194416 -0.09197048
v -0.84624361 -0.06945964 -0.12410059
v -0.84600129 -0.06848821 -0.1574982
v -0.84582717 -0.03501988 -0.16597629
v -0.84618278 -0.03513313 -0.12807186
v -0.84639975 -0.03606004 -0.09342315
v -0.84652653 -0.03717318 -0.06016692
v -0.8465951 -0.0379594 -0.02717711
v -0.84663482 -0.03809042 0.00618308
v -0.84666555 -0.03739776 0.04021476
v -0.84654302 -0.03605905 0.07635255
v -0.84616992 -0.03468807 0.11615288
v -0.84540798 -0.03459036 0.16168499
v -0.84441546 -0.03603367 0.21291974
v -0.8365835 -0.03618683 0.21378588
v -0.83132863 -0.03666267 0.21691029
v -0.8336077 -0.04423446 0.26026005
v -0.9027435 -0.04210778 0.25282336
v -0.90278235 -0.0301447 0.15112083
v -0.90279484 -0.02621888 0.08987559
v -0.90278797 -0.02685837 0.06033846
v -0.9027721 -0.02798035 0.03398759
v -0.90275112 -0.02843555 0.00860923
v -0.90272863 -0.02824284 -0.01611453
v -0.90267467 -0.02790659 -0.04103304
v -0.90258661 -0.02757159 -0.06661753
v -0.90237327 -0.02788237 -0.09543849
v -0.90172588 -0.0304607 -0.13648745
v -0.89821722 -0.04362341 -0.25517821
v -0.83293369 -0.04411769 -0.25178244
v -0.83256696 -0.03701183 -0.2136329
v -0.8385077 -0.03681049 -0.21279583
v -0.84502251 -0.0364844 -0.2116804
v -0.84551153 -0.1560315 -0.06602222
v -0.84565205 -0.16151012 -0.03216181
v -0.84631931 -0.11711242 -0.02976167
v -0.84627983 -0.11341535 -0.06219152
v -0.84657999 -0.07657864 -0.02787929
v -0.8465319 -0.07468186 -0.06015423
v -0.846401 -0.11802013 0.00357586
v -0.84660922 -0.07700883 0.00518723
v -0.8464948 -0.11560425 0.03736801
v -0.84664519 -0.07554631 0.03892537
v -0.8465991 -0.1096784 0.07081751
v -0.84668354 -0.07228276 0.07314915
v -0.84645046 -0.10202488 0.10474234
v -0.84662833 -0.06813714 0.10829629
v -0.84559584 -0.06766638 0.15318193
v -0.84432653 -0.10695746 0.18886857
v -0.84417214 -0.072337 0.20449599
v -0.83728311 -0.10722757 0.18966226
v -0.83675262 -0.07259219 0.20520915
v -0.83128554 -0.10798473 0.19144382
v -0.83133837 -0.07322923 0.20742317
v -0.83237023 -0.12787229 0.22898784
v -0.83346605 -0.08719565 0.24888845
v -0.90265194 -0.12465182 0.22513637
v -0.90269354 -0.08401719 0.24268163
v -0.90278309 -0.07846443 0.1183098
v -0.90278572 -0.05433872 0.12554931
v -0.90277822 -0.08009226 0.0872973
v -0.90279034 -0.05212232 0.08844919
v -0.90278235 -0.05421995 0.05935135
v -0.90275661 -0.08620096 0.05996617
v -0.90272314 -0.09064652 0.03362698
v -0.90275187 -0.05717907 0.03350997
v -0.90270128 -0.12881564 0.06463573
v -0.9027144 -0.13511579 0.03587627
v -0.90216555 -0.14681787 0.00631571
v -0.90257775 -0.09368537 0.00730235
v -0.90196195 -0.14884879 -0.025397
v -0.89955373 -0.20039178 -0.16508445
v -0.89850575 -0.16840458 -0.19789465
v -0.89714064 -0.13040041 -0.22452998
v -0.89695103 -0.08782833 -0.24415769
v -0.83294806 -0.12861942 -0.22155068
v -0.83295131 -0.08724577 -0.23998016
v -0.83243256 -0.10973435 -0.18857194
v -0.83261755 -0.07426204 -0.2047163
v -0.83820792 -0.10930492 -0.18782553
v -0.83845299 -0.0739305 -0.20393154
v -0.84462706 -0.1087783 -0.18686143
v -0.84501052 -0.07353693 -0.20306246
v -0.8460575 -0.1598948 0.03725276
v -0.84587401 -0.16317399 0.0023821
v -0.84617966 -0.15053064 0.0712963
v -0.84596494 -0.13913862 0.10405013
v -0.84483915 -0.13781274 0.16738369
v -0.83823877 -0.1381773 0.16808898
v -0.83235037 -0.13864654 0.16902882
v -0.83237123 -0.16541084 0.20324155
v -0.90264495 -0.16142236 0.20068715
v -0.90238426 -0.24103203 0.09458873
v -0.90272027 -0.2537891 0.05082121
v -0.90061545 -0.26051049 0.0055729
v -0.90038049 -0.25745751 -0.04067062
v -0.90031092 -0.24570824 -0.08598192
v -0.8329252 -0.19847415 -0.1640988
v -0.83282015 -0.16633036 -0.19594484
v -0.83174782 -0.16858544 -0.13948093
v -0.83152923 -0.1415639 -0.16652745
v -0.83760774 -0.16727176 -0.13852126
v -0.837597 -0.14064266 -0.16544696
v -0.84445318 -0.16657129 -0.1380182
v -0.84452888 -0.14015615 -0.16483623
v -0.83761174 -0.18917367 -0.107471
v -0.84457522 -0.18842819 -0.1071913
v -0.83728311 -0.20512676 -0.07255894
v -0.84441246 -0.20451496 -0.07241669
v -0.83734768 -0.21433298 -0.03555408
v -0.84431966 -0.21352475 -0.03557112
v -0.84478619 -0.21668978 0.00217833
v -0.84519838 -0.20309108 0.07694398
v -0.8448655 -0.18704766 0.11103767
v -0.83859426 -0.20365858 0.07730801
v -0.83842963 -0.18750498 0.11148491
v -0.83274383 -0.20436923 0.07772005
v -0.83260231 -0.18812543 0.11203648
v -0.83296555 -0.24446823 0.09380134
v -0.83279692 -0.22428904 0.13452115
v -0.90251717 -0.22070555 0.13462473
v -0.83289322 -0.24460031 -0.08601171
v -0.8328876 -0.22487255 -0.12717892
v -0.831843 -0.20676296 -0.07305909
v -0.83201862 -0.19059492 -0.10817498
v -0.83129066 -0.21621969 -0.03580527
v -0.8324478 -0.21842845 0.00248197
v -0.838267 -0.21763502 0.00240713
v -0.83256422 -0.21447671 0.0408673
v -0.8385428 -0.21355717 0.04054846
v -0.84518002 -0.21292188 0.04026501
v -0.83272685 -0.25990044 0.00390931
v -0.83271386 -0.25581992 0.04959446
v -0.83280829 -0.25685026 -0.04186413
v -0.90024822 -0.22627395 -0.12781401
v -0.90173887 -0.13853394 -0.08753077
v -0.90182655 -0.14710583 -0.05782999
v -0.90247907 -0.0849412 -0.06885963
v -0.90252166 -0.0893211 -0.04398591
v -0.90251842 -0.09312075 -0.01881272
v -0.90263845 -0.05632067 -0.04161063
v -0.90268292 -0.05742347 -0.01677197
v -0.90270952 -0.05791092 0.00798501
v -0.90251242 -0.05554284 -0.067678
v -0.90224424 -0.05515603 -0.09585725
v -0.90136976 -0.06013453 -0.13536013
vt 0.64184 0.13801
vt 0.66813 0.1214
vt 0.67147 0.13163
vt 0.64645 0.1471
vt 0.69031 0.10582
vt 0.69301 0.11633
vt 0.71587 0.08955
vt 0.73654 0.07712
vt 0.73747 0.08932
vt 0.71682 0.10079
vt 0.75934 0.0698
vt 0.78361 0.06699
vt 0.78012 0.07861
vt 0.75767 0.08149
vt 0.38429 0.22796
vt 0.3942 0.23977
vt 0.37562 0.25528
vt 0.36613 0.24316
vt 0.42847 0.21173
vt 0.43381 0.22169
vt 0.41385 0.23687
vt 0.41063 0.22596
vt 0.57118 0.19865
vt 0.56774 0.18625
vt 0.58531 0.17436
vt 0.59115 0.18504
vt 0.01049 0.53376
vt 0.03155 0.43285
vt 0.0496 0.43896
vt 0.03557 0.53854
vt 0.21292 0.4859
vt 0.21564 0.48069
vt 0.21912 0.4845
vt 0.21805 0.51144
vt 0.60238 0.16372
vt 0.60787 0.1749
vt 0.2026 0.4599
vt 0.20875 0.46358
vt 0.03489 0.54329
vt 0.06058 0.54138
vt 0.06012 0.54679
vt 0.00789 0.5391
vt 0.0336 0.55254
vt 0.0594 0.55525
vt 0.00651 0.54827
vt 0.03315 0.5568
vt 0.05909 0.55964
vt 0.00715 0.55339
vt 0.03084 0.59381
vt 0.03134 0.57274
vt 0.05835 0.57546
vt 0.05825 0.59445
vt 0.00195 0.59214
vt 0.00258 0.57031
vt 0.03234 0.61028
vt 0.05904 0.60971
vt 0.00594 0.61019
vt 0.0713 0.43826
vt 0.02074 0.99712
vt 0.01401 0.64092
vt 0.03771 0.64046
vt 0.04328 0.9967
vt 0.06196 0.64082
vt 0.06585 0.99645
vt 0.00816 0.6324
vt 0.00544 0.61646
vt 0.03521 0.61647
vt 0.0377 0.63234
vt 0.05956 0.61674
vt 0.06077 0.63095
vt 0.47751 0.20505
vt 0.48217 0.17996
vt 0.49217 0.19437
vt 0.27786 0.45368
vt 0.27903 0.44381
vt 0.29372 0.45235
vt 0.367 0.29098
vt 0.37636 0.30539
vt 0.35671 0.32543
vt 0.34416 0.31392
vt 0.38043 0.26469
vt 0.36085 0.28311
vt 0.35606 0.27188
vt 0.34637 0.26044
vt 0.28219 0.43088
vt 0.29623 0.4388
vt 0.39558 0.28781
vt 0.38743 0.27303
vt 0.33824 0.30499
vt 0.32147 0.32755
vt 0.3156 0.31549
vt 0.3369 0.29235
vt 0.21545 0.46324
vt 0.23397 0.46152
vt 0.2438 0.4615
vt 0.24667 0.47583
vt 0.23624 0.47608
vt 0.23894 0.49233
vt 0.25052 0.49181
vt 0.25404 0.50898
vt 0.24271 0.51022
vt 0.25658 0.53111
vt 0.24696 0.5305
vt 0.75607 0.09411
vt 0.77678 0.0901
vt 0.77479 0.10514
vt 0.75672 0.10956
vt 0.73778 0.11754
vt 0.73541 0.10203
vt 0.71907 0.12959
vt 0.71408 0.11444
vt 0.69432 0.12935
vt 0.69907 0.14358
vt 0.67711 0.15732
vt 0.67033 0.14409
vt 0.65687 0.17176
vt 0.6493 0.15899
vt 0.62902 0.17144
vt 0.63702 0.18468
vt 0.61903 0.19678
vt 0.61024 0.18415
vt 0.6024 0.20847
vt 0.59381 0.19606
vt 0.57617 0.2087
vt 0.58216 0.22343
vt 0.54355 0.23795
vt 0.55925 0.24651
vt 0.53304 0.25249
vt 0.55082 0.26278
vt 0.54508 0.26888
vt 0.22364 0.46194
vt 0.22868 0.47948
vt 0.62548 0.16148
vt 0.61974 0.15211
vt 0.2316 0.49744
vt 0.24007 0.53162
vt 0.23562 0.51337
vt 0.52347 0.23902
vt 0.22743 0.51809
vt 0.22347 0.50021
vt 0.26528 0.46297
vt 0.2538 0.46196
vt 0.25333 0.44904
vt 0.26349 0.44911
vt 0.23365 0.5334
vt 0.4558 0.15527
vt 0.46211 0.14928
vt 0.47298 0.1664
vt 0.52806 0.21426
vt 0.51348 0.22475
vt 0.50279 0.20957
vt 0.52053 0.19765
vt 0.56165 0.17028
vt 0.46184 0.18115
vt 0.44623 0.17225
vt 0.5782 0.15941
vt 0.59379 0.14923
vt 0.61388 0.13615
vt 0.63579 0.12193
vt 0.65945 0.10661
vt 0.68212 0.09197
vt 0.70796 0.07528
vt 0.73063 0.06066
vt 0.75978 0.05233
vt 0.78369 0.05008
vt 0.22348 0.54505
vt 0.22059 0.52899
vt 0.39102 0.3144
vt 0.39908 0.32101
vt 0.3801 0.34051
vt 0.37038 0.33578
vt 0.36378 0.35884
vt 0.35359 0.35552
vt 0.33922 0.38053
vt 0.35 0.38135
vt 0.34237 0.40233
vt 0.33038 0.40192
vt 0.21912 0.36692
vt 0.23173 0.36885
vt 0.21904 0.39077
vt 0.20478 0.38988
vt 0.39728 0.24877
vt 0.4689 0.26841
vt 0.44957 0.28181
vt 0.44108 0.27283
vt 0.45811 0.26086
vt 0.21805 0.54759
vt 0.18956 0.54797
vt 0.18228 0.45493
vt 0.16052 0.44125
vt 0.19721 0.44513
vt 0.19647 0.44978
vt 0.43497 0.29366
vt 0.42571 0.28508
vt 0.19019 0.55252
vt 0.16382 0.55182
vt 0.16346 0.54649
vt 0.22047 0.5529
vt 0.19092 0.56145
vt 0.16409 0.56017
vt 0.22039 0.56168
vt 0.19104 0.56554
vt 0.16422 0.56449
vt 0.2189 0.5664
vt 0.19049 0.60125
vt 0.16343 0.59868
vt 0.16427 0.58001
vt 0.19149 0.58093
vt 0.21878 0.60382
vt 0.22047 0.58316
vt 0.18844 0.61702
vt 0.16238 0.61367
vt 0.21422 0.62017
vt 0.2003 0.99804
vt 0.17787 0.99723
vt 0.18315 0.64581
vt 0.20662 0.64802
vt 0.15555 0.99679
vt 0.15919 0.64424
vt 0.21173 0.64059
vt 0.18286 0.63789
vt 0.18548 0.62268
vt 0.2146 0.62607
vt 0.16018 0.63456
vt 0.16174 0.62058
vt 0.43762 0.23405
vt 0.28565 0.41511
vt 0.29985 0.42401
vt 0.41408 0.27268
vt 0.40388 0.25929
vt 0.30191 0.33873
vt 0.30526 0.35261
vt 0.29254 0.37291
vt 0.28747 0.36146
vt 0.26932 0.42237
vt 0.27595 0.40761
vt 0.29233 0.39823
vt 0.3054 0.40987
vt 0.4288 0.26136
vt 0.42042 0.24709
vt 0.27467 0.38103
vt 0.28419 0.38993
vt 0.26641 0.39941
vt 0.23401 0.34684
vt 0.24485 0.34992
vt 0.22898 0.44716
vt 0.24115 0.44707
vt 0.22454 0.43082
vt 0.2404 0.43133
vt 0.24317 0.41376
vt 0.22565 0.41233
vt 0.25238 0.38997
vt 0.2338 0.39018
vt 0.24583 0.3699
vt 0.26345 0.3706
vt 0.27613 0.35025
vt 0.25767 0.34958
vt 0.37731 0.38295
vt 0.3702 0.39997
vt 0.35431 0.39951
vt 0.36273 0.3788
vt 0.37626 0.36088
vt 0.38964 0.36806
vt 0.40401 0.35168
vt 0.39241 0.34227
vt 0.42042 0.33738
vt 0.40999 0.32679
vt 0.42617 0.31187
vt 0.43664 0.32356
vt 0.45242 0.31135
vt 0.44313 0.29895
vt 0.4681 0.30041
vt 0.45924 0.28811
vt 0.47685 0.27659
vt 0.48869 0.2875
vt 0.51567 0.25718
vt 0.5186 0.27475
vt 0.32728 0.28092
vt 0.53735 0.27237
vt 0.21695 0.44503
vt 0.41748 0.30567
vt 0.40977 0.29765
vt 0.20992 0.42881
vt 0.21215 0.41107
vt 0.32758 0.33659
vt 0.31124 0.36239
vt 0.19304 0.41331
vt 0.19061 0.43283
vt 0.49837 0.23441
vt 0.30724 0.30293
vt 0.48514 0.2216
vt 0.29038 0.32663
vt 0.44472 0.24967
vt 0.34022 0.34653
vt 0.32486 0.37207
vt 0.31471 0.39366
vt 0.20208 0.36042
vt 0.22122 0.33605
vt 0.18802 0.38347
vt 0.17435 0.41126
vt 0.62346 0.10993
vt 0.61696 0.10207
vt 0.64143 0.08548
vt 0.64944 0.09269
vt 0.6643 0.07207
vt 0.67281 0.07883
vt 0.6982 0.0622
vt 0.68833 0.05673
vt 0.70733 0.0426
vt 0.71807 0.04848
vt 0.73417 0.03073
vt 0.72283 0.02741
vt 0.73477 0.00811
vt 0.74679 0.00976
vt 0.5388 0.15077
vt 0.55946 0.13761
vt 0.56711 0.14707
vt 0.54913 0.15857
vt 0.11102 0.5444
vt 0.08557 0.54331
vt 0.09228 0.4456
vt 0.11102 0.44394
vt 0.0957 0.42944
vt 0.0982 0.43363
vt 0.57561 0.12625
vt 0.58379 0.13566
vt 0.11102 0.43199
vt 0.08533 0.54788
vt 0.11102 0.54957
vt 0.08508 0.55679
vt 0.11102 0.55798
vt 0.08492 0.56082
vt 0.11102 0.56246
vt 0.08504 0.59625
vt 0.08475 0.57607
vt 0.11102 0.59647
vt 0.11102 0.57755
vt 0.08535 0.61185
vt 0.11102 0.6125
vt 0.11102 0.99612
vt 0.08843 0.99623
vt 0.08648 0.64113
vt 0.11102 0.64187
vt 0.11102 0.6329
vt 0.0842 0.6333
vt 0.0835 0.61775
vt 0.11102 0.61804
vt 0.26655 0.4363
vt 0.30096 0.38196
vt 0.25476 0.43453
vt 0.25866 0.41867
vt 0.11102 0.41967
vt 0.25792 0.47533
vt 0.2628 0.4903
vt 0.26655 0.50783
vt 0.26793 0.52877
vt 0.71068 0.02364
vt 0.69688 0.01665
vt 0.70841 0.00195
vt 0.72292 0.00639
vt 0.68172 0.03068
vt 0.69489 0.03924
vt 0.66295 0.04283
vt 0.67473 0.05362
vt 0.65292 0.06555
vt 0.64185 0.0554
vt 0.62017 0.06992
vt 0.62951 0.08147
vt 0.59852 0.08261
vt 0.60718 0.09468
vt 0.58739 0.10825
vt 0.57842 0.09566
vt 0.55981 0.10743
vt 0.56796 0.12046
vt 0.54212 0.11822
vt 0.55023 0.13094
vt 0.53132 0.14239
vt 0.51985 0.13132
vt 0.4909 0.16181
vt 0.4889 0.14412
vt 0.47011 0.14614
vt 0.26911 0.47723
vt 0.59516 0.11546
vt 0.6015 0.12442
vt 0.27443 0.49228
vt 0.27646 0.5082
vt 0.27779 0.52732
vt 0.27645 0.4637
vt 0.28659 0.478
vt 0.28988 0.50561
vt 0.2884 0.49004
vt 0.42225 0.19684
vt 0.28795 0.52565
vt 0.40125 0.21398
vt 0.50753 0.18474
vt 0.75025 0.03756
vt 0.76221 0.01672
vt 0.07493 0.39213
vt 0.0777 0.41279
vt 0.06288 0.41883
vt 0.05912 0.39487
vt 0.08642 0.4243
vt 0.13401 0.44627
vt 0.13747 0.54514
vt 0.12726 0.43298
vt 0.13053 0.42832
vt 0.13766 0.54973
vt 0.13772 0.55865
vt 0.1378 0.56268
vt 0.13692 0.59791
vt 0.13768 0.57786
vt 0.13642 0.61347
vt 0.1351 0.64274
vt 0.13325 0.99629
vt 0.1382 0.6195
vt 0.13729 0.63502
vt 0.23034 0.72798
vt 0.23174 0.72152
vt 0.24451 0.729
vt 0.24347 0.73455
vt 0.24282 0.74072
vt 0.24349 0.73628
vt 0.2503 0.73871
vt 0.24806 0.7439
vt 0.22399 0.72247
vt 0.22588 0.71626
vt 0.30455 0.64969
vt 0.29644 0.64553
vt 0.29644 0.64466
vt 0.30453 0.64864
vt 0.32448 0.7158
vt 0.32153 0.70936
vt 0.32564 0.70033
vt 0.33017 0.70589
vt 0.2523 0.67439
vt 0.25562 0.67306
vt 0.25553 0.67701
vt 0.2491 0.67583
vt 0.23101 0.67382
vt 0.22715 0.6809
vt 0.21823 0.67786
vt 0.2238 0.66813
vt 0.29858 0.73536
vt 0.29174 0.73772
vt 0.29169 0.73687
vt 0.29857 0.73455
vt 0.33057 0.70729
vt 0.33454 0.6906
vt 0.33528 0.69758
vt 0.33077 0.70922
vt 0.23803 0.6445
vt 0.23751 0.64864
vt 0.22949 0.65363
vt 0.23316 0.64611
vt 0.24401 0.64095
vt 0.2456 0.64466
vt 0.2402 0.63883
vt 0.22665 0.64858
vt 0.23533 0.63794
vt 0.24611 0.63048
vt 0.2495 0.63392
vt 0.25225 0.63697
vt 0.26144 0.6354
vt 0.26271 0.64058
vt 0.25422 0.64252
vt 0.2601 0.63069
vt 0.27102 0.63006
vt 0.27102 0.63479
vt 0.25832 0.62646
vt 0.27102 0.6249
vt 0.25643 0.62148
vt 0.27102 0.61966
vt 0.25449 0.61507
vt 0.27102 0.6132
vt 0.27102 0.77366
vt 0.25345 0.77095
vt 0.2554 0.76497
vt 0.27102 0.76708
vt 0.25747 0.76024
vt 0.27102 0.76185
vt 0.25956 0.75611
vt 0.27102 0.75718
vt 0.26147 0.75197
vt 0.27102 0.75266
vt 0.26299 0.74726
vt 0.27102 0.74772
vt 0.32439 0.71838
vt 0.31816 0.72476
vt 0.31814 0.72352
vt 0.32447 0.71698
vt 0.26427 0.74159
vt 0.27102 0.7417
vt 0.28979 0.63697
vt 0.29804 0.64095
vt 0.28782 0.64252
vt 0.2994 0.66334
vt 0.30529 0.6684
vt 0.29295 0.67583
vt 0.28975 0.67439
vt 0.28141 0.69065
vt 0.28104 0.69395
vt 0.27594 0.69378
vt 0.27612 0.69058
vt 0.28689 0.74587
vt 0.27906 0.74726
vt 0.27778 0.74159
vt 0.28479 0.74028
vt 0.26426 0.74052
vt 0.27102 0.74078
vt 0.26427 0.7397
vt 0.27102 0.74013
vt 0.27933 0.64058
vt 0.28061 0.6354
vt 0.22052 0.70936
vt 0.22899 0.70221
vt 0.23257 0.70809
vt 0.26444 0.73407
vt 0.27102 0.73423
vt 0.26059 0.68754
vt 0.26071 0.6844
vt 0.26591 0.68434
vt 0.26589 0.68746
vt 0.26064 0.69065
vt 0.261 0.69395
vt 0.25519 0.69441
vt 0.25429 0.69103
vt 0.2653 0.72421
vt 0.27102 0.72397
vt 0.28781 0.64337
vt 0.27934 0.64137
vt 0.26593 0.69058
vt 0.26611 0.69378
vt 0.31103 0.67382
vt 0.31825 0.66813
vt 0.32382 0.67786
vt 0.31489 0.6809
vt 0.29175 0.73871
vt 0.29398 0.74389
vt 0.21641 0.70033
vt 0.22565 0.69595
vt 0.27102 0.69714
vt 0.27102 0.69376
vt 0.27561 0.69715
vt 0.30185 0.63883
vt 0.29255 0.63392
vt 0.23031 0.72885
vt 0.24346 0.73536
vt 0.24931 0.69938
vt 0.2519 0.70264
vt 0.23747 0.71248
vt 0.26636 0.7093
vt 0.27102 0.71042
vt 0.31306 0.70221
vt 0.31639 0.69595
vt 0.26673 0.70103
vt 0.27102 0.70126
vt 0.26644 0.69715
vt 0.27102 0.69055
vt 0.27102 0.68744
vt 0.27102 0.6843
vt 0.26597 0.68114
vt 0.27102 0.68093
vt 0.26597 0.6775
vt 0.27102 0.67676
vt 0.2656 0.67221
vt 0.27102 0.67025
vt 0.22391 0.72352
vt 0.2825 0.72307
vt 0.27675 0.72421
vt 0.27568 0.7093
vt 0.2797 0.70605
vt 0.26402 0.65608
vt 0.27102 0.65542
vt 0.28562 0.62148
vt 0.28372 0.62646
vt 0.25407 0.68762
vt 0.24493 0.69192
vt 0.24406 0.68763
vt 0.24759 0.69562
vt 0.29593 0.63048
vt 0.30672 0.63794
vt 0.31539 0.64858
vt 0.30888 0.64611
vt 0.28146 0.68754
vt 0.27615 0.68746
vt 0.27613 0.68434
vt 0.28134 0.6844
vt 0.23033 0.72985
vt 0.31617 0.71626
vt 0.30947 0.70809
vt 0.21756 0.7158
vt 0.26287 0.64712
vt 0.27102 0.64637
vt 0.21188 0.70589
vt 0.26271 0.64207
vt 0.27102 0.64163
vt 0.27102 0.64095
vt 0.27102 0.64001
vt 0.22388 0.72476
vt 0.2627 0.64137
vt 0.28979 0.74993
vt 0.28058 0.75197
vt 0.28422 0.7013
vt 0.29015 0.70264
vt 0.28673 0.70482
vt 0.28354 0.70544
vt 0.28642 0.67306
vt 0.29248 0.65991
vt 0.33321 0.69025
vt 0.31171 0.72985
vt 0.31174 0.72885
vt 0.29843 0.74582
vt 0.27934 0.64207
vt 0.32795 0.6736
vt 0.328 0.67242
vt 0.28797 0.68762
vt 0.28775 0.69103
vt 0.28573 0.69776
vt 0.28028 0.6973
vt 0.28685 0.69441
vt 0.29356 0.75261
vt 0.28249 0.75611
vt 0.32045 0.6631
vt 0.31271 0.65562
vt 0.31267 0.65471
vt 0.32059 0.66201
vt 0.30396 0.74648
vt 0.29762 0.75534
vt 0.28458 0.76024
vt 0.22135 0.6606
vt 0.21408 0.67065
vt 0.21895 0.65079
vt 0.20711 0.68417
vt 0.21233 0.65263
vt 0.22399 0.63339
vt 0.22978 0.63648
vt 0.2386 0.62165
vt 0.24243 0.6268
vt 0.23647 0.76399
vt 0.2213 0.75087
vt 0.22688 0.7476
vt 0.2404 0.75884
vt 0.23235 0.74673
vt 0.24443 0.75534
vt 0.23809 0.74648
vt 0.24848 0.75261
vt 0.24361 0.74582
vt 0.25225 0.74993
vt 0.25516 0.74587
vt 0.28536 0.65705
vt 0.2874 0.64868
vt 0.29557 0.65141
vt 0.29445 0.69562
vt 0.29712 0.69192
vt 0.25725 0.74028
vt 0.3097 0.74673
vt 0.30452 0.6506
vt 0.28476 0.73942
vt 0.29768 0.68313
vt 0.29799 0.68763
vt 0.2873 0.68431
vt 0.28119 0.6811
vt 0.27607 0.68114
vt 0.27608 0.6775
vt 0.28099 0.6775
vt 0.28756 0.61507
vt 0.25475 0.68431
vt 0.2503 0.73772
vt 0.25728 0.73942
vt 0.25035 0.73687
vt 0.25734 0.73875
vt 0.30573 0.73909
vt 0.29923 0.74072
vt 0.29855 0.73628
vt 0.29413 0.71949
vt 0.28848 0.72189
vt 0.30401 0.6445
vt 0.25118 0.73158
vt 0.25789 0.73289
vt 0.2776 0.73407
vt 0.28652 0.67701
vt 0.28655 0.68101
vt 0.27918 0.64712
vt 0.30458 0.71248
vt 0.25357 0.72189
vt 0.25955 0.72307
vt 0.28778 0.64412
vt 0.29642 0.6463
vt 0.29611 0.6789
vt 0.31643 0.68851
vt 0.28416 0.73289
vt 0.30164 0.75884
vt 0.28665 0.76497
vt 0.31517 0.7476
vt 0.2555 0.68101
vt 0.24594 0.6789
vt 0.27803 0.65608
vt 0.21758 0.71698
vt 0.31256 0.65363
vt 0.26086 0.6811
vt 0.28195 0.63069
vt 0.24437 0.68313
vt 0.21766 0.71838
vt 0.25851 0.70544
vt 0.26234 0.70605
vt 0.27779 0.74052
vt 0.23087 0.66093
vt 0.23675 0.6684
vt 0.25783 0.7013
vt 0.26243 0.70107
vt 0.26176 0.6973
vt 0.25632 0.69776
vt 0.29274 0.69938
vt 0.26039 0.67238
vt 0.25668 0.65705
vt 0.31806 0.72247
vt 0.22561 0.68851
vt 0.21148 0.70729
vt 0.21128 0.70922
vt 0.20676 0.69758
vt 0.20751 0.6906
vt 0.28859 0.77094
vt 0.21382 0.68927
vt 0.24957 0.65991
vt 0.26105 0.6775
vt 0.29087 0.73158
vt 0.29754 0.729
vt 0.27644 0.67221
vt 0.28165 0.67238
vt 0.27777 0.7397
vt 0.30353 0.65546
vt 0.31117 0.66093
vt 0.30558 0.76399
vt 0.32075 0.75087
vt 0.3117 0.72798
vt 0.31031 0.72152
vt 0.24647 0.65141
vt 0.25464 0.64868
vt 0.29962 0.6268
vt 0.30345 0.62165
vt 0.31226 0.63648
vt 0.24562 0.6463
vt 0.25427 0.64412
vt 0.31242 0.73729
vt 0.24561 0.64553
vt 0.25424 0.64337
vt 0.32822 0.68927
vt 0.20884 0.69025
vt 0.21404 0.67242
vt 0.22145 0.66201
vt 0.27531 0.70103
vt 0.28471 0.73875
vt 0.3196 0.73424
vt 0.22245 0.73424
vt 0.21618 0.73131
vt 0.20943 0.73056
vt 0.22963 0.73729
vt 0.23631 0.73909
vt 0.2141 0.6736
vt 0.27961 0.70107
vt 0.31806 0.63339
vt 0.3231 0.65079
vt 0.22938 0.65471
vt 0.32587 0.73131
vt 0.33261 0.73056
vt 0.32797 0.67065
vt 0.33493 0.68417
vt 0.2375 0.64969
vt 0.23752 0.6506
vt 0.24792 0.71949
vt 0.22934 0.65562
vt 0.32971 0.65263
vt 0.2216 0.6631
vt 0.24264 0.66334
vt 0.3207 0.6606
vt 0.25531 0.70482
vt 0.23851 0.65546
g Group16759
f 52/1 51/2 23/3 24/4
f 51/2 50/5 22/6 23/3
f 49/7 48/8 20/9 21/10
f 47/11 46/12 18/13 19/14
f 262/15 332/16 331/17 261/18
f 334/19 319/20 318/21 333/22
f 28/23 56/24 55/25 27/26
f 58/27 60/28 2/29 7/30
f 2/31 14/32 13/33 141/34
f 27/26 55/25 54/35 26/36
f 60/37 87/38 14/32 2/31
f 1/39 7/30 174/40 142/41
f 62/42 58/27 7/30 1/39
f 3/43 1/39 142/41 143/44
f 64/45 62/42 1/39 3/43
f 8/46 3/43 143/44 179/47
f 72/48 64/45 3/43 8/46
f 5/49 4/50 145/51 148/52
f 68/53 65/54 4/50 5/49
f 6/55 5/49 148/52 182/56
f 70/57 68/53 5/49 6/55
f 7/30 2/29 141/58 174/40
f 74/59 81/60 12/61 10/62
f 10/62 12/61 185/63 181/64
f 73/65 79/66 11/67 9/68
f 9/68 11/67 183/69 180/70
f 79/66 70/57 6/55 11/67
f 11/67 6/55 182/56 183/69
f 350/71 320/72 351/73
f 303/74 337/75 242/76
f 345/77 274/78 275/79 344/80
f 12/61 9/68 180/70 185/63
f 4/50 8/46 179/47 145/51
f 331/17 316/81 315/82 330/83
f 331/17 330/83 260/84 261/18
f 338/85 281/86 242/76 337/75
f 273/87 274/78 345/77 346/88
f 81/60 73/65 9/68 12/61
f 65/54 72/48 8/46 4/50
f 314/89 313/90 328/91 329/92
f 48/8 47/11 19/14 20/9
f 87/38 82/93 13/33 14/32
f 84/94 234/95 135/96 29/97
f 30/98 29/97 135/96 136/99
f 137/100 31/101 30/98 136/99
f 138/102 32/103 31/101 137/100
f 33/104 32/105 138/106 139/107
f 150/108 34/109 33/104 139/107
f 151/110 35/111 34/109 150/108
f 36/112 35/111 151/110 152/113
f 153/114 37/115 36/112 152/113
f 50/5 49/7 21/10 22/6
f 154/116 38/117 37/115 153/114
f 39/118 38/117 154/116 155/119
f 156/120 40/121 39/118 155/119
f 157/122 41/123 40/121 156/120
f 42/124 41/123 157/122 158/125
f 316/81 346/88 345/77 315/82
f 43/126 42/124 158/125 160/127
f 118/128 43/126 160/127 159/129
f 159/129 265/130 118/128
f 83/131 84/94 29/97 15/132
f 25/133 53/134 52/1 24/4
f 30/98 16/135 15/132 29/97
f 32/103 18/136 17/137 31/101
f 20/9 19/14 33/104 34/109
f 36/112 22/6 21/10 35/111
f 38/117 24/4 23/3 37/115
f 26/36 25/133 39/118 40/121
f 42/124 28/23 27/26 41/123
f 43/126 102/138 28/23 42/124
f 83/131 15/132 13/33 82/93
f 45/139 44/140 16/135 17/137
f 26/36 54/35 53/134 25/133
f 17/137 16/135 30/98 31/101
f 33/104 19/14 18/13 32/105
f 35/111 21/10 20/9 34/109
f 23/3 22/6 36/112 37/115
f 39/118 25/133 24/4 38/117
f 41/123 27/26 26/36 40/121
f 301/141 302/142 321/143 306/144
f 118/128 102/138 43/126
f 44/140 13/33 15/132 16/135
f 46/145 45/139 17/137 18/136
f 266/146 265/147 336/148
f 102/138 57/149 56/24 28/23
f 57/149 102/138 133/150
f 268/151 161/152 57/149 133/150
f 161/152 162/153 56/24 57/149
f 336/148 335/154 267/155 266/146
f 162/153 163/156 55/25 56/24
f 163/156 164/157 54/35 55/25
f 164/157 165/158 53/134 54/35
f 165/158 166/159 52/1 53/134
f 52/1 166/159 167/160 51/2
f 51/2 167/160 168/161 50/5
f 50/5 168/161 169/162 49/7
f 49/7 169/162 170/163 48/8
f 48/8 170/163 171/164 47/11
f 47/11 171/164 172/165 46/12
f 46/145 172/166 173/167 45/139
f 45/139 173/167 141/34 44/140
f 13/33 44/140 141/34
f 127/168 97/169 96/170 126/171
f 126/171 96/170 95/172 125/173
f 124/174 94/175 93/176 123/177
f 122/178 92/179 91/180 121/181
f 317/182 316/81 331/17 332/16
f 330/83 315/82 314/89 329/92
f 101/183 100/184 130/185 131/186
f 58/187 71/188 61/189 60/37
f 61/189 242/190 85/191 86/192
f 100/184 99/193 129/194 130/185
f 60/37 61/189 86/192 87/38
f 59/195 244/196 282/197 71/188
f 62/198 59/195 71/188 58/187
f 63/199 245/200 244/196 59/195
f 64/201 63/199 59/195 62/198
f 75/202 290/203 245/200 63/199
f 72/204 75/202 63/199 64/201
f 67/205 252/206 248/207 66/208
f 68/209 67/205 66/208 65/210
f 69/211 293/212 252/206 67/205
f 70/213 69/211 67/205 68/209
f 71/188 282/197 242/190 61/189
f 74/214 77/215 80/216 81/217
f 77/215 292/218 297/219 80/216
f 73/220 76/221 78/222 79/223
f 76/221 291/224 294/225 78/222
f 79/223 78/222 69/211 70/213
f 78/222 294/225 293/212 69/211
f 320/72 350/71 349/226 319/20
f 339/227 280/228 281/86 338/85
f 272/229 273/87 346/88 347/230
f 80/216 297/219 291/224 76/221
f 66/208 248/207 290/203 75/202
f 327/231 312/232 311/233 326/234
f 339/227 338/85 308/235 309/236
f 340/237 279/238 280/228 339/227
f 271/239 272/229 347/230 348/240
f 81/217 80/216 76/221 73/220
f 65/210 66/208 75/202 72/204
f 325/241 310/242 309/236 324/243
f 123/244 93/245 92/179 122/178
f 87/38 86/192 85/191 82/93
f 84/94 103/246 235/247 234/95
f 104/248 236/249 235/247 103/246
f 237/250 236/249 104/248 105/251
f 238/252 237/250 105/251 106/253
f 107/254 239/255 238/252 106/253
f 256/256 239/255 107/254 108/257
f 257/258 256/259 108/260 109/261
f 110/262 258/263 257/258 109/261
f 259/264 258/263 110/262 111/265
f 125/173 95/172 94/175 124/174
f 260/266 259/264 111/265 112/267
f 113/268 261/269 260/266 112/267
f 262/270 261/269 113/268 114/271
f 263/272 262/270 114/271 115/273
f 116/274 264/275 263/272 115/273
f 117/276 267/277 264/275 116/274
f 260/84 330/83 329/92 259/278
f 118/128 266/279 267/277 117/276
f 266/279 118/128 265/130
f 83/131 88/280 103/246 84/94
f 98/281 97/169 127/168 128/282
f 104/248 103/246 88/280 89/283
f 106/253 105/251 90/284 91/180
f 93/245 108/257 107/254 92/179
f 110/262 109/261 94/175 95/172
f 112/267 111/265 96/170 97/169
f 99/193 114/271 113/268 98/281
f 116/274 115/273 100/184 101/183
f 343/285 342/286 312/232 313/90
f 83/131 82/93 85/191 88/280
f 120/287 90/284 89/283 119/288
f 99/193 98/281 128/282 129/194
f 90/284 105/251 104/248 89/283
f 107/254 106/253 91/180 92/179
f 109/261 108/260 93/176 94/175
f 96/170 111/265 110/262 95/172
f 113/268 112/267 97/169 98/281
f 115/273 114/271 99/193 100/184
f 117/276 116/274 101/183 102/138
f 118/128 117/276 102/138
f 119/288 89/283 88/280 85/191
f 121/181 91/180 90/284 120/287
f 102/138 101/183 131/186 132/289
f 259/278 329/92 328/91 258/290
f 132/289 133/150 102/138
f 268/151 133/150 132/289 269/291
f 328/91 327/231 257/292 258/290
f 269/291 132/289 131/186 270/293
f 270/293 131/186 130/185 271/239
f 271/239 130/185 129/194 272/229
f 272/229 129/194 128/282 273/87
f 273/87 128/282 127/168 274/78
f 127/168 126/171 275/79 274/78
f 126/171 125/173 276/294 275/79
f 125/173 124/174 277/295 276/294
f 124/174 123/177 278/296 277/295
f 123/244 122/178 279/297 278/298
f 122/178 121/181 280/299 279/297
f 121/181 120/287 281/300 280/299
f 120/287 119/288 242/190 281/300
f 85/191 242/190 119/288
f 226/301 198/302 197/303 225/304
f 225/304 197/303 196/305 224/306
f 223/307 195/308 194/309 222/310
f 221/311 193/312 192/313 220/314
f 328/91 313/90 312/232 327/231
f 311/233 310/242 325/241 326/234
f 202/315 201/316 229/317 230/318
f 232/319 175/320 140/321 240/322
f 140/321 141/58 187/323 188/324
f 201/316 200/325 228/326 229/317
f 240/322 140/321 188/324 305/327
f 134/328 142/41 174/40 175/320
f 243/329 134/328 175/320 232/319
f 144/330 143/44 142/41 134/328
f 247/331 144/330 134/328 243/329
f 176/332 179/47 143/44 144/330
f 284/333 176/332 144/330 247/331
f 147/334 148/52 145/51 146/335
f 253/336 147/334 146/335 249/337
f 149/338 182/56 148/52 147/334
f 255/339 149/338 147/334 253/336
f 175/320 174/40 141/58 140/321
f 286/340 178/341 186/342 299/343
f 178/341 181/64 185/63 186/342
f 285/344 177/345 184/346 296/347
f 177/345 180/70 183/69 184/346
f 296/347 184/346 149/338 255/339
f 184/346 183/69 182/56 149/338
f 337/75 303/74 306/144 307/348
f 341/349 278/296 279/238 340/237
f 270/293 271/239 348/240 349/226
f 186/342 185/63 180/70 177/345
f 146/335 145/51 179/47 176/332
f 308/235 307/348 322/350 323/351
f 336/148 320/72 335/154
f 342/286 277/295 278/296 341/349
f 269/291 270/293 349/226 350/71
f 299/343 186/342 177/345 285/344
f 249/337 146/335 176/332 284/333
f 317/182 347/230 346/88 316/81
f 222/310 194/309 193/312 221/311
f 305/327 188/324 187/323 300/352
f 302/142 203/353 135/96 234/95
f 204/354 136/99 135/96 203/353
f 137/100 136/99 204/354 205/355
f 138/102 137/100 205/355 206/356
f 207/357 139/358 138/359 206/360
f 150/361 139/358 207/357 208/362
f 151/363 150/361 208/362 209/364
f 210/365 152/366 151/363 209/364
f 153/367 152/366 210/365 211/368
f 224/306 196/305 195/308 223/307
f 154/369 153/367 211/368 212/370
f 213/371 155/372 154/369 212/370
f 156/373 155/372 213/371 214/374
f 157/375 156/373 214/374 215/376
f 216/377 158/378 157/375 215/376
f 257/292 327/231 326/234 256/256
f 217/379 160/380 158/378 216/377
f 336/148 159/381 160/380 217/379
f 159/381 336/148 265/147
f 301/141 189/382 203/353 302/142
f 199/383 198/302 226/301 227/384
f 204/354 203/353 189/382 190/385
f 206/356 205/355 191/386 192/387
f 194/309 208/362 207/357 193/312
f 210/365 209/364 195/308 196/305
f 212/370 211/368 197/303 198/302
f 200/325 214/374 213/371 199/383
f 216/377 215/376 201/316 202/315
f 217/379 216/377 202/315 320/72
f 301/141 300/388 187/389 189/382
f 219/390 191/386 190/385 218/391
f 200/325 199/383 227/384 228/326
f 191/386 205/355 204/354 190/385
f 207/357 206/360 192/313 193/312
f 209/364 208/362 194/309 195/308
f 197/303 211/368 210/365 196/305
f 213/371 212/370 198/302 199/383
f 215/376 214/374 200/325 201/316
f 335/154 334/19 264/392 267/155
f 336/148 217/379 320/72
f 218/391 190/385 189/382 187/389
f 220/393 192/387 191/386 219/390
f 334/19 333/22 263/394 264/392
f 320/72 202/315 230/318 231/395
f 231/395 351/73 320/72
f 268/151 351/73 231/395 161/152
f 161/152 231/395 230/318 162/153
f 263/394 333/22 332/16 262/15
f 162/153 230/318 229/317 163/156
f 163/156 229/317 228/326 164/157
f 164/157 228/326 227/384 165/158
f 165/158 227/384 226/301 166/159
f 226/301 225/304 167/160 166/159
f 225/304 224/306 168/161 167/160
f 224/306 223/307 169/162 168/161
f 223/307 222/310 170/163 169/162
f 222/310 221/311 171/396 170/163
f 221/311 220/314 172/397 171/396
f 220/398 219/399 173/400 172/401
f 219/399 218/402 141/58 173/400
f 187/323 141/58 218/402
f 345/77 344/80 314/89 315/82
f 344/80 343/285 313/90 314/89
f 342/286 341/349 311/233 312/232
f 340/237 339/227 309/236 310/242
f 324/243 309/236 308/235 323/351
f 322/350 307/348 306/144 321/143
f 319/20 349/226 348/240 318/21
f 232/319 240/322 241/403 283/404
f 241/403 304/405 303/406 242/190
f 318/21 348/240 347/230 317/182
f 240/322 305/327 304/405 241/403
f 233/407 283/404 282/197 244/196
f 243/329 232/319 283/404 233/407
f 246/408 233/407 244/196 245/200
f 247/331 243/329 233/407 246/408
f 287/409 246/408 245/200 290/203
f 284/333 247/331 246/408 287/409
f 251/410 250/411 248/207 252/206
f 253/336 249/337 250/411 251/410
f 254/412 251/410 252/206 293/212
f 255/339 253/336 251/410 254/412
f 283/404 241/403 242/190 282/197
f 286/340 299/343 298/413 289/414
f 289/414 298/413 297/219 292/218
f 285/344 296/347 295/415 288/416
f 288/416 295/415 294/225 291/224
f 296/347 255/339 254/412 295/415
f 295/415 254/412 293/212 294/225
f 335/154 320/72 319/20 334/19
f 343/285 276/294 277/295 342/286
f 256/256 326/234 325/241 239/255
f 298/413 288/416 291/224 297/219
f 250/411 287/409 290/203 248/207
f 338/85 337/75 307/348 308/235
f 333/22 318/21 317/182 332/16
f 344/80 275/79 276/294 343/285
f 268/151 269/291 350/71 351/73
f 299/343 285/344 288/416 298/413
f 249/337 284/333 287/409 250/411
f 301/141 306/144 303/74 300/388
f 341/349 340/237 310/242 311/233
f 305/327 300/352 303/406 304/405
f 302/142 234/95 235/247 321/143
f 322/350 321/143 235/247 236/249
f 237/250 323/351 322/350 236/249
f 238/252 324/243 323/351 237/250
f 325/241 324/243 238/252 239/255
g Group20786
f 513/417 515/418 486/419 485/420
f 352/421 483/422 444/423 355/424
f 513/417 512/425 514/426 515/418
f 658/427 635/428 637/429 660/430
f 684/431 688/432 687/433 682/434
f 353/435 356/436 358/437 357/438
f 530/439 492/440 517/441 518/442
f 644/443 606/444 608/445 645/446
f 683/447 665/448 666/449 667/450
f 354/451 500/452 499/453 361/454
f 354/451 362/455 477/456 500/452
f 354/451 361/454 363/457 362/455
f 363/457 361/454 364/458 365/459
f 363/457 365/459 366/460 367/461
f 363/457 367/461 368/462 362/455
f 368/462 369/463 427/464 478/465
f 368/462 478/465 477/456 362/455
f 368/462 367/461 370/466 369/463
f 370/466 371/467 372/468 369/463
f 370/466 367/461 366/460 373/469
f 370/466 373/469 374/470 371/467
f 374/470 373/469 375/471 376/472
f 376/472 375/471 377/473 378/474
f 378/475 377/476 379/477 380/478
f 380/478 379/477 381/479 382/480
f 382/480 381/479 383/481 384/482
f 384/482 383/481 385/483 386/484
f 386/484 385/483 387/485 388/486
f 686/487 668/488 670/489 685/490
f 388/486 387/485 389/491 390/492
f 558/493 552/494 637/429 638/495
f 683/447 667/450 686/487 685/490
f 628/496 627/497 547/498 543/499
f 698/500 621/501 577/502 578/503
f 603/504 568/505 569/506 605/507
f 390/492 389/491 391/508 392/509
f 392/509 391/508 393/510 394/511
f 558/493 638/495 588/512 559/513
f 528/514 489/515 488/516 514/426
f 394/511 393/510 395/517 396/518
f 537/519 536/520 411/521 409/522
f 538/523 461/524 460/525 465/526
f 396/518 395/517 397/527 398/528
f 636/529 587/530 588/512 638/495
f 538/523 407/531 405/532 461/524
f 690/533 678/534 677/535 652/536
f 603/504 605/507 604/537 545/538
f 528/514 527/539 490/540 489/515
f 404/541 406/542 577/502 576/543
f 553/544 552/494 558/493 557/545
f 511/546 513/417 485/420 484/547
f 538/523 537/519 409/522 407/531
f 462/548 360/549 516/550 488/516
f 398/528 397/527 399/551 400/552
f 688/432 649/553 650/554 687/433
f 400/552 399/551 401/555 402/556
f 402/556 401/555 403/557 404/541
f 404/541 403/557 405/532 406/542
f 406/542 405/532 407/531 408/558
f 408/558 407/531 409/522 410/559
f 410/559 409/522 411/521 412/560
f 412/560 411/521 413/561 414/562
f 414/562 413/561 415/563 416/564
f 416/564 415/563 417/565 418/566
f 511/546 510/567 512/425 513/417
f 613/568 573/569 574/570 615/571
f 418/566 417/565 419/572 420/573
f 374/470 376/472 562/574 561/575
f 535/576 465/526 464/577 466/578
f 489/515 490/540 464/577 463/579
f 553/544 557/545 556/580 555/581
f 553/544 555/581 554/582 551/583
f 697/584 579/585 580/586 696/587
f 509/588 511/546 484/547 483/422
f 688/432 674/589 648/590 649/553
f 524/591 528/514 514/426 512/425
f 636/529 638/495 637/429 635/428
f 420/573 419/572 421/592 422/593
f 398/528 400/552 574/570 573/569
f 524/591 522/594 527/539 528/514
f 422/593 421/592 423/595 424/596
f 426/597 428/598 588/512 587/530
f 509/588 508/599 510/567 511/546
f 424/596 423/595 425/600 426/597
f 426/597 425/600 427/464 428/598
f 602/601 567/602 568/505 603/504
f 616/603 550/604 549/605 614/606
f 628/496 543/499 546/607 629/608
f 683/447 685/490 684/431 682/434
f 428/598 372/468 559/513 588/512
f 428/598 427/464 369/463 372/468
f 681/609 665/448 683/447 682/434
f 669/610 671/611 670/489 668/488
f 602/601 603/504 545/538 601/612
f 424/596 426/597 587/530 586/613
f 679/614 663/615 665/448 681/609
f 695/616 625/617 698/500 697/584
f 619/618 618/619 621/501 620/620
f 600/621 566/622 567/602 602/601
f 680/623 655/624 657/625 661/626
f 600/621 602/601 601/612 599/627
f 598/628 565/629 566/622 600/621
f 502/630 504/631 429/632 364/458
f 502/630 364/458 361/454 499/453
f 429/632 504/631 506/633 430/634
f 429/632 430/634 431/635 432/636
f 429/632 432/636 365/459 364/458
f 432/636 431/635 433/637 434/638
f 432/636 434/638 366/460 365/459
f 434/638 433/637 377/473 375/471
f 434/638 375/471 373/469 366/460
f 433/639 431/640 435/641 436/642
f 433/639 436/642 379/477 377/476
f 436/642 435/641 437/643 438/644
f 436/642 438/644 381/479 379/477
f 438/644 437/643 439/645 440/646
f 438/644 440/646 383/481 381/479
f 440/646 439/645 441/647 442/648
f 440/646 442/648 385/483 383/481
f 442/648 441/647 355/424 443/649
f 442/648 443/649 387/485 385/483
f 630/650 632/651 631/652 629/608
f 649/553 623/653 624/654 650/554
f 443/649 355/424 444/423 445/655
f 443/649 445/655 389/491 387/485
f 598/628 600/621 599/627 597/656
f 656/657 658/427 657/625 655/624
f 680/623 661/626 663/615 679/614
f 605/507 607/658 606/444 604/537
f 535/576 537/519 538/523 465/526
f 692/659 626/660 695/616 694/661
f 621/501 618/619 576/543 577/502
f 699/662 581/663 582/664 700/665
f 376/472 378/474 563/666 562/574
f 535/576 534/667 536/520 537/519
f 445/655 444/423 446/668 447/669
f 445/655 447/669 391/508 389/491
f 447/669 446/668 448/670 449/671
f 447/669 449/671 393/510 391/508
f 642/672 601/612 545/538 542/673
f 642/672 542/673 643/674 669/610
f 647/675 612/676 614/606 549/605
f 544/677 552/494 553/544 551/583
f 449/671 448/670 450/678 451/679
f 449/671 451/679 395/517 393/510
f 396/518 398/528 573/569 572/680
f 699/662 700/665 548/681 693/682
f 422/593 424/596 586/613 585/683
f 647/675 549/605 550/604 676/684
f 451/679 450/678 452/685 453/686
f 451/679 453/686 397/527 395/517
f 634/687 586/613 587/530 636/529
f 634/687 636/529 635/428 633/688
f 652/536 692/659 691/689 690/533
f 626/660 692/659 652/536 651/690
f 489/515 463/579 462/548 488/516
f 611/691 572/680 573/569 613/568
f 596/692 564/693 565/629 598/628
f 596/692 598/628 597/656 595/694
f 533/695 531/696 357/438 358/437
f 420/573 422/593 585/683 584/697
f 643/674 604/537 606/444 644/443
f 525/698 524/591 512/425 510/567
f 544/677 660/430 637/429 552/494
f 544/677 551/583 659/699 660/430
f 536/520 534/667 533/695 539/700
f 558/493 559/513 560/701 557/545
f 532/702 534/667 535/576 466/578
f 532/702 531/696 533/695 534/667
f 406/542 408/558 578/503 577/502
f 526/703 525/698 510/567 508/599
f 453/686 452/685 454/704 455/705
f 453/686 455/705 399/551 397/527
f 605/507 569/506 570/706 607/658
f 530/439 518/442 493/707 467/708
f 455/705 454/704 456/709 457/710
f 455/705 457/710 401/555 399/551
f 457/710 458/711 403/557 401/555
f 457/710 456/709 459/712 458/711
f 459/712 460/525 461/524 458/711
f 459/712 456/709 360/549 462/548
f 459/712 462/548 463/579 460/525
f 463/579 464/577 465/526 460/525
f 649/553 648/590 622/713 623/653
f 541/714 470/715 419/572 417/565
f 684/431 672/716 674/589 688/432
f 613/568 615/571 614/606 612/676
f 408/558 410/559 579/585 578/503
f 410/559 412/560 580/586 579/585
f 466/578 464/577 490/540 491/717
f 466/578 491/717 492/440 532/702
f 492/440 530/439 531/696 532/702
f 523/718 507/719 506/720 505/721
f 523/718 525/698 526/703 507/719
f 523/718 522/594 524/591 525/698
f 378/475 380/478 564/693 563/722
f 529/723 517/441 492/440 491/717
f 541/714 356/436 469/724 470/715
f 539/700 540/725 415/563 413/561
f 539/700 533/695 358/437 540/725
f 645/446 608/445 610/726 646/727
f 700/665 582/664 583/728 701/729
f 380/478 382/480 565/629 564/693
f 382/480 384/482 566/622 565/629
f 394/511 396/518 572/680 571/730
f 654/731 656/657 655/624 653/732
f 543/499 547/498 548/681 546/607
f 700/665 701/729 546/607 548/681
f 560/701 559/513 372/468 371/467
f 593/733 563/722 564/693 596/692
f 593/733 596/692 595/694 591/734
f 611/691 613/568 612/676 610/726
f 669/610 643/674 644/443 671/611
f 626/660 651/690 650/554 624/654
f 412/560 414/562 581/663 580/586
f 673/735 675/736 674/589 672/716
f 560/701 561/575 556/580 557/545
f 470/715 469/724 471/737 472/738
f 470/715 472/738 421/592 419/572
f 594/739 556/580 561/575 562/574
f 594/739 562/574 563/666 593/740
f 692/659 694/661 693/682 691/689
f 592/741 555/581 556/580 594/739
f 472/738 471/737 473/742 474/743
f 472/738 474/743 423/595 421/592
f 392/509 394/511 571/730 570/706
f 547/498 627/497 690/533 691/689
f 641/744 599/627 601/612 642/672
f 641/744 642/672 669/610 668/488
f 474/743 473/742 475/745 476/746
f 474/743 476/746 425/600 423/595
f 476/746 475/745 477/456 478/465
f 476/746 478/465 427/464 425/600
f 650/554 651/690 689/747 687/433
f 689/747 651/690 652/536 677/535
f 521/748 522/594 523/718 505/721
f 414/562 416/564 582/664 581/663
f 504/631 503/749 505/721 506/633
f 357/438 531/696 530/439 467/708
f 693/682 548/681 547/498 691/689
f 671/611 644/443 645/446 673/735
f 701/729 583/728 584/697 630/650
f 502/630 501/750 503/749 504/631
f 701/729 630/650 629/608 546/607
f 400/552 402/556 575/751 574/570
f 607/658 609/752 608/445 606/444
f 402/556 404/541 576/543 575/751
f 607/658 570/706 571/730 609/752
f 639/753 597/656 599/627 641/744
f 685/490 670/489 672/716 684/431
f 639/753 641/744 668/488 686/487
f 628/496 654/731 653/732 627/497
f 632/651 585/683 586/613 634/687
f 675/736 646/727 647/675 676/684
f 507/719 526/703 479/754 480/755
f 507/719 480/755 430/756 506/720
f 480/755 479/754 437/643 435/641
f 480/755 435/641 431/640 430/756
f 479/754 526/703 508/599 481/757
f 479/754 481/757 439/645 437/643
f 481/757 508/599 509/588 482/758
f 481/757 482/758 441/647 439/645
f 482/758 509/588 483/422 352/421
f 482/758 352/421 355/424 441/647
f 675/736 676/684 648/590 674/589
f 519/759 521/748 505/721 503/749
f 678/534 653/732 655/624 680/623
f 678/534 680/623 679/614 677/535
f 615/571 617/760 616/603 614/606
f 592/741 594/739 593/740 591/761
f 589/762 554/582 555/581 592/741
f 540/725 541/714 417/565 415/563
f 622/713 648/590 676/684 550/604
f 615/571 574/570 575/751 617/760
f 646/727 610/726 612/676 647/675
f 689/747 677/535 679/614 681/609
f 689/747 681/609 682/434 687/433
f 499/453 497/763 501/750 502/630
f 483/422 484/547 446/668 444/423
f 384/482 386/484 567/602 566/622
f 484/547 485/420 448/670 446/668
f 640/764 590/765 591/734 595/694
f 640/764 595/694 597/656 639/753
f 664/766 666/767 665/448 663/615
f 667/450 666/449 590/765 640/764
f 386/484 388/486 568/505 567/602
f 485/420 486/419 450/678 448/670
f 390/492 392/509 570/706 569/506
f 498/768 500/452 477/456 475/745
f 617/760 575/751 576/543 618/619
f 498/768 497/763 499/453 500/452
f 496/769 498/768 475/745 473/742
f 486/419 487/770 452/685 450/678
f 632/651 634/687 633/688 631/652
f 617/760 618/619 619/618 616/603
f 496/769 495/771 497/763 498/768
f 695/616 626/660 624/654 625/617
f 609/752 571/730 572/680 611/691
f 609/752 611/691 610/726 608/445
f 589/762 592/741 591/761 590/772
f 589/762 590/772 666/767 664/766
f 540/725 358/437 356/436 541/714
f 520/773 501/750 497/763 495/771
f 696/587 580/586 581/663 699/662
f 468/774 353/435 357/438 467/708
f 542/673 545/538 604/537 643/674
f 667/450 640/764 639/753 686/487
f 659/699 662/775 661/626 657/625
f 696/587 699/662 693/682 694/661
f 468/774 469/724 356/436 353/435
f 520/773 519/759 503/749 501/750
f 698/500 625/617 620/620 621/501
f 560/701 371/467 374/470 561/575
f 662/775 664/766 663/615 661/626
f 487/770 359/776 454/704 452/685
f 487/770 516/550 360/549 359/776
f 656/657 633/688 635/428 658/427
f 658/427 660/430 659/699 657/625
f 518/442 520/773 495/771 493/707
f 536/520 539/700 413/561 411/521
f 518/442 517/441 519/759 520/773
f 654/731 631/652 633/688 656/657
f 695/616 697/584 696/587 694/661
f 529/723 521/748 519/759 517/441
f 515/418 516/550 487/770 486/419
f 456/709 454/704 359/776 360/549
f 461/524 405/532 403/557 458/711
f 690/533 627/497 653/732 678/534
f 673/735 645/446 646/727 675/736
f 388/486 390/492 569/506 568/505
f 490/540 527/539 529/723 491/717
f 418/566 420/573 584/697 583/728
f 515/418 514/426 488/516 516/550
f 662/775 659/699 551/583 554/582
f 662/775 554/582 589/762 664/766
f 671/611 673/735 672/716 670/489
f 628/496 629/608 631/652 654/731
f 494/777 496/769 473/742 471/737
f 698/500 578/503 579/585 697/584
f 623/653 620/620 625/617 624/654
f 619/618 620/620 623/653 622/713
f 619/618 622/713 550/604 616/603
f 529/723 527/539 522/594 521/748
f 494/777 493/707 495/771 496/769
f 468/774 467/708 493/707 494/777
f 468/774 494/777 471/737 469/724
f 416/564 418/566 583/728 582/664
f 630/650 584/697 585/683 632/651

 