# Wavefront Obj file
# 
# verts: 8 uv-s: 20
mtllib tlo_box.mtl

g Group4027
#pivot 0.000000 0.000000 0.000000

v 7.775502 18.275341 7.500581
v -8.390199 18.167540 7.500581
v 7.775502 18.275339 -8.998981
v -8.390199 18.167540 -8.998981
v 7.812446 2.410362 7.500581
v 7.812446 2.410361 -8.998981
v -8.158372 2.410362 7.500581
v -8.158372 2.410361 -8.998981
# 8 positions

vt 0.328639 0.343850
vt 0.328639 0.005000
vt 0.005000 0.005000
vt 0.005000 0.343850
vt 0.336145 0.005000
vt 0.336145 0.343850
vt 0.661964 0.343850
vt 0.661964 0.005000
vt 0.343850 0.351283
vt 0.005000 0.351283
vt 0.005000 0.679274
vt 0.343850 0.679274
vt 0.676922 0.681320
vt 0.676922 0.351330
vt 0.352200 0.351331
vt 0.352200 0.681320
vt 0.994822 0.337705
vt 0.994822 0.007715
vt 0.670099 0.007715
vt 0.670099 0.337705
# 20 texture coordinates

vn -0.707105 -0.001647 -0.707107
vn 0.707030 0.010402 -0.707107
vn -0.707105 -0.001647 0.707107
vn 0.707030 0.010402 0.707107
vn -0.577797 0.576454 -0.577799
vn -0.577797 0.576454 0.577799
vn 0.574478 0.582992 -0.574540
vn 0.574478 0.582992 0.574540
# 8 normals

usemtl default
f 4/1/4 2/2/2 7/3/7 8/4/8
f 6/5/6 5/6/5 1/7/1 3/8/3
f 8/9/8 7/10/7 5/11/5 6/12/6
f 8/13/8 6/14/6 3/15/3 4/16/4
f 5/17/5 7/18/7 2/19/2 1/20/1

# 5 faces
