# Wavefront Obj file
# 
# verts: 44 uv-s: 80
mtllib tlo_elevator.mtl

g Group28841
#pivot 0.000000 0.000000 0.000000

v -5.094769 6.246000 -1.978401
v -5.094769 -0.250467 -1.978401
v -1.531897 1.980369 0.354887
v -1.531897 1.980368 -1.978401
v -1.708185 6.246000 0.354887
v -1.708185 6.246000 -1.978401
v -1.708185 -0.265690 -1.978400
v -1.708185 -0.265690 0.354888
v -1.531897 -0.265690 0.354888
v -1.531897 -0.265690 -1.978400
v -1.374602 2.619990 0.354887
v -1.708185 2.616417 0.354887
v -1.708185 1.946441 0.354887
v -1.708185 1.959930 -1.978401
v -1.369116 2.704537 -1.978401
v -1.708185 2.680920 -1.978401
v -1.278295 6.246000 0.354887
v -1.273134 6.246000 -1.920609
v 5.094770 6.246000 -1.978401
v 5.094770 -0.250467 -1.978401
v 1.531897 1.980369 0.354887
v 1.531897 1.980368 -1.978401
v 1.708186 6.246000 0.354887
v 1.708186 6.246000 -1.978401
v 1.708186 -0.265690 -1.978400
v 1.708186 -0.265690 0.354888
v 1.531897 -0.265690 0.354888
v 1.531897 -0.265690 -1.978400
v 1.374602 2.619990 0.354887
v 1.708186 2.616417 0.354887
v 1.708186 1.946441 0.354887
v 1.708186 1.959930 -1.978401
v 1.369116 2.704537 -1.978401
v 1.708186 2.680920 -1.978401
v 1.278295 6.246000 0.354887
v 1.273134 6.246000 -1.920609
v -5.094770 -0.287857 7.666498
v 5.094771 -0.287857 7.666498
v 5.304259 6.266700 7.745206
v -5.304259 6.266700 7.745206
v 4.583039 9.675264 -1.899842
v -4.583038 9.675264 -1.899842
v 4.713184 9.707672 6.919690
v -4.713184 9.707672 6.919690
# 44 positions

vt 0.676996 0.658630
vt 0.686187 0.658630
vt 0.686187 0.777301
vt 0.676996 0.777301
vt 0.801687 0.231909
vt 0.801687 0.209306
vt 0.811234 0.209306
vt 0.811234 0.231909
vt 0.701693 0.088343
vt 0.701693 0.011574
vt 0.711240 0.011574
vt 0.711240 0.088343
vt 0.711240 0.231909
vt 0.711240 0.209306
vt 0.811234 0.306311
vt 0.811234 0.384369
vt 0.801687 0.384369
vt 0.801687 0.306311
vt 0.701693 0.306311
vt 0.701693 0.231909
vt 0.711240 0.306311
vt 0.676180 0.887314
vt 0.754383 0.887314
vt 0.754383 0.990000
vt 0.676180 0.990000
vt 0.801687 0.088343
vt 0.811234 0.088343
vt 0.623625 0.209306
vt 0.701693 0.209306
vt 0.623625 0.231909
vt 0.788016 0.658630
vt 0.788016 0.777301
vt 0.778825 0.777301
vt 0.778825 0.658630
vt 0.471448 0.322585
vt 0.471448 0.640567
vt 0.353106 0.640567
vt 0.353106 0.322585
vt 0.778825 0.801873
vt 0.686187 0.801873
vt 0.128303 0.313560
vt 0.128303 0.631543
vt 0.009960 0.631543
vt 0.009960 0.313560
vt 0.801687 0.011574
vt 0.124739 0.651785
vt 0.124739 0.988607
vt 0.008146 0.988607
vt 0.008146 0.651785
vt 0.711240 0.384369
vt 0.701693 0.384369
vt 0.889302 0.231909
vt 0.889302 0.306311
vt 0.432245 0.239362
vt 0.432245 0.314641
vt 0.354043 0.314641
vt 0.354043 0.239362
vt 0.623625 0.306311
vt 0.811234 0.011574
vt 0.889302 0.088343
vt 0.889302 0.209306
vt 0.676996 0.876603
vt 0.676996 0.801873
vt 0.686187 0.876603
vt 0.343141 0.988607
vt 0.343141 0.651785
vt 0.667390 0.651785
vt 0.667390 0.988607
vt 0.690410 0.640567
vt 0.690410 0.322585
vt 0.347264 0.313560
vt 0.347264 0.631543
vt 0.623625 0.088343
vt 0.088202 0.306300
vt 0.010000 0.306300
vt 0.010000 0.231021
vt 0.088202 0.231021
vt 0.788016 0.801873
vt 0.788016 0.876603
vt 0.778825 0.876603
# 80 texture coordinates

vn 0.698557 -0.057443 0.713244
vn 0.571419 0.580656 0.579930
vn 0.301511 -0.301511 0.904534
vn 0.301511 -0.301511 -0.904534
vn -0.577350 0.577350 0.577350
vn -0.546869 0.594917 -0.589074
vn -0.577350 -0.577350 -0.577350
vn -0.577350 -0.577350 0.577350
vn 0.577350 -0.577350 0.577350
vn 0.577350 -0.577350 -0.577350
vn 0.000000 0.000000 1.000000
vn -0.707107 0.000000 0.707107
vn -0.707107 0.000000 0.707107
vn -0.707107 -0.000000 -0.707107
vn 0.018568 0.005859 -0.999810
vn -0.694112 0.002562 -0.719863
vn 0.000000 0.707107 0.707107
vn 0.026101 0.711482 -0.702220
vn -0.698557 -0.057443 0.713244
vn -0.571419 0.580656 0.579930
vn -0.301511 -0.301511 0.904534
vn -0.301511 -0.301511 -0.904534
vn 0.577350 0.577350 0.577350
vn 0.546870 0.594917 -0.589074
vn 0.577350 -0.577350 -0.577350
vn 0.577350 -0.577350 0.577350
vn -0.577350 -0.577350 0.577350
vn -0.577350 -0.577350 -0.577350
vn 0.000000 0.000000 1.000000
vn 0.707107 0.000000 0.707107
vn 0.707107 0.000000 0.707107
vn 0.707107 -0.000000 -0.707107
vn -0.018567 0.005859 -0.999810
vn 0.694112 0.002562 -0.719863
vn 0.000000 0.707107 0.707107
vn -0.026101 0.711482 -0.702220
vn 0.701378 0.712715 0.010315
vn -0.701378 0.712715 0.010315
vn -0.997401 -0.070522 0.014737
vn 0.997401 -0.070522 0.014737
vn -0.690676 -0.125476 0.712196
vn 0.690676 -0.125476 0.712196
vn -0.987504 -0.156498 0.018535
vn 0.987504 -0.156498 0.018535
# 44 normals

usemtl defaultMat
f 6/1/6 18/2/18 15/3/15 16/4/16
f 3/5/3 11/6/11 12/7/12 13/8/13
f 23/9/23 24/10/24 36/11/36 35/12/35
f 21/13/21 29/14/29 11/6/11 3/5/3
f 8/15/8 7/16/7 10/17/10 9/18/9
f 8/15/8 9/18/9 3/5/3 13/8/13
f 26/19/26 31/20/31 21/13/21 27/21/27
f 22/22/22 21/23/21 3/24/3 4/25/4
f 17/26/17 5/27/5 12/7/12 11/6/11
f 34/28/34 30/29/30 31/20/31 32/30/32
f 24/31/24 34/32/34 33/33/33 36/34/36
f 40/35/40 1/36/1 42/37/42 44/38/44
f 33/33/33 22/39/22 4/40/4 15/3/15
f 19/41/19 39/42/39 43/43/43 41/44/41
f 36/11/36 18/45/18 17/26/17 35/12/35
f 1/46/1 19/47/19 41/48/41 42/49/42
f 26/19/26 27/21/27 28/50/28 25/51/25
f 35/12/35 29/14/29 30/29/30 23/9/23
f 8/15/8 13/8/13 14/52/14 7/53/7
f 27/54/27 21/55/21 22/56/22 28/57/28
f 26/19/26 25/58/25 32/30/32 31/20/31
f 5/27/5 17/26/17 18/45/18 6/59/6
f 5/27/5 6/60/6 16/61/16 12/7/12
f 7/62/7 14/63/14 4/40/4 10/64/10
f 20/65/20 2/66/2 37/67/37 38/68/38
f 4/40/4 14/63/14 16/4/16 15/3/15
f 2/69/2 1/36/1 40/35/40 37/70/37
f 19/41/19 20/71/20 38/72/38 39/42/39
f 19/47/19 1/46/1 2/66/2 20/65/20
f 23/9/23 30/29/30 34/28/34 24/73/24
f 18/2/18 36/34/36 33/33/33 15/3/15
f 29/14/29 35/12/35 17/26/17 11/6/11
f 21/13/21 31/20/31 30/29/30 29/14/29
f 9/74/9 10/75/10 4/76/4 3/77/3
f 22/39/22 33/33/33 34/32/34 32/78/32
f 25/79/25 28/80/28 22/39/22 32/78/32
f 16/61/16 14/52/14 13/8/13 12/7/12

# 37 faces
